<svg width="70" height="70" viewBox="0 0 70 70" fill="none" xmlns="http://www.w3.org/2000/svg">
<circle cx="34.9856" cy="34.9856" r="34.2356" stroke="#323429" stroke-width="1.5"/>
<path d="M15.1452 15.0639C17.9425 12.2668 22.6762 11.7025 28.2854 13.3507C33.864 14.9899 40.1205 18.7776 45.6965 24.3537C51.2726 29.9297 55.0603 36.1862 56.6995 41.7648C58.3477 47.374 57.7834 52.1077 54.9863 54.905C52.189 57.7022 47.4549 58.2672 41.8454 56.6189C36.2669 54.9796 30.0103 51.1919 24.4343 45.6159C18.8583 40.0399 15.0706 33.7834 13.4313 28.2048C11.783 22.5953 12.3479 17.8612 15.1452 15.0639Z" stroke="#323429" stroke-width="1.5"/>
<path d="M54.9856 15.0639C52.1883 12.2668 47.4547 11.7025 41.8454 13.3507C36.2669 14.9899 30.0104 18.7776 24.4343 24.3537C18.8583 29.9297 15.0706 36.1862 13.4314 41.7648C11.7832 47.374 12.3475 52.1077 15.1446 54.905C17.9419 57.7022 22.676 58.2672 28.2854 56.6189C33.864 54.9796 40.1205 51.1919 45.6966 45.6159C51.2726 40.0399 55.0603 33.7834 56.6995 28.2048C58.3478 22.5953 57.7829 17.8612 54.9856 15.0639Z" stroke="#323429" stroke-width="1.5"/>
</svg>
