<svg width="70" height="70" viewBox="0 0 70 70" fill="none" xmlns="http://www.w3.org/2000/svg">
<path d="M37.2341 1.4895C36.9495 2.91227 35.5122 6.3172 30.7318 7.68305C24.7561 9.39037 23.0488 9.39037 23.0488 14.5123C23.0488 18.6099 28.7399 18.4961 31.5854 17.927C36.4228 16.7887 46.7805 16.5611 49.5122 24.7562C51.7536 31.4805 53.7652 30.6183 55.3582 29.1491C56.0335 28.5262 56.5272 27.7225 57.1629 27.0591C58.4806 25.6837 60.9395 24.3439 63.304 26.3013C64.5381 27.3229 64.7772 29.0615 65.3074 30.5732C65.8496 32.1189 66.9849 33.7142 69.1464 34.1465" stroke="#323429" stroke-width="1.47887"/>
<path d="M32.7385 25.3548C26.8541 22.8798 22.7413 28.6484 20.9771 32.8493C20.6213 33.6963 20.4451 34.6231 20.6045 35.5279C21.2091 38.9595 24.0362 40.7071 26.3606 41.437C27.5269 41.8032 29.7988 41.2723 31.017 41.3745C33.8317 41.6105 34.466 44.856 35.0077 47.6281L35.0078 47.6285C35.5409 50.3563 35.7697 53.8632 35.8335 56.5014C35.8583 57.5261 36.0078 58.557 36.4715 59.4711C37.7753 62.0416 39.2621 62.5279 40.4135 62.2627C41.4732 62.0186 42.0389 60.946 42.5218 59.9717C43.595 57.8061 45.3265 54.8633 46.9507 53.7805C47.5138 53.4051 47.9179 53.0641 48.2018 52.761C48.9933 51.9163 48.3825 50.6673 48.266 49.5156C48.0936 47.8121 48.428 45.474 50.3654 43.5366C53.0971 40.8049 50.9345 37.8456 49.5117 36.7074C48.3735 35.8537 46.2678 33.4634 46.9507 30.7318C47.8044 27.3171 45.2434 24.7561 41.8288 25.6098C40.4047 25.9658 38.5632 27.215 33.8729 25.7946C33.4858 25.6774 33.1113 25.5117 32.7385 25.3548Z" stroke="#323429" stroke-width="1.47887"/>
<path d="M0.853516 36.7073C2.27628 36.7073 5.29254 37.2195 5.97547 39.2683C6.54769 40.985 8.35851 42.4219 9.60013 43.1775C10.0195 43.4327 10.4821 43.5985 10.939 43.7781C13.5546 44.8063 17.1507 47.5411 15.8984 52.284C15.6306 53.2984 14.9117 54.1434 14.548 55.1275C14.2618 55.9017 14.1338 56.9142 14.5121 58.0488C15.195 60.0976 14.2275 61.748 13.6584 62.3171" stroke="#323429" stroke-width="1.47887"/>
<path d="M8.53644 13.6587C10.7546 14.546 14.9094 17.3699 15.6631 20.8364C16.0927 22.812 14.3504 24.365 12.6528 25.4629C11.7621 26.0389 10.8709 26.6901 10.2438 27.3172C10.0513 27.5097 9.87922 27.6931 9.72555 27.8669C8.69959 29.0278 8.12957 30.6301 6.89678 31.5684C5.37924 32.7234 3.11638 33.7454 0.853516 33.2928" stroke="#323429" stroke-width="1.47887"/>
<circle cx="35" cy="35" r="34.2606" stroke="#323429" stroke-width="1.47887"/>
</svg>
