<svg width="24" height="24" viewBox="0 0 24 24" fill="none" xmlns="http://www.w3.org/2000/svg">
<path fill-rule="evenodd" clip-rule="evenodd" d="M9.73568 8.32851L3.74023 2.33306L4.1192 1.9541L10.2716 8.10652V15.3633H9.73568V8.32851Z" fill="#323429"/>
<path fill-rule="evenodd" clip-rule="evenodd" d="M15.2751 8.32844L21.2705 2.33299L20.8915 1.95403L14.7391 8.10644V15.3632H15.2751V8.32844Z" fill="#323429"/>
<path fill-rule="evenodd" clip-rule="evenodd" d="M14.0244 7.03327L17.3877 0.660756L16.9137 0.410604L13.4885 6.90052V15.3632H14.0244V7.03327Z" fill="#323429"/>
<path fill-rule="evenodd" clip-rule="evenodd" d="M10.9863 7.03331L7.62305 0.660797L8.09702 0.410645L11.5223 6.90056V15.3633H10.9863V7.03331Z" fill="#323429"/>
<path fill-rule="evenodd" clip-rule="evenodd" d="M12.7732 0V15.3635H12.2373V0H12.7732Z" fill="#323429"/>
<mask id="mask0_15204_334" style="mask-type:alpha" maskUnits="userSpaceOnUse" x="0" y="0" width="24" height="24">
<rect width="24" height="24" fill="#D9D9D9"/>
</mask>
<g mask="url(#mask0_15204_334)">
<path fill-rule="evenodd" clip-rule="evenodd" d="M8.57504 17.8644H5.35943C3.97815 17.8644 2.8584 18.9842 2.8584 20.3655V28.5831C2.8584 29.9644 3.97815 31.0842 5.35943 31.0842H19.651C21.0323 31.0842 22.1521 29.9644 22.1521 28.5831V20.3655C22.1521 18.9842 21.0323 17.8644 19.651 17.8644H16.4354V15.0061H8.57504V17.8644ZM9.11097 15.542V18.4004H5.35943C4.27414 18.4004 3.39433 19.2802 3.39433 20.3655V28.5831C3.39433 29.6684 4.27414 30.5482 5.35943 30.5482H19.651C20.7363 30.5482 21.6161 29.6684 21.6161 28.5831V20.3655C21.6161 19.2802 20.7363 18.4004 19.651 18.4004H15.8995V15.542H9.11097Z" fill="#323429"/>
</g>
</svg>
