<svg width="70" height="70" viewBox="0 0 70 70" fill="none" xmlns="http://www.w3.org/2000/svg">
<g clip-path="url(#clip0_15204_340)">
<mask id="path-2-inside-1_15204_340" fill="white">
<path d="M55 51C58.866 51 62 54.134 62 58V81C62 84.866 58.866 88 55 88H15C11.134 88 8 84.866 8 81V58C8 54.134 11.134 51 15 51H24V43H46V51H55Z"/>
</mask>
<path d="M62 58H63.5V58H62ZM62 81H63.5V81H62ZM8 81H6.5V81H8ZM8 58H6.5V58H8ZM24 51V52.5H25.5V51H24ZM24 43V41.5H22.5V43H24ZM46 43H47.5V41.5H46V43ZM46 51H44.5V52.5H46V51ZM55 51V52.5C58.0376 52.5 60.5 54.9624 60.5 58H62H63.5C63.5 53.3056 59.6944 49.5 55 49.5V51ZM62 58H60.5V81H62H63.5V58H62ZM62 81H60.5C60.5 84.0376 58.0376 86.5 55 86.5V88V89.5C59.6944 89.5 63.5 85.6944 63.5 81H62ZM55 88V86.5H15V88V89.5H55V88ZM15 88V86.5C11.9624 86.5 9.5 84.0376 9.5 81H8H6.5C6.5 85.6944 10.3056 89.5 15 89.5V88ZM8 81H9.5V58H8H6.5V81H8ZM8 58H9.5C9.5 54.9624 11.9624 52.5 15 52.5V51V49.5C10.3056 49.5 6.5 53.3056 6.5 58H8ZM15 51V52.5H24V51V49.5H15V51ZM24 51H25.5V43H24H22.5V51H24ZM24 43V44.5H46V43V41.5H24V43ZM46 43H44.5V51H46H47.5V43H46ZM46 51V52.5H55V51V49.5H46V51Z" fill="#323429" mask="url(#path-2-inside-1_15204_340)"/>
<path d="M11 7L28 24V44" stroke="#323429" stroke-width="1.5"/>
<path d="M59 7L42 24V44" stroke="#323429" stroke-width="1.5"/>
<path d="M48 2.5L38.5 20.5V44" stroke="#323429" stroke-width="1.5"/>
<path d="M22 2.5L31.5 20.5V44" stroke="#323429" stroke-width="1.5"/>
<path d="M35 44V1" stroke="#323429" stroke-width="1.5"/>
<circle cx="34.9856" cy="34.9856" r="34.2356" stroke="#323429" stroke-width="1.5"/>
</g>
<defs>
<clipPath id="clip0_15204_340">
<rect width="69.9712" height="69.9712" rx="34.9856" fill="white"/>
</clipPath>
</defs>
</svg>
