<svg width="24" height="24" viewBox="0 0 24 24" fill="none" xmlns="http://www.w3.org/2000/svg">
<g clip-path="url(#clip0_16645_1787)">
<path d="M17.2753 14.1306C17.2753 11.4857 15.1467 9.70594 12.3772 9.70594C9.60783 9.70597 7.47913 11.4857 7.47913 14.1306C7.47917 16.8357 9.6721 19.0287 12.3772 19.0287V19.543C9.43475 19.5429 7.04061 17.1949 6.96652 14.2702L6.96484 14.1306C6.96484 11.1414 9.38805 9.19168 12.3772 9.19165C15.3665 9.19165 17.7896 11.1414 17.7896 14.1306L17.7879 14.2702C17.7139 17.1949 15.3197 19.543 12.3772 19.543V19.0287C15.0824 19.0287 17.2753 16.8358 17.2753 14.1306Z" fill="black"/>
<path d="M13.5268 4.40894V7.15447H14.2584V9.5374H13.7441V7.66876H10.8663V9.5374H10.352V7.15447H11.1503V6.2086H10.0771V5.69432H11.1503V4.40894H13.5268ZM11.6645 7.15447H13.0125V4.92322H11.6645V7.15447Z" fill="black"/>
<path d="M5.48535 5.94105C5.48535 4.93218 6.30328 4.11426 7.31214 4.11426C7.7112 4.11427 8.08007 4.24265 8.38056 4.45979L11.0293 6.07565L8.24495 7.51137C7.97188 7.67394 7.65302 7.76783 7.31214 7.76784V7.25355C7.55727 7.25354 7.78557 7.1862 7.98178 7.0694L7.99518 7.06137L8.00924 7.05433L9.98 6.03781L8.1127 4.89875L8.09562 4.88837L8.07922 4.87665C7.89013 4.74002 7.6643 4.65263 7.41861 4.6329L7.31214 4.62855C6.58731 4.62855 5.99964 5.21622 5.99964 5.94105C5.99968 6.66587 6.58736 7.25355 7.31214 7.25355V7.76784C6.3033 7.76784 5.48539 6.94988 5.48535 5.94105Z" fill="black"/>
<path d="M15.8845 4.33898L14.6668 5.01565L14.417 4.56599L15.6347 3.88965L15.8845 4.33898Z" fill="black"/>
<path d="M14.4172 6.78502L15.635 7.4617L15.8848 7.01203L14.667 6.33569L14.4172 6.78502Z" fill="black"/>
<path d="M16.1006 5.97242L14.7473 5.99977L14.737 5.48531L16.09 5.45825L16.1006 5.97242Z" fill="black"/>
<path d="M23.4857 12C23.4857 5.65662 18.3434 0.514286 12 0.514286C5.65662 0.514286 0.514286 5.65662 0.514286 12C0.514286 18.3434 5.65662 23.4857 12 23.4857V24C5.37258 24 0 18.6274 0 12C0 5.37258 5.37258 0 12 0C18.6274 0 24 5.37258 24 12C24 18.6274 18.6274 24 12 24V23.4857C18.3434 23.4857 23.4857 18.3434 23.4857 12Z" fill="black"/>
<path d="M20.4253 3.57321L3.52084 20.4777L3.15723 20.1141L20.0617 3.20959L20.4253 3.57321Z" fill="black"/>
</g>
<defs>
<clipPath id="clip0_16645_1787">
<rect width="24" height="24" rx="12" fill="white"/>
</clipPath>
</defs>
</svg>
