<svg width="70" height="70" viewBox="0 0 70 70" fill="none" xmlns="http://www.w3.org/2000/svg">
<g clip-path="url(#clip0_18556_5709)">
<circle cx="34.9994" cy="34.9994" r="34.2491" stroke="#323429" stroke-width="1.50059"/>
<path d="M2.52637 47.498L11.649 40.522C13.5675 39.0548 15.9156 38.2599 18.3309 38.2599H32.3862C33.7856 38.2599 35.2409 38.461 36.2748 39.404C37.2097 40.2568 38.0577 41.5335 38.0577 43.2343C38.0577 44.935 37.2097 46.2118 36.2748 47.0645C35.2409 48.0076 33.7856 48.2087 32.3862 48.2087H23.1346" stroke="#323429" stroke-width="1.5"/>
<path d="M11.7646 61H30.9617C33.2654 61 35.511 60.2767 37.3817 58.9322L55.6213 45.8225C56.6948 45.0509 57.6874 44.1125 58.114 42.8611C58.6683 41.2355 58.8164 39.1209 57.2448 37.5493C54.9708 35.2753 51.5598 36.6018 50.1385 37.5493L36.6366 46.7874" stroke="#323429" stroke-width="1.5"/>
<path d="M37.3848 34.2043V19.6746" stroke="#323429" stroke-width="1.5"/>
<path d="M43 20.7826C43 17.1304 39.3333 12.7391 37.5 11C35.6667 12.9565 32 17.6522 32 20.7826C32 24.6957 36.2778 26 37.5 26C38.7222 26 43 25.3478 43 20.7826Z" stroke="#323429" stroke-width="1.5"/>
</g>
<defs>
<clipPath id="clip0_18556_5709">
<rect width="70" height="70" rx="35" fill="white"/>
</clipPath>
</defs>
</svg>
