<svg width="25" height="24" viewBox="0 0 25 24" fill="none" xmlns="http://www.w3.org/2000/svg">
<path fill-rule="evenodd" clip-rule="evenodd" d="M0.00041657 19.9717L23.2199 6.43457L23.5861 7.06266L0.366599 20.5998L0.00041657 19.9717Z" fill="#323429"/>
<path fill-rule="evenodd" clip-rule="evenodd" d="M24.2058 6.68388L23.8884 6.50669L23.8803 6.14326L24.5154 6.12918L24.2058 6.68388ZM23.2583 6.88552C22.9675 6.89286 22.5871 6.90283 22.1377 6.91542C21.0593 6.94563 19.5838 6.99096 17.9949 7.05141C14.8094 7.1726 11.1926 7.35379 9.39543 7.59333C7.6499 7.82598 5.65633 8.7457 4.49917 10.3644C3.36254 11.9545 2.98272 14.2906 4.58279 17.4911C5.38204 19.0898 6.34212 20.1148 7.34854 20.7305C8.35429 21.3458 9.42762 21.5654 10.476 21.5197C12.5897 21.4277 14.5859 20.2565 15.6201 19.1074C16.1436 18.5258 16.9021 17.443 17.7549 16.124C18.6034 14.8118 19.5324 13.2864 20.3947 11.8343C21.2568 10.3826 22.051 9.00615 22.6297 7.99253C22.8857 7.54412 23.0995 7.16681 23.2583 6.88552ZM23.8884 6.50669C23.8803 6.14326 23.8804 6.14326 23.8803 6.14326L23.7565 6.14611L23.4037 6.15462C23.098 6.16218 22.6574 6.17353 22.1174 6.18866C21.0373 6.21892 19.5593 6.26433 17.9673 6.32489C14.7912 6.44572 11.1375 6.62768 9.29938 6.87267C7.40964 7.12454 5.21051 8.11917 3.90771 9.94163C2.58438 11.7928 2.23695 14.4248 3.93249 17.8162C4.78105 19.5135 5.8263 20.6515 6.96914 21.3507C8.11265 22.0502 9.33253 22.2973 10.5077 22.2461C12.8412 22.1445 15.0135 20.8682 16.1605 19.5938C16.7275 18.9638 17.5142 17.8353 18.3654 16.5188C19.2211 15.1956 20.1553 13.6614 21.0198 12.2055C21.8846 10.7492 22.681 9.36898 23.2611 8.35302C23.5511 7.84498 23.7872 7.42788 23.9508 7.13771C24.0326 6.99263 24.0963 6.87927 24.1396 6.80213L24.2058 6.68388C24.2058 6.68379 24.2058 6.68388 23.8884 6.50669Z" fill="#323429"/>
<path fill-rule="evenodd" clip-rule="evenodd" d="M9.61682 14.7748L11.8357 7.11296L12.534 7.31519L10.5313 14.2307L17.9068 15.8444L17.7514 16.5546L9.61682 14.7748Z" fill="#323429"/>
</svg>
