<svg width="25" height="25" viewBox="0 0 25 25" fill="none" xmlns="http://www.w3.org/2000/svg">
<path d="M1.69553 1.6958C3.17295 0.218465 5.65899 -0.0673318 8.57394 0.789127C11.4763 1.64197 14.7262 3.61034 17.6199 6.50399C20.5137 9.39771 22.4819 12.6476 23.3348 15.55C24.1914 18.4651 23.9055 20.9509 22.4281 22.4284C20.9507 23.9058 18.4648 24.1916 15.5497 23.3351C12.6473 22.4822 9.39744 20.5139 6.50372 17.6202C3.61007 14.7265 1.6417 11.4765 0.788858 8.57421C-0.0675779 5.65925 0.218142 3.17319 1.69553 1.6958Z" stroke="#323429" stroke-width="0.62116"/>
<path d="M22.4285 1.6958C20.9511 0.218465 18.465 -0.0673318 15.5501 0.789127C12.6478 1.64197 9.39778 3.61034 6.50409 6.50399C3.61037 9.39771 1.64209 12.6476 0.789231 15.55C-0.0673443 18.4651 0.218514 20.9509 1.6959 22.4284C3.17334 23.9058 5.65922 24.1916 8.57431 23.3351C11.4767 22.4822 14.7266 20.5139 17.6203 17.6202C20.514 14.7265 22.4823 11.4765 23.3352 8.57421C24.1916 5.65925 23.9059 3.17319 22.4285 1.6958Z" stroke="#323429" stroke-width="0.62116"/>
</svg>
