<svg width="25" height="25" viewBox="0 0 25 25" fill="none" xmlns="http://www.w3.org/2000/svg">
<circle cx="10.3671" cy="1.22156" r="0.976592" stroke="#323429" stroke-width="0.489929"/>
<circle cx="18.2059" cy="3.18139" r="0.976592" stroke="#323429" stroke-width="0.489929"/>
<circle cx="15.9198" cy="7.42744" r="0.976592" stroke="#323429" stroke-width="0.489929"/>
<circle cx="13.6327" cy="3.50803" r="0.976592" stroke="#323429" stroke-width="0.489929"/>
<circle cx="7.10046" cy="4.4877" r="0.976592" stroke="#323429" stroke-width="0.489929"/>
<circle cx="2.20105" cy="7.10081" r="0.976592" stroke="#323429" stroke-width="0.489929"/>
<circle cx="10.3671" cy="6.77417" r="0.976592" stroke="#323429" stroke-width="0.489929"/>
<circle cx="6.44714" cy="12.9798" r="0.976592" stroke="#323429" stroke-width="0.489929"/>
<circle cx="4.16101" cy="17.8792" r="0.976592" stroke="#323429" stroke-width="0.489929"/>
<circle cx="5.46765" cy="8.73376" r="0.976592" stroke="#323429" stroke-width="0.489929"/>
<circle cx="1.22156" cy="12.9798" r="0.976592" stroke="#323429" stroke-width="0.489929"/>
<circle cx="14.6132" cy="16.8992" r="0.976592" stroke="#323429" stroke-width="0.489929"/>
<circle cx="19.1854" cy="18.2058" r="0.976592" stroke="#323429" stroke-width="0.489929"/>
<circle cx="12.0846" cy="12.085" r="2.36799" fill="#323429" stroke="#323429" stroke-width="0.489929"/>
<circle cx="20.8192" cy="14.613" r="0.976592" stroke="#323429" stroke-width="0.489929"/>
<circle cx="19.8387" cy="7.75408" r="0.976592" stroke="#323429" stroke-width="0.489929"/>
<circle cx="17.5526" cy="11.6735" r="0.976592" stroke="#323429" stroke-width="0.489929"/>
<circle cx="22.7782" cy="10.6936" r="0.976592" stroke="#323429" stroke-width="0.489929"/>
<circle cx="11.9999" cy="20.492" r="0.976592" stroke="#323429" stroke-width="0.489929"/>
<circle cx="16.5731" cy="21.4719" r="0.976592" stroke="#323429" stroke-width="0.489929"/>
<circle cx="8.73425" cy="16.5726" r="0.976592" stroke="#323429" stroke-width="0.489929"/>
<circle cx="7.42761" cy="21.4719" r="0.976592" stroke="#323429" stroke-width="0.489929"/>
</svg>
