<svg width="70" height="70" viewBox="0 0 70 70" fill="none" xmlns="http://www.w3.org/2000/svg">
<g clip-path="url(#clip0_16645_1217)">
<circle cx="34.9856" cy="34.9856" r="34.2356" stroke="#323429" stroke-width="1.5"/>
<path d="M36.1006 27.5585C44.4986 27.5585 51.1367 32.9973 51.1367 41.2137C51.1366 49.518 44.4049 56.2499 36.1006 56.2499C27.7964 56.2498 21.0646 49.5179 21.0645 41.2137C21.0645 32.9973 27.7026 27.5586 36.1006 27.5585Z" stroke="black" stroke-width="1.5"/>
<path d="M30.9435 27.8166V21.6165H33.2713M40.8367 27.8166V21.6165H38.7029M38.7029 21.6165V13.6089H33.2713V17.3581M38.7029 21.6165H33.2713M33.2713 21.6165V17.3581M33.2713 17.3581H29.3916" stroke="black" stroke-width="1.5"/>
<mask id="path-5-inside-1_16645_1217" fill="white">
<path d="M21.3281 12C22.492 12 23.5679 12.3745 24.4443 13.0078L32.1699 17.7207L24.0488 21.9082C23.2524 22.3824 22.3223 22.6562 21.3281 22.6562C18.3857 22.6562 16.0001 20.2705 16 17.3281C16 14.3856 18.3856 12 21.3281 12Z"/>
</mask>
<path d="M21.3281 12L21.3282 10.5H21.3281V12ZM24.4443 13.0078L23.5658 14.2236L23.6132 14.2579L23.6632 14.2883L24.4443 13.0078ZM32.1699 17.7207L32.8574 19.0539L35.2301 17.8304L32.9511 16.4402L32.1699 17.7207ZM24.0488 21.9082L23.3614 20.575L23.3208 20.5959L23.2815 20.6193L24.0488 21.9082ZM21.3281 22.6562V24.1562H21.3282L21.3281 22.6562ZM16 17.3281H14.5V17.3282L16 17.3281ZM21.3281 12L21.3281 13.5C22.1649 13.5 22.9354 13.7681 23.5658 14.2236L24.4443 13.0078L25.3229 11.792C24.2005 10.9809 22.8192 10.5001 21.3282 10.5L21.3281 12ZM24.4443 13.0078L23.6632 14.2883L31.3887 19.0012L32.1699 17.7207L32.9511 16.4402L25.2255 11.7273L24.4443 13.0078ZM32.1699 17.7207L31.4825 16.3875L23.3614 20.575L24.0488 21.9082L24.7363 23.2414L32.8574 19.0539L32.1699 17.7207ZM24.0488 21.9082L23.2815 20.6193C22.7092 20.96 22.0431 21.1562 21.3281 21.1562L21.3281 22.6562L21.3282 24.1562C22.6016 24.1562 23.7955 23.8047 24.8161 23.1971L24.0488 21.9082ZM21.3281 22.6562V21.1562C19.2142 21.1562 17.5001 19.4422 17.5 17.3281L16 17.3281L14.5 17.3282C14.5002 21.0989 17.5572 24.1562 21.3281 24.1562V22.6562ZM16 17.3281H17.5C17.5 15.214 19.214 13.5 21.3281 13.5V12V10.5C17.5572 10.5 14.5 13.5572 14.5 17.3281H16Z" fill="black" mask="url(#path-5-inside-1_16645_1217)"/>
<path d="M42.415 13.9733L45.967 12" stroke="black" stroke-width="1.5"/>
<path d="M45.9678 21.1073L42.4158 19.134" stroke="black" stroke-width="1.5"/>
<path d="M42.9996 16.749L46.9462 16.6698" stroke="black" stroke-width="1.5"/>
<path d="M59.3043 10L10 59.3043" stroke="black" stroke-width="1.5"/>
</g>
<defs>
<clipPath id="clip0_16645_1217">
<rect width="70" height="70" rx="35" fill="white"/>
</clipPath>
</defs>
</svg>
