<svg width="70" height="70" viewBox="0 0 70 70" fill="none" xmlns="http://www.w3.org/2000/svg">
<g clip-path="url(#clip0_15204_344)">
<circle cx="34.9856" cy="34.9856" r="34.2356" stroke="#323429" stroke-width="1.5"/>
<circle cx="29.74" cy="1.74" r="2.99" stroke="#323429" stroke-width="1.5"/>
<circle cx="53.74" cy="7.74" r="2.99" stroke="#323429" stroke-width="1.5"/>
<circle cx="46.74" cy="20.74" r="2.99" stroke="#323429" stroke-width="1.5"/>
<circle cx="39.74" cy="8.74" r="2.99" stroke="#323429" stroke-width="1.5"/>
<circle cx="19.74" cy="11.74" r="2.99" stroke="#323429" stroke-width="1.5"/>
<circle cx="4.74" cy="19.74" r="2.99" stroke="#323429" stroke-width="1.5"/>
<circle cx="29.74" cy="18.74" r="2.99" stroke="#323429" stroke-width="1.5"/>
<circle cx="17.74" cy="37.74" r="2.99" stroke="#323429" stroke-width="1.5"/>
<circle cx="10.74" cy="52.74" r="2.99" stroke="#323429" stroke-width="1.5"/>
<circle cx="14.74" cy="24.74" r="2.99" stroke="#323429" stroke-width="1.5"/>
<circle cx="1.74" cy="37.74" r="2.99" stroke="#323429" stroke-width="1.5"/>
<circle cx="42.74" cy="49.74" r="2.99" stroke="#323429" stroke-width="1.5"/>
<circle cx="56.74" cy="53.74" r="2.99" stroke="#323429" stroke-width="1.5"/>
<circle cx="35" cy="35" r="7.25" fill="#323429" stroke="#323429" stroke-width="1.5"/>
<circle cx="61.74" cy="42.74" r="2.99" stroke="#323429" stroke-width="1.5"/>
<circle cx="58.74" cy="21.74" r="2.99" stroke="#323429" stroke-width="1.5"/>
<circle cx="51.74" cy="33.74" r="2.99" stroke="#323429" stroke-width="1.5"/>
<circle cx="67.74" cy="30.74" r="2.99" stroke="#323429" stroke-width="1.5"/>
<circle cx="34.74" cy="60.74" r="2.99" stroke="#323429" stroke-width="1.5"/>
<circle cx="48.74" cy="63.74" r="2.99" stroke="#323429" stroke-width="1.5"/>
<circle cx="24.74" cy="48.74" r="2.99" stroke="#323429" stroke-width="1.5"/>
<circle cx="20.74" cy="63.74" r="2.99" stroke="#323429" stroke-width="1.5"/>
</g>
<defs>
<clipPath id="clip0_15204_344">
<rect width="70" height="70" rx="35" fill="white"/>
</clipPath>
</defs>
</svg>
