<svg width="70" height="70" viewBox="0 0 70 70" fill="none" xmlns="http://www.w3.org/2000/svg">
<g clip-path="url(#clip0_15204_339)">
<circle cx="34.9856" cy="34.9856" r="34.2356" stroke="#323429" stroke-width="1.5"/>
<line x1="52.1885" y1="17.9543" x2="38.0464" y2="32.0964" stroke="#323429" stroke-width="1.5"/>
<circle cx="52.0515" cy="18.4443" r="4.55698" transform="rotate(135 52.0515 18.4443)" fill="#323429"/>
<line x1="34.8066" y1="56.9998" x2="34.8066" y2="36.9998" stroke="#323429" stroke-width="1.5"/>
<circle cx="34.557" cy="56.5568" r="4.55698" transform="rotate(-90 34.557 56.5568)" fill="#323429"/>
<line x1="51.1846" y1="44.8428" x2="34.2724" y2="34.1669" stroke="#323429" stroke-width="1.5"/>
<circle cx="49.3595" cy="43.9866" r="3" transform="rotate(-147.738 49.3595 43.9866)" fill="#323429"/>
<line x1="12.1757" y1="44.7081" x2="30.6301" y2="36.9987" stroke="#323429" stroke-width="1.5"/>
<circle cx="13.9246" cy="43.7065" r="3" transform="rotate(-22.6729 13.9246 43.7065)" fill="#323429"/>
<line x1="19.7814" y1="15.7929" x2="32.1283" y2="31.5267" stroke="#323429" stroke-width="1.5"/>
<circle cx="21.2127" cy="17.2119" r="3" transform="rotate(51.8776 21.2127 17.2119)" fill="#323429"/>
<circle cx="35" cy="34.9999" r="7.25" fill="white" stroke="#323429" stroke-width="1.5"/>
</g>
<defs>
<clipPath id="clip0_15204_339">
<rect width="69.9712" height="69.9712" rx="34.9856" fill="white"/>
</clipPath>
</defs>
</svg>
