<svg width="70" height="70" viewBox="0 0 70 70" fill="none" xmlns="http://www.w3.org/2000/svg">
<circle cx="35" cy="35" r="34.25" stroke="#323429" stroke-width="1.5"/>
<path d="M24.1674 40.0165C23.5109 43.7013 24.5612 51.4612 34.0139 53.0218" stroke="#323429" stroke-width="1.5"/>
<path d="M39.5871 58.3936C40.8373 58.0342 45.7719 56.5464 48.7577 51.7854C51.1255 48.0242 51.0947 44.1821 50.9811 42.0992C50.2707 29.2445 35.1167 12.1049 35.1167 12.1049L35.022 12.0049L34.9131 12.1049C34.9131 12.1049 19.759 29.2445 19.0487 42.0992C18.9161 44.4796 18.9776 48.1408 21.2697 51.7854C23.9572 56.0703 28.1364 57.6057 29.4529 58.077C32.7194 59.2211 36.2562 59.3316 39.5871 58.3936V58.3936Z" stroke="#323429" stroke-width="1.5"/>
</svg>
