<svg width="70" height="70" viewBox="0 0 70 70" fill="none" xmlns="http://www.w3.org/2000/svg">
<circle cx="35" cy="35" r="34.25" stroke="#323429" stroke-width="1.5"/>
<path d="M43.4996 7.76953L45.3685 17.5913C46.1259 21.5718 43.637 25.4492 39.7027 26.4182L39.51 26.4657C35.5285 27.4463 33.0958 31.4689 34.0764 35.4504C35.057 39.4319 32.6242 43.4545 28.6427 44.4351C24.6612 45.4157 22.2284 49.4383 23.209 53.4198L24.9846 60.629" stroke="#323429" stroke-width="1.5"/>
<path d="M53.5002 14.2698L55.3255 23.5789C56.1061 27.5604 53.6227 31.4532 49.6832 32.4234L49.5106 32.4659C45.5291 33.4465 43.0997 37.4826 44.0803 41.4641C45.0572 45.4308 42.6369 49.4518 38.6702 50.4287C34.6826 51.4108 32.2584 55.4534 33.2703 59.4335L34.5004 64.2721" stroke="#323429" stroke-width="1.5"/>
<path d="M34.0004 5.76953L35.2166 11.5483C36.0549 15.5313 33.5245 19.477 29.5724 20.4504C25.5908 21.431 23.0962 25.4688 24.0768 29.4503C25.0574 33.4319 22.6247 37.4544 18.6431 38.435C14.6616 39.4156 12.2289 43.4382 13.2095 47.4198L14.985 54.629" stroke="#323429" stroke-width="1.5"/>
</svg>
