<svg width="24" height="24" viewBox="0 0 24 24" fill="none" xmlns="http://www.w3.org/2000/svg">
<path fill-rule="evenodd" clip-rule="evenodd" d="M24 10.3717C14.6935 14.5597 4.12834 12.117 0 10.3753L0.293979 9.67847C4.31973 11.3768 14.6494 13.7501 23.6896 9.68204L24 10.3717Z" fill="#323429"/>
<path fill-rule="evenodd" clip-rule="evenodd" d="M23.9435 14.5966C13.9146 17.2967 4.85699 15.559 0.0732422 14.6022L0.221567 13.8606C4.9934 14.815 13.9003 16.5173 23.7469 13.8663L23.9435 14.5966Z" fill="#323429"/>
<path fill-rule="evenodd" clip-rule="evenodd" d="M23.6532 19.196H0.146484V18.4397H23.6532V19.196Z" fill="#323429"/>
<path fill-rule="evenodd" clip-rule="evenodd" d="M23.6532 22.6363H0.146484V21.88H23.6532V22.6363Z" fill="#323429"/>
<path fill-rule="evenodd" clip-rule="evenodd" d="M11.3657 6.24524V2.00012H12.122V6.24524H13.9271L11.7438 10.0268L9.56055 6.24524H11.3657Z" fill="#323429"/>
</svg>
