<svg width="25" height="24" viewBox="0 0 25 24" fill="none" xmlns="http://www.w3.org/2000/svg">
<path fill-rule="evenodd" clip-rule="evenodd" d="M12.259 12.6628C11.4485 12.6628 10.7914 13.3198 10.7914 14.1304C10.7914 14.9409 11.4485 15.598 12.259 15.598C13.0696 15.598 13.7267 14.9409 13.7267 14.1304C13.7267 13.3198 13.0696 12.6628 12.259 12.6628ZM10.2734 14.1304C10.2734 13.0338 11.1624 12.1448 12.259 12.1448C13.3557 12.1448 14.2447 13.0338 14.2447 14.1304C14.2447 15.227 13.3557 16.116 12.259 16.116C11.1624 16.116 10.2734 15.227 10.2734 14.1304Z" fill="#323429" stroke="#323429" stroke-width="0.517986" stroke-linecap="round"/>
<path fill-rule="evenodd" clip-rule="evenodd" d="M17.3008 10.6545L15.8705 12.0848L15.5042 11.7186L16.9346 10.2882L17.3008 10.6545Z" fill="#323429" stroke="#323429" stroke-width="0.517986" stroke-linecap="square"/>
<path fill-rule="evenodd" clip-rule="evenodd" d="M12.5131 8.00007L12.5209 10.0229L12.0029 10.0249L11.9951 8.00208L12.5131 8.00007Z" fill="#323429" stroke="#323429" stroke-width="0.517986" stroke-linecap="square"/>
<path fill-rule="evenodd" clip-rule="evenodd" d="M7.59772 10.3176L9.02807 11.7479L8.6618 12.1142L7.23145 10.6838L7.59772 10.3176Z" fill="#323429" stroke="#323429" stroke-width="0.517986" stroke-linecap="square"/>
<path fill-rule="evenodd" clip-rule="evenodd" d="M9.27262 13.3909C9.01802 13.661 8.75386 13.9257 8.46358 14.1166C7.57129 14.7035 6.25832 15.0801 4.64623 15.0801H0.517782C0.374744 15.0801 0.258789 14.9642 0.258789 14.8211C0.258789 14.6781 0.374744 14.5621 0.517782 14.5621H4.64623C6.18416 14.5621 7.39121 14.202 8.17893 13.6839C8.41366 13.5295 8.64169 13.305 8.89569 13.0356C8.95005 12.9779 9.00564 12.9181 9.06251 12.8569C9.26471 12.6395 9.48313 12.4046 9.72033 12.185C10.3379 11.6133 11.1197 11.1089 12.2588 11.1089C14.2714 11.1089 15.3911 12.6907 15.957 13.4901C16.026 13.5877 16.0868 13.6736 16.14 13.7435C16.3598 14.0326 16.6999 14.2388 17.1269 14.3725C17.5535 14.5062 18.0506 14.5621 18.5588 14.5621H23.9998C24.1428 14.5621 24.2588 14.6781 24.2588 14.8211C24.2588 14.9642 24.1428 15.0801 23.9998 15.0801H18.5588C18.0171 15.0801 17.4642 15.021 16.972 14.8668C16.4803 14.7128 16.0329 14.4585 15.7276 14.057C15.6641 13.9735 15.5955 13.8777 15.5208 13.7736C14.9354 12.9576 13.9809 11.6269 12.2588 11.6269C11.2978 11.6269 10.6359 12.0433 10.0722 12.5651C9.85069 12.7702 9.64995 12.986 9.44976 13.2012C9.39084 13.2646 9.33196 13.3279 9.27262 13.3909Z" fill="#323429" stroke="#323429" stroke-width="0.517986" stroke-linecap="round"/>
</svg>
