<svg width="24" height="24" viewBox="0 0 24 24" fill="none" xmlns="http://www.w3.org/2000/svg">
<path fill-rule="evenodd" clip-rule="evenodd" d="M0.883789 8.23438L12.1983 13.8489L23.5128 8.23438L12.1983 2.74463L0.883789 8.23438ZM2.25474 8.23913L12.1983 13.1733L22.1419 8.23913L12.1983 3.41457L2.25474 8.23913Z" fill="#323429"/>
<path fill-rule="evenodd" clip-rule="evenodd" d="M0.00683594 12.1348L3.46535 10.4055L3.97951 10.8259L1.36499 12.1332L12.0004 17.4107L22.6295 12.1363L20.234 10.9741L20.7386 10.549L24.0004 12.1316L12.0004 18.0862L0.00683594 12.1348Z" fill="#323429"/>
<path fill-rule="evenodd" clip-rule="evenodd" d="M0 16.1802L3.26183 14.5976L3.76639 15.0227L1.37095 16.1849L12 21.4593L22.629 16.1849L20.3371 15.0729L20.8416 14.6478L24 16.1802L12 22.1348L0 16.1802Z" fill="#323429"/>
<path fill-rule="evenodd" clip-rule="evenodd" d="M5.36005 13.8258L4.90141 14.0473L4.56611 13.7633L5.02475 13.5419L5.36005 13.8258ZM7.19461 12.9402L6.27733 13.383L5.94203 13.0991L6.85932 12.6563L7.19461 12.9402ZM9.02918 12.0545L8.11189 12.4974L7.7766 12.2134L8.69388 11.7706L9.02918 12.0545ZM10.8637 11.1689L9.94646 11.6117L9.61116 11.3278L10.5284 10.885L10.8637 11.1689ZM12.0748 10.5842L11.781 10.7261L11.4457 10.4421L12.0692 10.1411L12.7105 10.4404L12.3824 10.7278L12.0748 10.5842ZM14.2803 11.6134L13.3314 11.1706L13.6594 10.8832L14.6083 11.3261L14.2803 11.6134ZM15.2292 12.0563L15.5572 11.7689L16.5061 12.2117L16.1781 12.4991L15.2292 12.0563ZM18.0759 13.3847L17.127 12.9419L17.4551 12.6545L18.404 13.0974L18.0759 13.3847ZM19.4993 14.049L19.0248 13.8276L19.3529 13.5402L19.8273 13.7616L19.4993 14.049Z" fill="#323429"/>
<path fill-rule="evenodd" clip-rule="evenodd" d="M5.36005 9.7421L4.90141 9.96352L4.56611 9.67958L5.02475 9.45817L5.36005 9.7421ZM7.19461 8.85645L6.27733 9.29928L5.94203 9.01534L6.85932 8.57251L7.19461 8.85645ZM9.02918 7.9708L8.11189 8.41363L7.7766 8.12969L8.69388 7.68686L9.02918 7.9708ZM10.8637 7.08515L9.94646 7.52798L9.61116 7.24404L10.5284 6.80121L10.8637 7.08515ZM12.0748 6.50049L11.781 6.64232L11.4457 6.35839L12.0692 6.0574L12.7105 6.35666L12.3824 6.64404L12.0748 6.50049ZM14.2803 7.5297L13.3314 7.08687L13.6594 6.79949L14.6083 7.24232L14.2803 7.5297ZM15.2292 7.97252L15.5572 7.68514L16.5061 8.12797L16.1781 8.41535L15.2292 7.97252ZM18.0759 9.301L17.127 8.85817L17.4551 8.57079L18.404 9.01362L18.0759 9.301ZM19.4993 9.96524L19.0248 9.74383L19.3529 9.45645L19.8273 9.67786L19.4993 9.96524Z" fill="#323429"/>
</svg>
