<svg width="24" height="24" viewBox="0 0 24 24" fill="none" xmlns="http://www.w3.org/2000/svg">
<path d="M10.5183 20.7037C10.5183 21.8492 9.58967 22.7778 8.44419 22.7778C7.29871 22.7778 6.37012 21.8492 6.37012 20.7037C6.37012 19.5582 7.29871 18.6296 8.44419 18.6296C9.58967 18.6296 10.5183 19.5582 10.5183 20.7037Z" fill="#323429"/>
<path fill-rule="evenodd" clip-rule="evenodd" d="M8.4443 19.0742C7.54428 19.0742 6.81467 19.8038 6.81467 20.7038C6.81467 21.6038 7.54428 22.3335 8.4443 22.3335C9.34432 22.3335 10.0739 21.6038 10.0739 20.7038C10.0739 19.8038 9.34432 19.0742 8.4443 19.0742ZM5.92578 20.7038C5.92578 19.3129 7.05336 18.1853 8.4443 18.1853C9.83524 18.1853 10.9628 19.3129 10.9628 20.7038C10.9628 22.0948 9.83524 23.2223 8.4443 23.2223C7.05336 23.2223 5.92578 22.0948 5.92578 20.7038Z" fill="#323429"/>
<path d="M23.5554 10.6297C23.5554 11.7752 22.6268 12.7038 21.4813 12.7038C20.3358 12.7038 19.4072 11.7752 19.4072 10.6297C19.4072 9.48426 20.3358 8.55566 21.4813 8.55566C22.6268 8.55566 23.5554 9.48426 23.5554 10.6297Z" fill="#323429"/>
<path fill-rule="evenodd" clip-rule="evenodd" d="M21.4814 9.00022C20.5814 9.00022 19.8518 9.72983 19.8518 10.6298C19.8518 11.5299 20.5814 12.2595 21.4814 12.2595C22.3814 12.2595 23.111 11.5299 23.111 10.6298C23.111 9.72983 22.3814 9.00022 21.4814 9.00022ZM18.9629 10.6298C18.9629 9.23891 20.0905 8.11133 21.4814 8.11133C22.8723 8.11133 23.9999 9.23891 23.9999 10.6298C23.9999 12.0208 22.8723 13.1484 21.4814 13.1484C20.0905 13.1484 18.9629 12.0208 18.9629 10.6298Z" fill="#323429"/>
<path d="M2.22211 14.1855C2.22211 14.6764 1.82414 15.0744 1.33322 15.0744C0.842305 15.0744 0.444336 14.6764 0.444336 14.1855C0.444336 13.6946 0.842305 13.2966 1.33322 13.2966C1.82414 13.2966 2.22211 13.6946 2.22211 14.1855Z" fill="#323429"/>
<path fill-rule="evenodd" clip-rule="evenodd" d="M1.33333 13.7409C1.08787 13.7409 0.888889 13.9399 0.888889 14.1854C0.888889 14.4308 1.08787 14.6298 1.33333 14.6298C1.57879 14.6298 1.77778 14.4308 1.77778 14.1854C1.77778 13.9399 1.57879 13.7409 1.33333 13.7409ZM0 14.1854C0 13.449 0.596954 12.8521 1.33333 12.8521C2.06971 12.8521 2.66667 13.449 2.66667 14.1854C2.66667 14.9218 2.06971 15.5187 1.33333 15.5187C0.596954 15.5187 0 14.9218 0 14.1854Z" fill="#323429"/>
<path d="M15.2594 5.00006C15.2594 5.32734 14.9941 5.59266 14.6668 5.59266C14.3395 5.59266 14.0742 5.32734 14.0742 5.00006C14.0742 4.67278 14.3395 4.40747 14.6668 4.40747C14.9941 4.40747 15.2594 4.67278 15.2594 5.00006Z" fill="#323429"/>
<path fill-rule="evenodd" clip-rule="evenodd" d="M14.6669 4.85202C14.5851 4.85202 14.5188 4.91835 14.5188 5.00017C14.5188 5.08199 14.5851 5.14832 14.6669 5.14832C14.7487 5.14832 14.8151 5.08199 14.8151 5.00017C14.8151 4.91835 14.7487 4.85202 14.6669 4.85202ZM13.6299 5.00017C13.6299 4.42743 14.0942 3.96313 14.6669 3.96313C15.2397 3.96313 15.704 4.42743 15.704 5.00017C15.704 5.57291 15.2397 6.03721 14.6669 6.03721C14.0942 6.03721 13.6299 5.57291 13.6299 5.00017Z" fill="#323429"/>
<path d="M19.4077 20.1113C19.4077 20.6022 19.0097 21.0002 18.5188 21.0002C18.0279 21.0002 17.6299 20.6022 17.6299 20.1113C17.6299 19.6204 18.0279 19.2224 18.5188 19.2224C19.0097 19.2224 19.4077 19.6204 19.4077 20.1113Z" fill="#323429"/>
<path fill-rule="evenodd" clip-rule="evenodd" d="M18.5189 19.6667C18.2734 19.6667 18.0744 19.8657 18.0744 20.1112C18.0744 20.3566 18.2734 20.5556 18.5189 20.5556C18.7643 20.5556 18.9633 20.3566 18.9633 20.1112C18.9633 19.8657 18.7643 19.6667 18.5189 19.6667ZM17.1855 20.1112C17.1855 19.3748 17.7825 18.7778 18.5189 18.7778C19.2553 18.7778 19.8522 19.3748 19.8522 20.1112C19.8522 20.8475 19.2553 21.4445 18.5189 21.4445C17.7825 21.4445 17.1855 20.8475 17.1855 20.1112Z" fill="#323429"/>
<path d="M6.96285 4.7036C6.96285 6.50363 5.50363 7.96285 3.7036 7.96285C1.90356 7.96285 0.444336 6.50363 0.444336 4.7036C0.444336 2.90356 1.90356 1.44434 3.7036 1.44434C5.50363 1.44434 6.96285 2.90356 6.96285 4.7036Z" fill="#323429"/>
<path fill-rule="evenodd" clip-rule="evenodd" d="M3.7037 1.88889C2.14912 1.88889 0.888889 3.14912 0.888889 4.7037C0.888889 6.25828 2.14912 7.51852 3.7037 7.51852C5.25828 7.51852 6.51852 6.25828 6.51852 4.7037C6.51852 3.14912 5.25828 1.88889 3.7037 1.88889ZM0 4.7037C0 2.6582 1.6582 1 3.7037 1C5.7492 1 7.40741 2.6582 7.40741 4.7037C7.40741 6.7492 5.7492 8.40741 3.7037 8.40741C1.6582 8.40741 0 6.7492 0 4.7037Z" fill="#323429"/>
</svg>
