<svg width="70" height="70" viewBox="0 0 70 70" fill="none" xmlns="http://www.w3.org/2000/svg">
<circle cx="35" cy="35" r="34.25" stroke="#323429" stroke-width="1.5"/>
<path d="M43.585 12.3176C45.0206 15.7581 47.7493 18.4818 51.1572 19.9191C47.7746 21.4181 45.0635 24.1414 43.583 27.5578C42.1226 24.1355 39.4108 21.4055 36.0176 19.9191C39.4358 18.4924 42.1653 15.7621 43.585 12.3176Z" stroke="#323429" stroke-width="1.5"/>
<path d="M18.459 20.9753C19.7472 23.4413 21.7606 25.4546 24.2266 26.7429C21.7607 28.0311 19.7472 30.0445 18.459 32.5104C17.1707 30.0445 15.1574 28.0311 12.6914 26.7429C15.1574 25.4546 17.1707 23.4413 18.459 20.9753Z" stroke="#323429" stroke-width="1.5"/>
<path d="M51.9365 39.1841C52.9389 40.9898 54.4278 42.4795 56.2334 43.482C54.4281 44.4844 52.9389 45.9736 51.9365 47.7789C50.934 45.9733 49.4443 44.4844 47.6387 43.482C49.4445 42.4794 50.934 40.99 51.9365 39.1841Z" stroke="#323429" stroke-width="1.5"/>
<path d="M37.0228 31.9374L41.7467 36.8379C42.2258 37.335 42.2113 38.1263 41.7143 38.6054L33.7102 46.3208L28.1189 40.5203C27.6398 40.0233 27.6545 39.232 28.1513 38.7528L35.2554 31.9049L35.3522 31.8211C35.8505 31.4298 36.5737 31.4714 37.0228 31.9374Z" stroke="#323429" stroke-width="1.5" stroke-linejoin="round"/>
<path d="M33.8794 46.1745L16.3945 63.5756C14.1773 62.173 12.2815 60.4914 10.9083 59.1182C10.1728 58.3827 9.59041 57.7395 9.19398 57.2821C9.13275 57.2114 9.07791 57.1436 9.02567 57.0821L27.409 39.4621L33.8794 46.1745Z" stroke="#323429" stroke-width="1.5" stroke-linejoin="round"/>
<path d="M27.4404 39.9633L33.6819 46.2048" stroke="#323429" stroke-width="1.5"/>
</svg>
