<svg width="25" height="25" viewBox="0 0 25 25" fill="none" xmlns="http://www.w3.org/2000/svg">
<path fill-rule="evenodd" clip-rule="evenodd" d="M23.8799 21.588L0.000465393 21.588L0.000465456 20.8644L23.8799 20.8644L23.8799 21.588Z" fill="#323429"/>
<path fill-rule="evenodd" clip-rule="evenodd" d="M23.2754 10.3363C23.497 10.6023 23.7208 10.7338 24 10.7338L24 11.4574C23.4349 11.4574 23.0254 11.1667 22.7195 10.7996C22.4285 10.4504 22.2016 9.99658 21.9985 9.59003C21.9949 9.58298 21.9914 9.57594 21.9879 9.56892C21.7718 9.13654 21.5794 8.75583 21.3479 8.47789C21.1263 8.21186 20.9027 8.08051 20.6239 8.08051C20.3451 8.08051 20.1215 8.21188 19.8998 8.47794C19.6682 8.75589 19.4757 9.13661 19.2595 9.56896L19.2488 9.59043C19.0456 9.99687 18.8188 10.4505 18.5279 10.7995C18.2221 11.1667 17.8127 11.4574 17.2479 11.4574C16.683 11.4574 16.2736 11.1667 15.9678 10.7996C15.677 10.4506 15.4502 9.99716 15.247 9.59083L15.2361 9.56901C15.0198 9.13667 14.8272 8.75596 14.5955 8.47802C14.3737 8.21199 14.1499 8.08051 13.8706 8.08051C13.5914 8.08051 13.3677 8.21197 13.146 8.47798C12.9143 8.7559 12.7218 9.1366 12.5056 9.56896L12.4949 9.59043C12.2917 9.99686 12.0649 10.4505 11.774 10.7996C11.468 11.1667 11.0585 11.4574 10.4934 11.4574C9.92833 11.4574 9.51887 11.1667 9.21288 10.7996C8.92195 10.4505 8.69515 9.99687 8.49195 9.59044L8.48122 9.56896C8.26501 9.1366 8.07252 8.7559 7.84089 8.47798C7.61919 8.21196 7.39542 8.08051 7.11622 8.08051C6.83701 8.08051 6.61324 8.21196 6.39154 8.47798C6.15991 8.7559 5.96742 9.1366 5.75122 9.56896L5.74047 9.59046C5.53727 9.99688 5.31047 10.4505 5.01955 10.7996C4.71356 11.1667 4.3041 11.4574 3.739 11.4574C3.17391 11.4574 2.76445 11.1667 2.45845 10.7996C2.16753 10.4505 1.94073 9.99687 1.73753 9.59044L1.72679 9.56896C1.51059 9.1366 1.31809 8.7559 1.08646 8.47798C0.864764 8.21196 0.640997 8.08051 0.36179 8.08051L0.36179 7.35689C0.926888 7.35689 1.33635 7.64754 1.64234 8.0147C1.93327 8.36378 2.16007 8.81743 2.36328 9.22387L2.374 9.24532C2.5902 9.67768 2.7827 10.0584 3.01433 10.3363C3.23603 10.6023 3.4598 10.7338 3.739 10.7338C4.01821 10.7338 4.24198 10.6023 4.46367 10.3363C4.6953 10.0584 4.8878 9.67768 5.104 9.24532L5.11475 9.22383C5.31795 8.8174 5.54475 8.36377 5.83567 8.0147C6.14166 7.64755 6.55112 7.35689 7.11622 7.35689C7.68131 7.35689 8.09077 7.64755 8.39676 8.0147C8.68769 8.36378 8.91449 8.81742 9.11769 9.22385L9.12843 9.24532C9.34463 9.67768 9.53713 10.0584 9.76876 10.3363C9.99045 10.6023 10.2142 10.7338 10.4934 10.7338C10.7726 10.7338 10.9964 10.6023 11.2181 10.3363C11.4497 10.0584 11.6422 9.67768 11.8584 9.24532L11.8692 9.22386C12.0724 8.81742 12.2992 8.36378 12.5901 8.0147C12.8961 7.64755 13.3055 7.35689 13.8706 7.35689C14.4357 7.35689 14.8452 7.64753 15.1513 8.01466C15.4424 8.36383 15.6694 8.81763 15.8727 9.22418L15.8833 9.24528C16.0995 9.67766 16.2921 10.0584 16.5237 10.3363C16.7454 10.6024 16.969 10.7338 17.2479 10.7338C17.5267 10.7338 17.7503 10.6024 17.972 10.3363C18.2036 10.0584 18.3961 9.67768 18.6123 9.24533L18.623 9.22386C18.8262 8.81742 19.053 8.3638 19.3438 8.01474C19.6497 7.64763 20.059 7.35689 20.6239 7.35689C21.1888 7.35689 21.5981 7.64765 21.9039 8.01478C22.1945 8.36375 22.4212 8.81722 22.6243 9.22354C22.6279 9.23083 22.6315 9.23811 22.6352 9.24537C22.8513 9.67771 23.0438 10.0584 23.2754 10.3363Z" fill="#323429"/>
<path fill-rule="evenodd" clip-rule="evenodd" d="M22.547 13.4742C22.9581 13.8266 23.2939 14.1107 24 14.1107L24 14.8343C23.0216 14.8343 22.5133 14.3984 22.0815 14.0282L22.076 14.0235C21.6648 13.671 21.3294 13.3871 20.6239 13.3871C19.9184 13.3871 19.5827 13.671 19.1713 14.0236L19.1656 14.0285C18.7339 14.3985 18.2255 14.8343 17.2479 14.8343C16.2704 14.8343 15.762 14.3987 15.3302 14.0287L15.3243 14.0236C14.9129 13.6711 14.5768 13.3871 13.8706 13.3871C13.1645 13.3871 12.8288 13.6711 12.4175 14.0236L12.4118 14.0285C11.98 14.3985 11.4716 14.8343 10.4934 14.8343C9.51525 14.8343 9.00686 14.3985 8.57506 14.0285L8.56937 14.0236C8.1581 13.6711 7.82235 13.3871 7.11621 13.3871C6.41008 13.3871 6.07433 13.6711 5.66306 14.0236L5.65737 14.0284C5.22557 14.3985 4.71718 14.8343 3.739 14.8343C2.76083 14.8343 2.25244 14.3985 1.82064 14.0285L1.81495 14.0236C1.40367 13.6711 1.06792 13.3871 0.36179 13.387L0.36179 12.6634C1.33997 12.6634 1.84836 13.0992 2.28016 13.4693L2.28584 13.4741C2.69712 13.8266 3.03287 14.1107 3.739 14.1107C4.44514 14.1107 4.78088 13.8266 5.19216 13.4741L5.19785 13.4693C5.62965 13.0992 6.13804 12.6634 7.11621 12.6634C8.09439 12.6634 8.60278 13.0992 9.03458 13.4693L9.04027 13.4741C9.45155 13.8266 9.7873 14.1107 10.4934 14.1107C11.1996 14.1107 11.5353 13.8266 11.9466 13.4741L11.9523 13.4693C12.3841 13.0992 12.8925 12.6634 13.8706 12.6634C14.8489 12.6634 15.3576 13.0993 15.7896 13.4694L15.7951 13.4741C16.2066 13.8267 16.5423 14.1107 17.2479 14.1107C17.9534 14.1107 18.2891 13.8267 18.7004 13.4741L18.7062 13.4692C19.1379 13.0992 19.6463 12.6634 20.6239 12.6634C21.6014 12.6634 22.1096 13.0991 22.5411 13.4691L22.547 13.4742Z" fill="#323429"/>
<path fill-rule="evenodd" clip-rule="evenodd" d="M22.495 17.5372C22.8954 17.766 23.2516 17.9697 24 17.9697L24 18.6933C23.0622 18.6933 22.574 18.4158 22.132 18.1632L22.1278 18.1608C21.7274 17.9319 21.3714 17.7285 20.6239 17.7285C19.8764 17.7285 19.5201 17.932 19.1194 18.1608L19.1152 18.1632C18.6729 18.4159 18.1845 18.6933 17.2467 18.6933C16.3089 18.6933 15.8207 18.4158 15.3786 18.1632L15.3745 18.1609C14.974 17.932 14.6177 17.7285 13.8695 17.7285C13.1213 17.7285 12.7653 17.932 12.3652 18.1608L12.3611 18.1632C11.9192 18.4158 11.4313 18.6933 10.4934 18.6933C9.5556 18.6933 9.06744 18.4158 8.62533 18.1632L8.62126 18.1609C8.22074 17.932 7.86446 17.7285 7.11621 17.7285C6.36797 17.7285 6.01169 17.932 5.61117 18.1609L5.6071 18.1632C5.16499 18.4158 4.67683 18.6933 3.739 18.6933C2.80117 18.6933 2.31302 18.4158 1.8709 18.1632L1.86683 18.1609C1.46631 17.932 1.11003 17.7285 0.36179 17.7285L0.36179 17.0049C1.29962 17.0049 1.78777 17.2823 2.22989 17.5349L2.23395 17.5373C2.63448 17.7661 2.99076 17.9697 3.739 17.9697C4.48725 17.9697 4.84352 17.7661 5.24405 17.5373L5.24812 17.5349C5.69023 17.2823 6.17838 17.0049 7.11621 17.0049C8.05405 17.0049 8.5422 17.2823 8.98432 17.5349L8.98838 17.5373C9.38891 17.7661 9.74518 17.9697 10.4934 17.9697C11.2416 17.9697 11.5976 17.7661 11.9978 17.5373L12.0019 17.535C12.4438 17.2823 12.9316 17.0049 13.8695 17.0049C14.8073 17.0049 15.2955 17.2823 15.7376 17.5349L15.7417 17.5373C16.1422 17.7661 16.4985 17.9697 17.2467 17.9697C17.9951 17.9697 18.3517 17.766 18.7525 17.5371L18.7563 17.5349C19.1985 17.2823 19.6866 17.0049 20.6239 17.0049C21.5612 17.0049 22.0491 17.2824 22.4911 17.535L22.495 17.5372Z" fill="#323429"/>
<path fill-rule="evenodd" clip-rule="evenodd" d="M11.5777 2.65327L11.5777 2.26482e-07L12.3013 3.21373e-07L12.3013 2.65327L14.0284 2.65327L11.9395 6.27136L9.85059 2.65327L11.5777 2.65327Z" fill="#323429"/>
</svg>
