<svg width="24" height="24" viewBox="0 0 24 24" fill="none" xmlns="http://www.w3.org/2000/svg">
<path fill-rule="evenodd" clip-rule="evenodd" d="M16.915 11.6592H24V12.3448H16.915V11.6592Z" fill="#323429"/>
<path fill-rule="evenodd" clip-rule="evenodd" d="M16.4317 14.1585L22.5713 17.6945L22.2291 18.2886L16.0895 14.7526L16.4317 14.1585Z" fill="#323429"/>
<path fill-rule="evenodd" clip-rule="evenodd" d="M14.749 16.0901L18.3076 22.2167L17.7147 22.5611L14.1561 16.4345L14.749 16.0901Z" fill="#323429"/>
<path fill-rule="evenodd" clip-rule="evenodd" d="M12.3242 16.9172L12.2969 24.0022L11.6112 23.9996L11.6386 16.9146L12.3242 16.9172Z" fill="#323429"/>
<path fill-rule="evenodd" clip-rule="evenodd" d="M9.82129 16.4203L6.2627 22.5469L5.66981 22.2025L9.2284 16.076L9.82129 16.4203Z" fill="#323429"/>
<path fill-rule="evenodd" clip-rule="evenodd" d="M7.90522 14.7383L1.76562 18.2743L1.42343 17.6801L7.56303 14.1441L7.90522 14.7383Z" fill="#323429"/>
<path fill-rule="evenodd" clip-rule="evenodd" d="M7.08484 12.3057L0 12.251L0.00529341 11.5653L7.09013 11.62L7.08484 12.3057Z" fill="#323429"/>
<path fill-rule="evenodd" clip-rule="evenodd" d="M7.57725 9.82967L1.46387 6.24854L1.81043 5.65692L7.92381 9.23805L7.57725 9.82967Z" fill="#323429"/>
<path fill-rule="evenodd" clip-rule="evenodd" d="M9.25847 7.90795L5.74512 1.75537L6.34053 1.41537L9.85388 7.56795L9.25847 7.90795Z" fill="#323429"/>
<path fill-rule="evenodd" clip-rule="evenodd" d="M11.7168 7.08457L11.7988 0L12.4844 0.00793988L12.4024 7.09251L11.7168 7.08457Z" fill="#323429"/>
<path fill-rule="evenodd" clip-rule="evenodd" d="M14.1815 7.58148L17.7852 1.48132L18.3755 1.83006L14.7719 7.93021L14.1815 7.58148Z" fill="#323429"/>
<path fill-rule="evenodd" clip-rule="evenodd" d="M16.1079 9.27971L22.2734 5.78906L22.6112 6.38572L16.4457 9.87637L16.1079 9.27971Z" fill="#323429"/>
</svg>
