<svg width="24" height="24" viewBox="0 0 24 24" fill="none" xmlns="http://www.w3.org/2000/svg">
<path fill-rule="evenodd" clip-rule="evenodd" d="M12.088 23.266C18.31 23.2174 23.3146 18.1341 23.2659 11.9121C23.2173 5.69006 18.134 0.685542 11.912 0.734156C5.68997 0.78277 0.685449 5.86611 0.734063 12.0881C0.782677 18.3101 5.86602 23.3146 12.088 23.266ZM12.093 23.9071C18.6691 23.8557 23.9583 18.4831 23.907 11.9071C23.8556 5.33102 18.483 0.0417448 11.907 0.0931251C5.33093 0.144505 0.0416519 5.51709 0.0930322 12.0931C0.144412 18.6692 5.517 23.9584 12.093 23.9071Z" fill="#323429"/>
<path fill-rule="evenodd" clip-rule="evenodd" d="M12.1393 12.24L2.30987 18.2231L1.97656 17.6755L11.806 11.6924L12.1393 12.24Z" fill="#323429"/>
<path fill-rule="evenodd" clip-rule="evenodd" d="M11.6523 11.9664L11.6523 0.42749L12.2934 0.42749L12.2934 11.9664L11.6523 11.9664Z" fill="#323429"/>
<path fill-rule="evenodd" clip-rule="evenodd" d="M12.14 11.6924L21.9694 17.6755L21.6361 18.2231L11.8066 12.24L12.14 11.6924Z" fill="#323429"/>
</svg>
