<svg width="24" height="24" viewBox="0 0 24 24" fill="none" xmlns="http://www.w3.org/2000/svg">
<path fill-rule="evenodd" clip-rule="evenodd" d="M13.1264 18.1859L18.209 9.48989C19.4798 7.31554 18.7474 4.52266 16.573 3.25181C14.3987 1.98097 11.6058 2.71339 10.335 4.88774L5.2524 13.5837C3.98155 15.7581 4.71398 18.5509 6.88832 19.8218C9.06267 21.0926 11.8555 20.3602 13.1264 18.1859ZM16.9238 2.65178C14.418 1.18724 11.1995 2.0313 9.73494 4.53703L4.65236 13.233C3.18783 15.7387 4.03188 18.9573 6.53762 20.4218C9.04335 21.8864 12.2619 21.0423 13.7264 18.5366L18.809 9.84059C20.2735 7.33486 19.4295 4.11632 16.9238 2.65178Z" fill="#323429"/>
<path fill-rule="evenodd" clip-rule="evenodd" d="M15.0131 6.60803L4.84797 24L4.24793 23.6493L14.4131 6.25732L15.0131 6.60803Z" fill="#323429"/>
</svg>
