<svg width="24" height="24" viewBox="0 0 24 24" fill="none" xmlns="http://www.w3.org/2000/svg">
<path fill-rule="evenodd" clip-rule="evenodd" d="M8.09653 22.3214L7.38577 19.4355C6.95358 17.6807 8.0258 15.9078 9.78064 15.4756C11.2135 15.1227 12.0889 13.6751 11.7361 12.2422C11.3039 10.4874 12.3761 8.71445 14.1309 8.28225L14.2081 8.26325C15.628 7.91353 16.5263 6.51408 16.253 5.07744L15.5048 1.14569L16.0947 1.03345L16.8428 4.9652C17.1759 6.71537 16.0815 8.42025 14.3517 8.84629L14.2745 8.86529C12.8417 9.21818 11.9662 10.6658 12.3191 12.0986C12.7513 13.8535 11.6791 15.6264 9.92423 16.0586C8.49139 16.4115 7.61592 17.8591 7.96881 19.292L8.67957 22.1779L8.09653 22.3214Z" fill="#323429"/>
<path fill-rule="evenodd" clip-rule="evenodd" d="M11.9058 23.7819L11.4134 21.845C10.9673 20.0901 12.0361 18.3078 13.7942 17.8748C15.2204 17.5235 16.0918 16.0771 15.7402 14.6495C15.3082 12.8954 16.3782 11.1165 18.1337 10.6841L18.2028 10.6671C19.6242 10.317 20.5203 8.91242 20.2386 7.47586L19.508 3.74933L20.0972 3.6338L20.8279 7.36033C21.1712 9.11136 20.079 10.8234 18.3464 11.2501L18.2773 11.2672C16.8452 11.6199 15.9702 13.0724 16.3232 14.5059C16.7538 16.2541 15.6874 18.0269 13.9378 18.4578C12.5034 18.8111 11.6314 20.2653 11.9953 21.697L12.4878 23.6339L11.9058 23.7819Z" fill="#323429"/>
<path fill-rule="evenodd" clip-rule="evenodd" d="M4.09348 19.9196L3.38272 17.0337C2.95053 15.2788 4.02274 13.5059 5.77758 13.0737C7.21042 12.7208 8.08589 11.2732 7.733 9.84037C7.30001 8.0823 8.40105 6.30569 10.1526 5.87429C11.5807 5.52258 12.4917 4.09704 12.1901 2.66408L11.7032 0.350793L12.2908 0.227127L12.7777 2.54042C13.1472 4.29632 12.0324 6.02975 10.2962 6.45733C8.86015 6.81102 7.96395 8.26717 8.31604 9.69678C8.74824 11.4516 7.67602 13.2246 5.92118 13.6568C4.48834 14.0096 3.61287 15.4573 3.96576 16.8901L4.67652 19.776L4.09348 19.9196Z" fill="#323429"/>
</svg>
