<svg width="24" height="25" viewBox="0 0 24 25" fill="none" xmlns="http://www.w3.org/2000/svg">
<path fill-rule="evenodd" clip-rule="evenodd" d="M20.3606 3.99739C20.6832 4.14253 21.0212 4.25965 21.3714 4.34586C21.0234 4.44071 20.6877 4.56489 20.3671 4.71572C19.0574 5.33196 18.0007 6.39297 17.3916 7.71538C17.3005 7.91323 17.2193 8.11692 17.1489 8.32586L17.0255 8.69172L16.9583 8.46943C16.9346 8.39094 16.9093 8.31314 16.8826 8.23608C16.8208 8.05781 16.751 7.88345 16.6738 7.71339C16.0723 6.38937 15.0161 5.3263 13.7031 4.71499C13.3768 4.56307 13.0347 4.43905 12.6797 4.34586C13.0368 4.26119 13.3811 4.14414 13.7094 3.99784C15.0305 3.40913 16.0915 2.34683 16.6767 1.01552C16.7406 0.870001 16.7989 0.721265 16.8512 0.569583C16.8797 0.486936 16.9064 0.403415 16.9313 0.319062L17.0255 0L17.1777 0.462087C17.2398 0.650623 17.3109 0.834743 17.3905 1.01396C17.9818 2.34422 19.0429 3.40453 20.3606 3.99739ZM19.6172 4.36253C18.5327 3.76512 17.6352 2.87006 17.0351 1.77956C16.4394 2.8706 15.5429 3.76667 14.4572 4.36225C15.5378 4.9741 16.4313 5.87466 17.0345 6.96438C17.6432 5.87587 18.538 4.9766 19.6172 4.36253Z" fill="#323429"/>
<path fill-rule="evenodd" clip-rule="evenodd" d="M3.45549 6.98252C3.19907 7.12639 2.93007 7.25101 2.65039 7.3545C2.93007 7.45799 3.19907 7.58262 3.45549 7.72649C4.36262 8.23544 5.11242 8.98524 5.62137 9.89237C5.76524 10.1488 5.88987 10.4178 5.99336 10.6975C6.09685 10.4178 6.22147 10.1488 6.36534 9.89237C6.87429 8.98524 7.62409 8.23544 8.53122 7.72649C8.78765 7.58262 9.05664 7.45799 9.33633 7.3545C9.05664 7.25101 8.78765 7.12639 8.53122 6.98252C7.62409 6.47357 6.87429 5.72377 6.36534 4.81664C6.22147 4.56021 6.09685 4.29122 5.99336 4.01154C5.88987 4.29122 5.76524 4.56021 5.62137 4.81664C5.11242 5.72377 4.36262 6.47357 3.45549 6.98252ZM4.11493 7.3545C4.86696 7.84036 5.50751 8.4809 5.99336 9.23293C6.47921 8.4809 7.11975 7.84035 7.87179 7.3545C7.11975 6.86865 6.47921 6.22811 5.99336 5.47608C5.50751 6.22811 4.86696 6.86865 4.11493 7.3545Z" fill="#323429"/>
<path fill-rule="evenodd" clip-rule="evenodd" d="M18.8085 14.3319C18.5631 14.481 18.3021 14.6077 18.0283 14.709C18.3021 14.8103 18.5631 14.9369 18.8085 15.0861C19.4283 15.4628 19.9489 15.9834 20.3256 16.6032C20.4748 16.8486 20.6014 17.1096 20.7027 17.3834C20.804 17.1096 20.9306 16.8486 21.0798 16.6032C21.4565 15.9833 21.9771 15.4628 22.5969 15.0861C22.8423 14.9369 23.1033 14.8103 23.3771 14.709C23.1033 14.6077 22.8423 14.481 22.5969 14.3319C21.9771 13.9551 21.4565 13.4346 21.0798 12.8148C20.9306 12.5694 20.804 12.3084 20.7027 12.0346C20.6014 12.3084 20.4748 12.5694 20.3256 12.8148C19.9489 13.4346 19.4283 13.9551 18.8085 14.3319ZM19.436 14.709C19.9284 15.0545 20.3572 15.4833 20.7027 15.9757C21.0482 15.4833 21.477 15.0545 21.9694 14.709C21.477 14.3634 21.0482 13.9347 20.7027 13.4422C20.3572 13.9347 19.9284 14.3635 19.436 14.709Z" fill="#323429"/>
<path fill-rule="evenodd" clip-rule="evenodd" d="M1.98736 20.995L10.4213 12.6651L10.0008 12.2394L1.12565 21.0051L4.71051 24.3838L13.1733 15.921L12.7502 15.4979L4.69817 23.5499L1.98736 20.995Z" fill="#323429"/>
<path fill-rule="evenodd" clip-rule="evenodd" d="M13.1363 10.0438L10.2172 12.8672L12.7549 15.4909L15.674 12.6674C15.8165 12.5296 15.8203 12.3023 15.6825 12.1598L13.644 10.0522C13.5062 9.90969 13.2789 9.90591 13.1363 10.0438ZM9.37109 12.8531L12.7408 16.337L16.09 13.0975C16.4701 12.7299 16.4802 12.1238 16.1126 11.7438L14.0741 9.63622C13.7065 9.25616 13.1004 9.24607 12.7203 9.61366L9.37109 12.8531Z" fill="#323429"/>
</svg>
