<svg width="24" height="24" viewBox="0 0 24 24" fill="none" xmlns="http://www.w3.org/2000/svg">
<path fill-rule="evenodd" clip-rule="evenodd" d="M4.46777 14.3072L6.23441 10.7739L6.82695 11.0702L5.06032 14.6035L4.46777 14.3072ZM9.4391 16.1984L9.73354 12.0762L10.3943 12.1234L10.0999 16.2456L9.4391 16.1984Z" fill="#323429"/>
<path fill-rule="evenodd" clip-rule="evenodd" d="M23.51 11.6843L20.5656 8.44551L21.0558 7.99988L24.0002 11.2387L23.51 11.6843ZM19.4886 14.9067L17.4275 11.079L18.0108 10.7649L20.0719 14.5926L19.4886 14.9067ZM14.1499 16.2454L13.8555 12.1233L14.5163 12.0761L14.8107 16.1982L14.1499 16.2454Z" fill="#323429"/>
<path fill-rule="evenodd" clip-rule="evenodd" d="M0 11.2767L2.94439 8.33228L3.41284 8.80072L0.468449 11.7451L0 11.2767Z" fill="#323429"/>
<path fill-rule="evenodd" clip-rule="evenodd" d="M10.3518 12.2284C7.0188 11.7182 4.27892 9.97212 2.7666 8.51022L3.22704 8.0339C4.65912 9.41824 7.27802 11.0877 10.4521 11.5736C13.6093 12.0569 17.3363 11.3736 21.0296 8.02661L21.4745 8.51751C17.6301 12.0015 13.7017 12.7413 10.3518 12.2284Z" fill="#323429"/>
</svg>
