<svg width="24" height="24" viewBox="0 0 24 24" fill="none" xmlns="http://www.w3.org/2000/svg">
<path fill-rule="evenodd" clip-rule="evenodd" d="M2.78531 18.6802C2.15192 17.4732 2.10737 16.1528 2.26023 15.2948L3.0307 15.432C2.90163 16.1566 2.94166 17.2939 3.47829 18.3165C4.00386 19.3181 5.02408 20.247 6.93819 20.563L6.81071 21.3352C4.66499 20.9809 3.42976 19.9083 2.78531 18.6802Z" fill="#323429"/>
<path fill-rule="evenodd" clip-rule="evenodd" d="M7.30435 23.1741C10.9062 23.1741 13.8261 20.2542 13.8261 16.6523C13.8261 13.0505 10.9062 10.1306 7.30435 10.1306C3.70249 10.1306 0.782609 13.0505 0.782609 16.6523C0.782609 20.2542 3.70249 23.1741 7.30435 23.1741ZM7.30435 23.9567C11.3384 23.9567 14.6087 20.6864 14.6087 16.6523C14.6087 12.6183 11.3384 9.348 7.30435 9.348C3.27027 9.348 0 12.6183 0 16.6523C0 20.6864 3.27027 23.9567 7.30435 23.9567Z" fill="#323429"/>
<path fill-rule="evenodd" clip-rule="evenodd" d="M19.8263 13.7826C21.6992 13.7826 23.2176 12.2643 23.2176 10.3913C23.2176 8.51834 21.6992 7 19.8263 7C17.9533 7 16.435 8.51834 16.435 10.3913C16.435 12.2643 17.9533 13.7826 19.8263 13.7826ZM19.8263 14.5652C22.1314 14.5652 24.0002 12.6965 24.0002 10.3913C24.0002 8.08611 22.1314 6.21739 19.8263 6.21739C17.5211 6.21739 15.6523 8.08611 15.6523 10.3913C15.6523 12.6965 17.5211 14.5652 19.8263 14.5652Z" fill="#323429"/>
<path fill-rule="evenodd" clip-rule="evenodd" d="M10.9566 6.47834C12.2533 6.47834 13.3044 5.42718 13.3044 4.13051C13.3044 2.83384 12.2533 1.78268 10.9566 1.78268C9.65994 1.78268 8.60878 2.83384 8.60878 4.13051C8.60878 5.42718 9.65994 6.47834 10.9566 6.47834ZM10.9566 7.26095C12.6855 7.26095 14.087 5.8594 14.087 4.13051C14.087 2.40162 12.6855 1.00008 10.9566 1.00008C9.22772 1.00008 7.82617 2.40162 7.82617 4.13051C7.82617 5.8594 9.22772 7.26095 10.9566 7.26095Z" fill="#323429"/>
</svg>
