<svg width="25" height="25" viewBox="0 0 25 25" fill="none" xmlns="http://www.w3.org/2000/svg">
<path fill-rule="evenodd" clip-rule="evenodd" d="M7.70839 1.51824C7.77991 1.39437 7.93831 1.35192 8.06218 1.42344L23.6133 10.4019C23.7371 10.4734 23.7796 10.6318 23.7081 10.7556C23.6365 10.8795 23.4781 10.922 23.3543 10.8504L7.80319 1.87203C7.67932 1.80051 7.63688 1.64211 7.70839 1.51824Z" fill="#323429"/>
<path fill-rule="evenodd" clip-rule="evenodd" d="M11.31 0.806081C11.3815 0.682207 11.5399 0.639765 11.6637 0.711284L22.4299 6.92711C22.5537 6.99863 22.5962 7.15703 22.5247 7.2809C22.4532 7.40478 22.2948 7.44722 22.1709 7.3757L11.4048 1.15987C11.2809 1.08835 11.2384 0.929956 11.31 0.806081Z" fill="#323429"/>
<path fill-rule="evenodd" clip-rule="evenodd" d="M5.3041 2.92083C5.37562 2.79695 5.53401 2.75451 5.65789 2.82603L23.6014 13.1857C23.7253 13.2573 23.7678 13.4157 23.6962 13.5395C23.6247 13.6634 23.4663 13.7059 23.3424 13.6343L5.3989 3.27462C5.27502 3.2031 5.23258 3.0447 5.3041 2.92083Z" fill="#323429"/>
<path fill-rule="evenodd" clip-rule="evenodd" d="M3.19765 4.49651C3.26917 4.37264 3.42757 4.33019 3.55144 4.40171L23.2893 15.7974C23.4132 15.8689 23.4557 16.0273 23.3841 16.1512C23.3126 16.2751 23.1542 16.3175 23.0304 16.246L3.29245 4.8503C3.16858 4.77878 3.12613 4.62039 3.19765 4.49651Z" fill="#323429"/>
<path fill-rule="evenodd" clip-rule="evenodd" d="M1.68984 6.41717C1.76136 6.29329 1.91976 6.25085 2.04363 6.32237L22.3796 18.0634C22.5035 18.1349 22.546 18.2933 22.4744 18.4172C22.4029 18.541 22.2445 18.5835 22.1207 18.512L1.78464 6.77096C1.66076 6.69944 1.61832 6.54104 1.68984 6.41717Z" fill="#323429"/>
<path fill-rule="evenodd" clip-rule="evenodd" d="M0.78066 8.68303C0.852179 8.55916 1.01058 8.51672 1.13445 8.58824L20.8724 19.9839C20.9962 20.0554 21.0387 20.2138 20.9671 20.3377C20.8956 20.4616 20.7372 20.504 20.6134 20.4325L0.875458 9.03683C0.751583 8.96531 0.709141 8.80691 0.78066 8.68303Z" fill="#323429"/>
<path fill-rule="evenodd" clip-rule="evenodd" d="M0.157613 13.9059C0.229132 13.7821 0.387529 13.7396 0.511404 13.8111L16.6606 23.1349C16.7845 23.2064 16.8269 23.3648 16.7554 23.4887C16.6839 23.6125 16.5255 23.655 16.4016 23.5835L0.252411 14.2597C0.128537 14.1882 0.0860941 14.0298 0.157613 13.9059Z" fill="#323429"/>
<path fill-rule="evenodd" clip-rule="evenodd" d="M0.74355 17.0351C0.815069 16.9112 0.973467 16.8688 1.09734 16.9403L13.6578 24.1921C13.7817 24.2636 13.8241 24.422 13.7526 24.5459C13.6811 24.6698 13.5227 24.7122 13.3988 24.6407L0.838348 17.3889C0.714474 17.3174 0.672032 17.159 0.74355 17.0351Z" fill="#323429"/>
<path fill-rule="evenodd" clip-rule="evenodd" d="M0.170308 11.122C0.241827 10.9981 0.400225 10.9557 0.524099 11.0272L19.0658 21.7322C19.1896 21.8038 19.2321 21.9622 19.1606 22.086C19.089 22.2099 18.9307 22.2523 18.8068 22.1808L0.265106 11.4758C0.141232 11.4043 0.0987894 11.2459 0.170308 11.122Z" fill="#323429"/>
</svg>
