<svg width="70" height="70" viewBox="0 0 70 70" fill="none" xmlns="http://www.w3.org/2000/svg">
<circle cx="35" cy="35" r="34.25" stroke="#323429" stroke-width="1.5"/>
<path d="M59 55L11 55" stroke="#323429" stroke-width="1.5" stroke-linecap="square"/>
<path d="M60 34C56.4997 34 56.4997 27 53.0017 27C49.5037 27 49.5013 34 46.0034 34C42.5054 34 42.503 27 39.0027 27C35.5024 27 35.5024 34 32.002 34C28.5017 34 28.5017 27 25.0014 27C21.501 27 21.501 34 18.0007 34C14.5003 34 14.5003 27 11 27" stroke="#323429" stroke-width="1.5" stroke-miterlimit="10"/>
<path d="M60 41C56.4997 41 56.4997 38 53.0017 38C49.5037 38 49.5013 41 46.0034 41C42.5054 41 42.503 38 39.0027 38C35.5024 38 35.5024 41 32.002 41C28.5017 41 28.5017 38 25.0014 38C21.501 38 21.501 41 18.0007 41C14.5003 41 14.5003 38 11 38" stroke="#323429" stroke-width="1.5" stroke-miterlimit="10"/>
<path d="M60 49C56.4997 49 56.4997 47 53.0017 47C49.5037 47 49.5013 49 46.001 49C42.5007 49 42.5007 47 39.0003 47C35.5 47 35.5024 49 32.002 49C28.5017 49 28.5017 47 25.0014 47C21.501 47 21.501 49 18.0007 49C14.5003 49 14.5003 47 11 47" stroke="#323429" stroke-width="1.5" stroke-miterlimit="10"/>
<path d="M35 24L39.3301 16.5L30.6699 16.5L35 24ZM35 11L34.25 11L34.25 17.25L35 17.25L35.75 17.25L35.75 11L35 11Z" fill="#323429"/>
</svg>
