<svg width="70" height="70" viewBox="0 0 70 70" fill="none" xmlns="http://www.w3.org/2000/svg">
<circle cx="35" cy="35" r="34.25" stroke="#323429" stroke-width="1.5"/>
<path d="M55.2764 41.252C56.1232 42.7142 57.3386 43.9294 58.8008 44.7764C57.3387 45.6233 56.1233 46.8387 55.2764 48.3008C54.4294 46.8386 53.2142 45.6232 51.752 44.7764C53.2142 43.9294 54.4294 42.7142 55.2764 41.252Z" fill="white" stroke="#323429" stroke-width="1.5"/>
<path d="M17 22.3799C18.5436 25.4574 21.0417 27.9563 24.1191 29.5C21.0419 31.0436 18.5436 33.5419 17 36.6191C15.4563 33.5417 12.9574 31.0436 9.87988 29.5C12.9577 27.9563 15.4563 25.4577 17 22.3799Z" fill="white" stroke="#323429" stroke-width="1.5"/>
<path d="M22.4918 3.21296C20.4441 6.43827 18.9137 14.6407 29.1737 21.6481C39.4337 28.6556 33.5 34.5 29.1737 37.6389C25.2303 40.5 18.3964 47.5796 29.1737 55.9722C32.4239 58.5033 39.4314 61.8889 36.5 68C40.0924 66.1667 46.0941 60.5759 41.7831 50.8796C40.4247 47.8241 37 43 44.5852 36.8241C49.0898 33.1564 55.1641 21.6481 41.7831 13.0926C37.5 10.354 37.8269 5.46296 43 2" stroke="#323429" stroke-width="1.5"/>
</svg>
