<svg width="70" height="70" viewBox="0 0 70 70" fill="none" xmlns="http://www.w3.org/2000/svg">
<circle cx="35" cy="35" r="34.25" stroke="#323429" stroke-width="1.5"/>
<path d="M24.1674 40.0164C23.5109 43.7012 24.5612 51.4611 34.0139 53.0217" stroke="#323429" stroke-width="1.5"/>
<path d="M39.5871 58.3936C40.8373 58.0341 45.7719 56.5463 48.7577 51.7853C51.1255 48.0241 51.0947 44.182 50.9811 42.0991C50.2707 29.2444 35.1167 12.1049 35.1167 12.1049L35.022 12.0049L34.9131 12.1049C34.9131 12.1049 19.759 29.2444 19.0487 42.0991C18.9161 44.4796 18.9776 48.1408 21.2697 51.7853C23.9572 56.0702 28.1364 57.6056 29.4529 58.077C32.7194 59.221 36.2562 59.3315 39.5871 58.3936V58.3936Z" stroke="#323429" stroke-width="1.5"/>
<path d="M39.5866 51.4077V47.8773H36.0146V46.5274H39.5866V43.0178H40.9364V46.5274H44.4045V47.8773H40.9364V51.4077H39.5866Z" fill="#323429"/>
</svg>
