<svg width="70" height="70" viewBox="0 0 70 70" fill="none" xmlns="http://www.w3.org/2000/svg">
<circle cx="34.9856" cy="34.9856" r="34.2356" stroke="#323429" stroke-width="1.5"/>
<path d="M39.5871 58.3936C40.8373 58.0341 45.7719 56.5463 48.7577 51.7853C51.1255 48.0241 51.0947 44.182 50.9811 42.0991C50.2707 29.2444 35.1167 12.1049 35.1167 12.1049L35.022 12.0049L34.9131 12.1049C34.9131 12.1049 19.759 29.2444 19.0487 42.0991C18.9161 44.4796 18.9776 48.1408 21.2697 51.7853C23.9572 56.0702 28.1364 57.6056 29.4529 58.077C32.7194 59.221 36.2562 59.3315 39.5871 58.3936V58.3936Z" stroke="#323429" stroke-width="1.5"/>
<path d="M37.7086 58.6351C38.48 58.4134 41.5247 57.4953 43.367 54.5577C44.828 52.237 44.809 49.8663 44.7389 48.5811C44.3006 40.6495 34.9503 30.074 34.9503 30.074L34.8918 30.0123L34.8246 30.074C34.8246 30.074 25.4743 40.6495 25.036 48.5811C24.9541 50.0499 24.9921 52.309 26.4064 54.5577C28.0646 57.2016 30.6433 58.149 31.4556 58.4398C33.4711 59.1457 35.6534 59.2139 37.7086 58.6351V58.6351Z" stroke="#323429" stroke-width="1.5"/>
</svg>
