<svg width="24" height="24" viewBox="0 0 24 24" fill="none" xmlns="http://www.w3.org/2000/svg">
<g clip-path="url(#clip0_15116_7438)">
<path d="M13.4284 14.8122C13.8189 14.7052 15.3603 14.2622 16.293 12.8446C17.0326 11.7247 17.023 10.5807 16.9875 9.96054C16.7656 6.13307 12.032 1.02977 12.032 1.02977L12.0024 1L11.9683 1.02977C11.9683 1.02977 7.23466 6.13307 7.01277 9.96054C6.97135 10.6693 6.99058 11.7595 7.70655 12.8446C8.54604 14.1204 9.8515 14.5776 10.2627 14.718C11.2831 15.0586 12.3879 15.0915 13.4284 14.8122Z" stroke="#323429" stroke-width="0.77"/>
<path d="M1 16C6.83133 16 7.89157 19 11.8675 19C15.8434 19 17.4337 16 23 16" stroke="#323429" stroke-width="0.77" stroke-linecap="round"/>
<path d="M1 20C6.83133 20 7.89157 23 11.8675 23C15.8434 23 17.4337 20 23 20" stroke="#323429" stroke-width="0.77" stroke-linecap="round"/>
</g>
<defs>
<clipPath id="clip0_15116_7438">
<rect width="24" height="24" fill="white"/>
</clipPath>
</defs>
</svg>
