<svg width="24" height="24" viewBox="0 0 24 24" fill="none" xmlns="http://www.w3.org/2000/svg">
<path fill-rule="evenodd" clip-rule="evenodd" d="M12.3664 2.91455L12.9966 3.33866L8.14655 10.5457H17.2131L11.6276 20.0312L10.9731 19.6458L15.8843 11.3053H6.71973L12.3664 2.91455Z" fill="#323429"/>
<path fill-rule="evenodd" clip-rule="evenodd" d="M21.2429 14.2123L21.7253 14.7991L18.6215 17.3508L22.8824 18.6723L18.5856 22.6564L18.0691 22.0994L21.4024 19.0086L17.0505 17.6589L21.2429 14.2123Z" fill="#323429"/>
<path fill-rule="evenodd" clip-rule="evenodd" d="M3.19631 14.5997L3.95265 14.6703L3.57905 18.671L7.51763 16.5759L7.32117 22.4323L6.56196 22.4068L6.71437 17.8636L2.69168 20.0034L3.19631 14.5997Z" fill="#323429"/>
<path fill-rule="evenodd" clip-rule="evenodd" d="M3.81059 1.34612L4.40263 1.82207L1.88512 4.95367L6.32608 5.37744L2.93318 10.1548L2.31384 9.715L4.94596 6.00883L0.410156 5.57601L3.81059 1.34612Z" fill="#323429"/>
<path fill-rule="evenodd" clip-rule="evenodd" d="M19.2522 1.58583L19.9583 1.86588L18.477 5.60092L22.8453 4.69535L21.0132 10.2612L20.2916 10.0237L21.7129 5.70588L17.2514 6.63078L19.2522 1.58583Z" fill="#323429"/>
</svg>
