<svg width="70" height="70" viewBox="0 0 70 70" fill="none" xmlns="http://www.w3.org/2000/svg">
<circle cx="34.985" cy="34.985" r="34.235" stroke="#323429" stroke-width="1.49997"/>
<path d="M7.00006 35.5085L13.7324 31.6216V39.3955L7.00006 35.5085ZM13.7324 35.5085V36.1818H13.0592V35.5085V34.8353H13.7324V35.5085Z" fill="#323429"/>
<path d="M44.6904 45.5741L53.8343 48.1891" stroke="#323429" stroke-width="1.27026"/>
<path d="M46.0322 34.9994H55.9064" stroke="#323429" stroke-width="1.27026"/>
<path d="M29.1689 48.2522L37.6966 52.7404" stroke="#323429" stroke-width="1.27026"/>
<path d="M31.4365 41.8494L40.5804 44.4644" stroke="#323429" stroke-width="1.27026"/>
<path d="M32.5674 34.9994H41.5439" stroke="#323429" stroke-width="1.27026"/>
<path d="M29.6182 22.2204L37.697 17.7322" stroke="#323429" stroke-width="1.27026"/>
<path d="M18.7881 41.902L25.9693 46.3902" stroke="#323429" stroke-width="1.27026"/>
<path d="M18.3975 27.6062C20.0002 30.4993 21.5002 37.4992 18.3975 42.4174" stroke="#323429" stroke-width="1.27026"/>
<path d="M20 38.4686L28.2477 41.1358" stroke="#323429" stroke-width="1.27026"/>
<path d="M20 34.9994H28.9765" stroke="#323429" stroke-width="1.27026"/>
<path d="M19.9999 31.2635L27.8106 29.1512" stroke="#323429" stroke-width="1.27026"/>
<path d="M18.3779 28.3109L26.0079 24.2715" stroke="#323429" stroke-width="1.27026"/>
<path d="M31.9398 28.1119L40.6794 25.6195" stroke="#323429" stroke-width="1.27026"/>
<path d="M41.2871 15.9368L49.8148 10.9998" stroke="#323429" stroke-width="1.27026"/>
<path d="M44.8085 24.5801L54.0293 21.6738" stroke="#323429" stroke-width="1.27026"/>
<path d="M41.2871 54.9845L49.3659 59.4727" stroke="#323429" stroke-width="1.27026"/>
<path d="M13.7651 39.4417C15.1882 36.8801 14.4998 32.9994 13.7651 31.6003L11.9713 32.6766L10.8438 37.6992L13.7651 39.4417Z" fill="#323429"/>
<path d="M14 7.99988L56.4993 61.999" stroke="#323429" stroke-width="1.41507"/>
</svg>
