<svg width="24" height="25" viewBox="0 0 24 25" fill="none" xmlns="http://www.w3.org/2000/svg">
<path d="M14.5043 24.2152C15.1424 24.0317 17.6611 23.2723 19.1852 20.8422C20.3938 18.9224 20.3781 16.9612 20.32 15.898C19.9575 9.33666 12.2224 0.588144 12.2224 0.588144L12.1741 0.537109L12.1185 0.588144C12.1185 0.588144 4.38344 9.33666 4.02086 15.898C3.95318 17.1131 3.9846 18.9819 5.15453 20.8422C6.52629 23.0293 8.65947 23.813 9.33145 24.0536C10.9988 24.6376 12.8041 24.694 14.5043 24.2152V24.2152Z" stroke="#323429" stroke-width="0.765957"/>
<path d="M13.5448 24.3385C13.9386 24.2253 15.4927 23.7567 16.433 22.2573C17.1788 21.0727 17.1691 19.8627 17.1333 19.2067C16.9096 15.1581 12.1369 9.76013 12.1369 9.76013L12.1071 9.72864L12.0728 9.76013C12.0728 9.76013 7.30007 15.1581 7.07635 19.2067C7.03459 19.9564 7.05398 21.1095 7.77585 22.2573C8.62225 23.6068 9.93847 24.0904 10.3531 24.2388C11.3819 24.5991 12.4958 24.6339 13.5448 24.3385V24.3385Z" stroke="#323429" stroke-width="0.765957"/>
</svg>
