<svg width="70" height="70" viewBox="0 0 70 70" fill="none" xmlns="http://www.w3.org/2000/svg">
<circle cx="35" cy="35" r="34.25" stroke="#323429" stroke-width="1.5"/>
<path d="M51 25.9999L19 43.9999" stroke="#323429" stroke-width="1.5" stroke-miterlimit="10"/>
<path d="M16.6562 53.4275L19.1129 44.3064" stroke="#323429" stroke-width="1.5" stroke-miterlimit="10"/>
<path d="M10 41.8497L19.1128 44.3064" stroke="#323429" stroke-width="1.5" stroke-miterlimit="10"/>
<path d="M53.2154 17.0094L50.7588 26.1305" stroke="#323429" stroke-width="1.5" stroke-miterlimit="10"/>
<path d="M59.8706 28.5872L50.7578 26.1306" stroke="#323429" stroke-width="1.5" stroke-miterlimit="10"/>
<path d="M50.9063 44.1637L19.0928 25.8362" stroke="#323429" stroke-width="1.5" stroke-miterlimit="10"/>
<path d="M10.0078 28.5616L19.1206 26.1133" stroke="#323429" stroke-width="1.5" stroke-miterlimit="10"/>
<path d="M16.6729 16.9926L19.1212 26.1136" stroke="#323429" stroke-width="1.5" stroke-miterlimit="10"/>
<path d="M59.8628 41.8741L50.75 44.3225" stroke="#323429" stroke-width="1.5" stroke-miterlimit="10"/>
<path d="M53.1983 53.4436L50.75 44.3225" stroke="#323429" stroke-width="1.5" stroke-miterlimit="10"/>
<path d="M34.8794 54.436L35 16" stroke="#323429" stroke-width="1.5" stroke-miterlimit="10"/>
<path d="M28.2588 10.2949L34.9398 16.976" stroke="#323429" stroke-width="1.5" stroke-miterlimit="10"/>
<path d="M41.6122 10.2949L34.9395 16.976" stroke="#323429" stroke-width="1.5" stroke-miterlimit="10"/>
<path d="M41.6122 60.1412L34.9395 53.4602" stroke="#323429" stroke-width="1.5" stroke-miterlimit="10"/>
<path d="M28.2588 60.1412L34.9398 53.4602" stroke="#323429" stroke-width="1.5" stroke-miterlimit="10"/>
</svg>
