<svg width="25" height="25" viewBox="0 0 25 25" fill="none" xmlns="http://www.w3.org/2000/svg">
<path fill-rule="evenodd" clip-rule="evenodd" d="M16.3737 16.6923L9.70508 10.0237L10.1318 9.59698L16.8004 16.2656L16.3737 16.6923Z" fill="#323429"/>
<path fill-rule="evenodd" clip-rule="evenodd" d="M18.8663 14.1995L12.1162 7.44946L12.5429 7.02276L19.293 13.7728L18.8663 14.1995Z" fill="#323429"/>
<path fill-rule="evenodd" clip-rule="evenodd" d="M11.2741 21.7665L4.61816 15.1106L5.04486 14.6839L11.7008 21.3398L11.2741 21.7665Z" fill="#323429"/>
<path fill-rule="evenodd" clip-rule="evenodd" d="M21.5237 11.5545L14.9082 4.93896L15.3349 4.51226L21.9504 11.1278L21.5237 11.5545Z" fill="#323429"/>
<path fill-rule="evenodd" clip-rule="evenodd" d="M13.8239 19.2295L6.96484 12.3704L7.39154 11.9437L14.2506 18.8028L13.8239 19.2295Z" fill="#323429"/>
<path d="M24.4287 8.62421L16.0776 0.423584L0.428711 16.0725L8.85504 24.2731" stroke="#323429" stroke-width="0.601881"/>
<path fill-rule="evenodd" clip-rule="evenodd" d="M17.6242 2.32079L2.33686 17.6081L1.91016 17.1814L17.1975 1.89409L17.6242 2.32079Z" fill="#323429"/>
</svg>
