<svg width="24" height="24" viewBox="0 0 24 24" fill="none" xmlns="http://www.w3.org/2000/svg">
<path fill-rule="evenodd" clip-rule="evenodd" d="M0 13.0436H24V13.7392H0V13.0436Z" fill="#323429"/>
<path d="M9.3916 19.3045L11.9545 14.4349L14.2612 19.3045H9.3916Z" fill="#323429"/>
<path fill-rule="evenodd" clip-rule="evenodd" d="M11.9709 13.6569L14.8108 19.6522H8.81543L11.9709 13.6569ZM9.96768 18.9565H13.7115L11.9381 15.2127L9.96768 18.9565Z" fill="#323429"/>
<path fill-rule="evenodd" clip-rule="evenodd" d="M4.87003 10.9566C6.59892 10.9566 8.00047 9.5551 8.00047 7.82621C8.00047 6.09732 6.59892 4.69577 4.87003 4.69577C3.14114 4.69577 1.7396 6.09732 1.7396 7.82621C1.7396 9.5551 3.14114 10.9566 4.87003 10.9566ZM4.87003 11.6523C6.98312 11.6523 8.69612 9.9393 8.69612 7.82621C8.69612 5.71312 6.98312 4.00012 4.87003 4.00012C2.75694 4.00012 1.04395 5.71312 1.04395 7.82621C1.04395 9.9393 2.75694 11.6523 4.87003 11.6523Z" fill="#323429"/>
<path fill-rule="evenodd" clip-rule="evenodd" d="M18.7821 10.9566C20.511 10.9566 21.9126 9.5551 21.9126 7.82621C21.9126 6.09732 20.511 4.69577 18.7821 4.69577C17.0533 4.69577 15.6517 6.09732 15.6517 7.82621C15.6517 9.5551 17.0533 10.9566 18.7821 10.9566ZM18.7821 11.6523C20.8952 11.6523 22.6082 9.9393 22.6082 7.82621C22.6082 5.71312 20.8952 4.00012 18.7821 4.00012C16.6691 4.00012 14.9561 5.71312 14.9561 7.82621C14.9561 9.9393 16.6691 11.6523 18.7821 11.6523Z" fill="#323429"/>
</svg>
