<svg width="24" height="24" viewBox="0 0 24 24" fill="none" xmlns="http://www.w3.org/2000/svg">
<path fill-rule="evenodd" clip-rule="evenodd" d="M2.02418 13.6248C1.68858 13.7746 1.34705 13.914 1 14.0424C1.34705 14.1708 1.68858 14.3102 2.02418 14.46C5.81393 16.1524 8.84749 19.1859 10.5398 22.9757C10.6897 23.3113 10.829 23.6528 10.9574 23.9999C11.0859 23.6528 11.2252 23.3113 11.3751 22.9757C13.0674 19.1859 16.101 16.1524 19.8907 14.46C20.2263 14.3102 20.5678 14.1708 20.9149 14.0424C20.5678 13.914 20.2263 13.7746 19.8907 13.6248C16.101 11.9325 13.0674 8.89889 11.3751 5.10914C11.2252 4.77354 11.0859 4.43201 10.9574 4.08496C10.829 4.43201 10.6897 4.77354 10.5398 5.10914C8.84749 8.89889 5.81393 11.9325 2.02418 13.6248ZM2.93686 14.0424C6.42058 15.7581 9.24171 18.5793 10.9574 22.063C12.6732 18.5793 15.4943 15.7581 18.978 14.0424C15.4943 12.3267 12.6732 9.50554 10.9574 6.02183C9.24171 9.50554 6.42058 12.3267 2.93686 14.0424Z" fill="#323429"/>
<path fill-rule="evenodd" clip-rule="evenodd" d="M15.2178 3.65413C14.9172 3.82 14.6028 3.96433 14.2764 4.08511C14.6028 4.20588 14.9172 4.35021 15.2178 4.51608C16.3595 5.14614 17.3004 6.08706 17.9305 7.22878C18.0964 7.52934 18.2407 7.84382 18.3615 8.17021C18.4822 7.84382 18.6266 7.52934 18.7924 7.22878C19.4225 6.08706 20.3634 5.14614 21.5051 4.51608C21.8057 4.35021 22.1202 4.20588 22.4466 4.08511C22.1202 3.96433 21.8057 3.82 21.5051 3.65413C20.3634 3.02407 19.4225 2.08315 18.7924 0.941436C18.6266 0.640871 18.4822 0.32639 18.3615 0C18.2407 0.32639 18.0964 0.640871 17.9305 0.941436C17.3004 2.08315 16.3595 3.02407 15.2178 3.65413ZM15.9924 4.08511C16.9466 4.69073 17.7558 5.50001 18.3615 6.45423C18.9671 5.50001 19.7764 4.69073 20.7306 4.08511C19.7764 3.47948 18.9671 2.6702 18.3615 1.71599C17.7558 2.6702 16.9466 3.47948 15.9924 4.08511Z" fill="#323429"/>
</svg>
