<svg width="70" height="70" viewBox="0 0 70 70" fill="none" xmlns="http://www.w3.org/2000/svg">
<circle cx="34.9856" cy="34.9856" r="34.2356" stroke="#323429" stroke-width="1.5"/>
<path d="M20.3652 38.7611C20.8731 38.6158 22.8778 38.0143 24.0908 36.0897C25.0527 34.5692 25.0402 33.016 24.994 32.174C24.7054 26.9774 18.5491 20.0487 18.5491 20.0487L18.5106 20.0082L18.4664 20.0487C18.4664 20.0487 12.3101 26.9774 12.0215 32.174C11.9676 33.1363 11.9926 34.6164 12.9238 36.0897C14.0156 37.8219 15.7134 38.4426 16.2482 38.6331C17.5752 39.0956 19.012 39.1403 20.3652 38.7611V38.7611Z" stroke="#323429" stroke-width="1.5"/>
<mask id="path-3-inside-1_15116_7461" fill="white">
<path d="M37.0918 8.0033C40.5103 8.00344 43.2812 10.7751 43.2812 14.1937V41.2953C46.144 43.2823 48.0195 46.5915 48.0195 50.3402C48.0195 56.4177 43.0931 61.3449 37.0156 61.3451C30.938 61.3451 26.0108 56.4178 26.0107 50.3402C26.0107 46.5251 27.9526 43.164 30.9014 41.1898V14.1937C30.9014 10.7751 33.6731 8.0033 37.0918 8.0033Z"/>
</mask>
<path d="M37.0918 8.0033L37.0919 6.36246H37.0918V8.0033ZM43.2812 41.2953H41.6404V42.1538L42.3457 42.6433L43.2812 41.2953ZM48.0195 50.3402L49.6604 50.3402V50.3402H48.0195ZM37.0156 61.3451V62.9859H37.0157L37.0156 61.3451ZM26.0107 50.3402H24.3699V50.3402L26.0107 50.3402ZM30.9014 41.1898L31.8142 42.5533L32.5422 42.0659V41.1898H30.9014ZM37.0918 8.0033L37.0917 9.64413C39.6039 9.64423 41.6404 11.6811 41.6404 14.1937H43.2812H44.9221C44.9221 9.86921 41.4168 6.36264 37.0919 6.36246L37.0918 8.0033ZM43.2812 14.1937H41.6404V41.2953H43.2812H44.9221V14.1937H43.2812ZM43.2812 41.2953L42.3457 42.6433C44.7861 44.3371 46.3787 47.1524 46.3787 50.3402H48.0195H49.6604C49.6604 46.0305 47.5019 42.2274 44.2168 39.9473L43.2812 41.2953ZM48.0195 50.3402L46.3787 50.3402C46.3787 55.5116 42.1867 59.7041 37.0156 59.7043L37.0156 61.3451L37.0157 62.9859C43.9994 62.9857 49.6603 57.3237 49.6604 50.3402L48.0195 50.3402ZM37.0156 61.3451V59.7043C31.8442 59.7043 27.6516 55.5116 27.6516 50.3402L26.0107 50.3402L24.3699 50.3402C24.37 57.324 30.0318 62.9859 37.0156 62.9859V61.3451ZM26.0107 50.3402H27.6516C27.6516 47.0957 29.3008 44.236 31.8142 42.5533L30.9014 41.1898L29.9885 39.8263C26.6044 42.092 24.3699 45.9545 24.3699 50.3402H26.0107ZM30.9014 41.1898H32.5422V14.1937H30.9014H29.2605V41.1898H30.9014ZM30.9014 14.1937H32.5422C32.5422 11.6813 34.5793 9.64413 37.0918 9.64413V8.0033V6.36246C32.7669 6.36246 29.2605 9.86885 29.2605 14.1937H30.9014Z" fill="#323429" mask="url(#path-3-inside-1_15116_7461)"/>
<path d="M51.5208 15.6637H46.0186" stroke="#323429" stroke-width="1.64083"/>
<path d="M51.5208 22.8473H46.0186" stroke="#323429" stroke-width="1.64083"/>
<path d="M51.5208 29.8779H46.0186" stroke="#323429" stroke-width="1.64083"/>
<path d="M37 15.5V49" stroke="#323429" stroke-width="1.5"/>
<circle cx="37" cy="50" r="2" fill="#323429"/>
</svg>
