<svg width="24" height="24" viewBox="0 0 24 24" fill="none" xmlns="http://www.w3.org/2000/svg">
<path fill-rule="evenodd" clip-rule="evenodd" d="M13.6885 21.0753L11.9998 24.0002L10.3111 21.0753H11.7073V15.6281H12.2923V21.0753H13.6885Z" fill="#323429"/>
<path fill-rule="evenodd" clip-rule="evenodd" d="M10.3115 2.92504L12.0002 0.000173589L13.6889 2.92504L12.2927 2.92504L12.2927 8.37231L11.7077 8.37231L11.7077 2.92504L10.3115 2.92504Z" fill="#323429"/>
<path fill-rule="evenodd" clip-rule="evenodd" d="M2.9248 13.6891L-7.04981e-05 12.0004L2.9248 10.3117L2.9248 11.7079L8.37207 11.7079L8.37207 12.2929L2.9248 12.2929L2.9248 13.6891Z" fill="#323429"/>
<path fill-rule="evenodd" clip-rule="evenodd" d="M21.0752 10.3118L24.0001 12.0004L21.0752 13.6891L21.0752 12.2929L15.6279 12.2929L15.6279 11.708L21.0752 11.708L21.0752 10.3118Z" fill="#323429"/>
<path fill-rule="evenodd" clip-rule="evenodd" d="M4.36559 6.75329L3.49147 3.49102L6.75373 4.36514L5.76648 5.3524L9.69581 9.28173L9.28217 9.69537L5.35284 5.76603L4.36559 6.75329Z" fill="#323429"/>
<path fill-rule="evenodd" clip-rule="evenodd" d="M19.6354 17.247L20.5095 20.5092L17.2472 19.6351L18.2345 18.6478L14.3052 14.7185L14.7188 14.3049L18.6481 18.2342L19.6354 17.247Z" fill="#323429"/>
<path fill-rule="evenodd" clip-rule="evenodd" d="M17.2467 4.36523L20.509 3.4911L19.6349 6.75337L18.6476 5.76612L14.7183 9.69545L14.3046 9.28181L18.234 5.35248L17.2467 4.36523Z" fill="#323429"/>
<path fill-rule="evenodd" clip-rule="evenodd" d="M6.75327 19.6354L3.49101 20.5095L4.36513 17.2472L5.35238 18.2345L9.28173 14.3052L9.69537 14.7188L5.76602 18.6481L6.75327 19.6354Z" fill="#323429"/>
<path d="M13.4518 11.9999C13.4518 12.8015 12.8019 13.4514 12.0003 13.4514C11.1987 13.4514 10.5488 12.8015 10.5488 11.9999C10.5488 11.1983 11.1987 10.5485 12.0003 10.5485C12.8019 10.5485 13.4518 11.1983 13.4518 11.9999Z" fill="#323429"/>
</svg>
