<svg width="70" height="70" viewBox="0 0 70 70" fill="none" xmlns="http://www.w3.org/2000/svg">
<path d="M31.4802 33.2011L31.795 33.8819L32.2576 33.668L32.2291 33.1592L31.4802 33.2011ZM36.9299 33.2011L36.1953 33.3521L36.2714 33.723L36.6152 33.8819L36.9299 33.2011ZM43.8662 7.27832L44.4954 7.68646L43.3882 6.70036L43.8662 7.27832ZM40.7051 39.1042H39.9551C39.9551 42.2798 37.3807 44.8542 34.2051 44.8542V45.6042V46.3542C38.2091 46.3542 41.4551 43.1082 41.4551 39.1042H40.7051ZM34.2051 45.6042V44.8542C31.0294 44.8542 28.4551 42.2798 28.4551 39.1042H27.7051H26.9551C26.9551 43.1082 30.201 46.3542 34.2051 46.3542V45.6042ZM27.7051 39.1042H28.4551C28.4551 36.7904 29.8217 34.7943 31.795 33.8819L31.4802 33.2011L31.1655 32.5204C28.6812 33.669 26.9551 36.1842 26.9551 39.1042H27.7051ZM36.9299 33.2011L36.6152 33.8819C38.5885 34.7943 39.9551 36.7904 39.9551 39.1042H40.7051H41.4551C41.4551 36.1842 39.7289 33.669 37.2447 32.5204L36.9299 33.2011ZM31.4802 33.2011L32.2291 33.1592C31.7405 24.4375 35.8955 14.8434 44.3442 7.85628L43.8662 7.27832L43.3882 6.70036C34.6154 13.9555 30.2132 23.9923 30.7314 33.2431L31.4802 33.2011ZM43.8662 7.27832L43.237 6.87018C41.2748 9.89522 38.7885 13.1601 37.1772 17.3063C35.5493 21.495 34.8043 26.5809 36.1953 33.3521L36.9299 33.2011L37.6646 33.0502C36.3307 26.5566 37.0538 21.7645 38.5753 17.8496C40.1133 13.8922 42.4576 10.8281 44.4954 7.68646L43.8662 7.27832Z" fill="#323429"/>
<path d="M2 42H22.178C22.178 47.8379 28.9106 52.5 34.7485 52.5C40.5864 52.5 47.319 47.8379 47.319 42H68.9767" stroke="#323429" stroke-width="1.5"/>
<path d="M1 32.1675C7.6195 28.9851 16.7947 25.9264 28.7116 25M69 33.4526C59.2802 28.7195 48.1668 25.6808 39.5 25" stroke="#323429" stroke-width="1.5"/>
<circle cx="34.9856" cy="34.9856" r="34.2356" stroke="#323429" stroke-width="1.5"/>
</svg>
