<svg width="70" height="70" viewBox="0 0 70 70" fill="none" xmlns="http://www.w3.org/2000/svg">
<circle cx="35" cy="35" r="34.25" stroke="#323429" stroke-width="1.5"/>
<mask id="path-2-outside-1_15116_7459" maskUnits="userSpaceOnUse" x="10" y="10" width="49" height="49" fill="black">
<rect fill="white" x="10" y="10" width="49" height="49"/>
<path d="M31.5005 57.3166V38.3912H12.3524V31.155H31.5005V12.3409H38.7367V31.155H57.3281V38.3912H38.7367V57.3166H31.5005Z"/>
</mask>
<path d="M31.5005 57.3166H29.8306V58.9865H31.5005V57.3166ZM31.5005 38.3912H33.1704V36.7213H31.5005V38.3912ZM12.3524 38.3912H10.6825V40.0611H12.3524V38.3912ZM12.3524 31.155V29.4851H10.6825V31.155H12.3524ZM31.5005 31.155V32.8249H33.1704V31.155H31.5005ZM31.5005 12.3409V10.671H29.8306V12.3409H31.5005ZM38.7367 12.3409H40.4065V10.671H38.7367V12.3409ZM38.7367 31.155H37.0668V32.8249H38.7367V31.155ZM57.3281 31.155H58.998V29.4851H57.3281V31.155ZM57.3281 38.3912V40.0611H58.998V38.3912H57.3281ZM38.7367 38.3912V36.7213H37.0668V38.3912H38.7367ZM38.7367 57.3166V58.9865H40.4065V57.3166H38.7367ZM31.5005 57.3166H33.1704V38.3912H31.5005H29.8306V57.3166H31.5005ZM31.5005 38.3912V36.7213H12.3524V38.3912V40.0611H31.5005V38.3912ZM12.3524 38.3912H14.0223V31.155H12.3524H10.6825V38.3912H12.3524ZM12.3524 31.155V32.8249H31.5005V31.155V29.4851H12.3524V31.155ZM31.5005 31.155H33.1704V12.3409H31.5005H29.8306V31.155H31.5005ZM31.5005 12.3409V14.0108H38.7367V12.3409V10.671H31.5005V12.3409ZM38.7367 12.3409H37.0668V31.155H38.7367H40.4065V12.3409H38.7367ZM38.7367 31.155V32.8249H57.3281V31.155V29.4851H38.7367V31.155ZM57.3281 31.155H55.6582V38.3912H57.3281H58.998V31.155H57.3281ZM57.3281 38.3912V36.7213H38.7367V38.3912V40.0611H57.3281V38.3912ZM38.7367 38.3912H37.0668V57.3166H38.7367H40.4065V38.3912H38.7367ZM38.7367 57.3166V55.6467H31.5005V57.3166V58.9865H38.7367V57.3166Z" fill="#323429" mask="url(#path-2-outside-1_15116_7459)"/>
</svg>
