<svg width="70" height="70" viewBox="0 0 70 70" fill="none" xmlns="http://www.w3.org/2000/svg">
<path d="M34.9863 44.2885L30.6562 51.7885L39.3165 51.7885L34.9863 44.2885ZM34.9863 65.7565L35.7363 65.7565L35.7363 51.0385L34.9863 51.0385L34.2363 51.0385L34.2363 65.7565L34.9863 65.7565Z" fill="#323429"/>
<path d="M41.4267 41.4264L43.6681 49.7916L49.7919 43.6679L41.4267 41.4264ZM56.8057 56.8054L57.336 56.2751L46.73 45.6691L46.1997 46.1994L45.6693 46.7297L56.2753 57.3357L56.8057 56.8054Z" fill="#323429"/>
<path d="M28.546 41.4264L20.1808 43.6679L26.3045 49.7916L28.546 41.4264ZM13.167 56.8054L13.6973 57.3357L24.3033 46.7297L23.773 46.1994L23.2427 45.6691L12.6367 56.2751L13.167 56.8054Z" fill="#323429"/>
<circle cx="34.9856" cy="34.9856" r="34.2356" stroke="#323429" stroke-width="1.5"/>
<path d="M34.9863 25.6833L39.3165 18.1833L30.6562 18.1833L34.9863 25.6833ZM34.9863 4.21527L34.2363 4.21527L34.2363 14.9493L34.9863 14.9493L35.7363 14.9493L35.7363 4.21527L34.9863 4.21527ZM34.9863 14.9493L34.2363 14.9493L34.2363 18.9333L34.9863 18.9333L35.7363 18.9333L35.7363 14.9493L34.9863 14.9493Z" fill="#323429"/>
<path d="M25.6829 34.9866L18.1829 30.6564L18.1829 39.3167L25.6829 34.9866ZM4.21484 34.9866L4.21484 35.7366L18.9329 35.7366L18.9329 34.9866L18.9329 34.2366L4.21484 34.2366L4.21484 34.9866Z" fill="#323429"/>
<path d="M44.2888 34.9866L51.7888 39.3167L51.7888 30.6564L44.2888 34.9866ZM65.7568 34.9866L65.7568 34.2366L51.0388 34.2366L51.0388 34.9866L51.0388 35.7366L65.7568 35.7366L65.7568 34.9866Z" fill="#323429"/>
<path d="M28.546 28.5458L26.3045 20.1807L20.1808 26.3044L28.546 28.5458ZM13.167 13.1669L12.6367 13.6972L23.2427 24.3032L23.773 23.7729L24.3033 23.2425L13.6973 12.6365L13.167 13.1669Z" fill="#323429"/>
<path d="M41.4267 28.5458L49.7919 26.3044L43.6681 20.1807L41.4267 28.5458ZM56.8057 13.1669L56.2753 12.6365L45.6693 23.2425L46.1997 23.7729L46.73 24.3032L57.336 13.6972L56.8057 13.1669Z" fill="#323429"/>
<circle cx="34.9855" cy="34.9855" r="3.72187" fill="#323429"/>
</svg>
