<svg width="24" height="24" viewBox="0 0 24 24" fill="none" xmlns="http://www.w3.org/2000/svg">
<path fill-rule="evenodd" clip-rule="evenodd" d="M13.3426 15.1458L7.77128 16.518L9.07413 21.8079L8.51134 21.9465L7.06988 16.0938L12.6412 14.7216L11.2691 9.15028L16.8551 7.77452L15.6624 1.50618L16.2318 1.39783L17.5272 8.20592L11.9705 9.57446L13.3426 15.1458Z" fill="#323429"/>
<path fill-rule="evenodd" clip-rule="evenodd" d="M17.2069 17.4641L11.6376 18.8358L12.7505 23.2133L12.1888 23.3561L10.932 18.4126L16.5055 17.0399L15.1333 11.4686L20.7178 10.0932L19.5269 4.01927L20.0957 3.90775L21.3929 10.5239L15.8347 11.8928L17.2069 17.4641Z" fill="#323429"/>
<path fill-rule="evenodd" clip-rule="evenodd" d="M9.47803 12.8269L3.90668 14.199L5.20953 19.489L4.64674 19.6276L3.20528 13.7748L8.77663 12.4027L7.40448 6.83134L12.9853 5.45687L11.9922 0.738395L12.5594 0.619024L13.6678 5.88569L8.10588 7.25552L9.47803 12.8269Z" fill="#323429"/>
</svg>
