<svg width="70" height="70" viewBox="0 0 70 70" fill="none" xmlns="http://www.w3.org/2000/svg">
<circle cx="34.9856" cy="34.9856" r="34.2356" stroke="#323429" stroke-width="1.5"/>
<path d="M34.9863 65.7566L39.3165 58.2566H30.6562L34.9863 65.7566ZM34.9863 44.2886H34.2363V59.0066H34.9863H35.7363V44.2886H34.9863Z" fill="#323429"/>
<path d="M34.9863 4.21534L30.6562 11.7153L39.3165 11.7153L34.9863 4.21534ZM34.9863 25.6833L35.7363 25.6833L35.7363 14.9493L34.9863 14.9493L34.2363 14.9493L34.2363 25.6833L34.9863 25.6833ZM34.9863 14.9493L35.7363 14.9493L35.7363 10.9653L34.9863 10.9653L34.2363 10.9653L34.2363 14.9493L34.9863 14.9493Z" fill="#323429"/>
<path d="M4.21558 34.9864L11.7156 39.3166L11.7156 30.6563L4.21558 34.9864ZM25.6836 34.9865L25.6836 34.2365L10.9656 34.2364L10.9656 34.9864L10.9656 35.7364L25.6836 35.7365L25.6836 34.9865Z" fill="#323429"/>
<path d="M65.7571 34.9865L58.2571 30.6563L58.2571 39.3166L65.7571 34.9865ZM44.2891 34.9865L44.2891 35.7365L59.0071 35.7365L59.0071 34.9865L59.0071 34.2365L44.2891 34.2365L44.2891 34.9865Z" fill="#323429"/>
<path d="M13.1669 13.1668L15.4084 21.532L21.5321 15.4082L13.1669 13.1668ZM28.5459 28.5458L29.0762 28.0154L18.4702 17.4094L17.9399 17.9398L17.4096 18.4701L28.0156 29.0761L28.5459 28.5458Z" fill="#323429"/>
<path d="M56.8057 56.8055L54.5643 48.4403L48.4406 54.564L56.8057 56.8055ZM41.4268 41.4265L40.8964 41.9568L51.5024 52.5628L52.0328 52.0325L52.5631 51.5022L41.9571 40.8962L41.4268 41.4265Z" fill="#323429"/>
<path d="M56.8057 13.1668L48.4406 15.4082L54.5643 21.532L56.8057 13.1668ZM41.4268 28.5458L41.9571 29.0761L52.5631 18.4701L52.0328 17.9398L51.5024 17.4094L40.8964 28.0154L41.4268 28.5458Z" fill="#323429"/>
<path d="M13.1669 56.8055L21.532 54.5641L15.4083 48.4403L13.1669 56.8055ZM28.5459 41.4265L28.0156 40.8962L17.4095 51.5022L17.9399 52.0325L18.4702 52.5628L29.0762 41.9568L28.5459 41.4265Z" fill="#323429"/>
<circle cx="34.9855" cy="34.9855" r="3.72187" fill="#323429"/>
</svg>
