<svg width="24" height="24" viewBox="0 0 24 24" fill="none" xmlns="http://www.w3.org/2000/svg">
<path d="M6.76159 13.839C6.99011 13.7736 7.89207 13.503 8.43783 12.637C8.87063 11.9529 8.865 11.254 8.84423 10.8752C8.71439 8.53709 5.94446 5.41961 5.94446 5.41961L5.92715 5.40143L5.90724 5.41961C5.90724 5.41961 3.13731 8.53709 3.00747 10.8752C2.98323 11.3082 2.99449 11.9741 3.41344 12.637C3.90467 13.4164 4.66856 13.6956 4.9092 13.7814C5.50628 13.9895 6.15275 14.0096 6.76159 13.839V13.839Z" stroke="#323429" stroke-width="0.675176"/>
<mask id="path-2-inside-1_15116_7466" fill="white">
<path d="M14.2871 0C15.8253 0 17.0723 1.24699 17.0723 2.78516V14.9785C18.3605 15.8725 19.2041 17.362 19.2041 19.0488C19.2041 21.7834 16.9875 24 14.2529 24C11.5185 23.9999 9.30176 21.7833 9.30176 19.0488C9.30177 17.3323 10.1752 15.8199 11.502 14.9316V2.78516C11.502 1.24706 12.749 0.000119956 14.2871 0Z"/>
</mask>
<path d="M14.2871 0V-0.738568H14.2871L14.2871 0ZM17.0723 14.9785H16.3337V15.365L16.6512 15.5853L17.0723 14.9785ZM19.2041 19.0488H19.9427V19.0488L19.2041 19.0488ZM14.2529 24L14.2529 24.7386H14.2529V24ZM9.30176 19.0488L8.56319 19.0488V19.0488H9.30176ZM11.502 14.9316L11.9128 15.5454L12.2405 15.326V14.9316H11.502ZM14.2871 0V0.738568C15.4174 0.738568 16.3337 1.65489 16.3337 2.78516H17.0723H17.8108C17.8108 0.839087 16.2332 -0.738568 14.2871 -0.738568V0ZM17.0723 2.78516H16.3337V14.9785H17.0723H17.8108V2.78516H17.0723ZM17.0723 14.9785L16.6512 15.5853C17.7492 16.3472 18.4655 17.6143 18.4655 19.0488L19.2041 19.0488L19.9427 19.0488C19.9426 17.1097 18.9719 15.3978 17.4933 14.3717L17.0723 14.9785ZM19.2041 19.0488H18.4655C18.4655 21.3755 16.5796 23.2614 14.2529 23.2614V24V24.7386C17.3954 24.7386 19.9427 22.1913 19.9427 19.0488H19.2041ZM14.2529 24L14.2529 23.2614C11.9263 23.2614 10.0403 21.3754 10.0403 19.0488H9.30176H8.56319C8.56319 22.1912 11.1106 24.7385 14.2529 24.7386L14.2529 24ZM9.30176 19.0488L10.0403 19.0488C10.0403 17.5891 10.7822 16.3024 11.9128 15.5454L11.502 14.9316L11.0911 14.3179C9.56832 15.3374 8.56321 17.0756 8.56319 19.0488L9.30176 19.0488ZM11.502 14.9316H12.2405V2.78516H11.502H10.7634V14.9316H11.502ZM11.502 2.78516H12.2405C12.2405 1.65502 13.1569 0.738656 14.2872 0.738568L14.2871 0L14.2871 -0.738568C12.3412 -0.738416 10.7634 0.839103 10.7634 2.78516H11.502Z" fill="#323429" mask="url(#path-2-inside-1_15116_7466)"/>
<path fill-rule="evenodd" clip-rule="evenodd" d="M18.3037 3.07739H20.7794V3.81596H18.3037V3.07739Z" fill="#323429"/>
<path fill-rule="evenodd" clip-rule="evenodd" d="M18.3037 6.30945H20.7794V7.04802H18.3037V6.30945Z" fill="#323429"/>
<path fill-rule="evenodd" clip-rule="evenodd" d="M18.3037 9.47296H20.7794V10.2115H18.3037V9.47296Z" fill="#323429"/>
<path d="M14.2529 3.37592V18.4549" stroke="#323429" stroke-width="0.675176"/>
<circle cx="14.2528" cy="18.905" r="0.900235" fill="#323429"/>
</svg>
