<svg width="24" height="24" viewBox="0 0 24 24" fill="none" xmlns="http://www.w3.org/2000/svg">
<mask id="mask0_15116_7455" style="mask-type:alpha" maskUnits="userSpaceOnUse" x="0" y="0" width="24" height="24">
<path d="M24 12C24 18.6274 18.6274 24 12 24C5.37258 24 0 18.6274 0 12C0 5.37258 5.37258 0 12 0C18.6274 0 24 5.37258 24 12Z" fill="#D9D9D9"/>
</mask>
<g mask="url(#mask0_15116_7455)">
<path fill-rule="evenodd" clip-rule="evenodd" d="M14.2323 7.28994L-9.10938 -6L-13.9998 2.58928L9.7473 16.11L8.02629 12.2405L12.1925 11.8154L10.4544 7.97596L14.2323 7.28994ZM11.3108 11.3082L9.59927 7.52748L12.518 6.99746L-8.88706 -5.18983L-13.1896 2.36697L8.46952 14.6989L7.1503 11.7328L11.3108 11.3082Z" fill="#323429"/>
<path fill-rule="evenodd" clip-rule="evenodd" d="M10.2076 13.485L11.9468 17.3631L33.7455 29.7745L38.6331 21.1901L16.4266 8.54658L12.6343 9.22283L14.3906 13.0709L10.2076 13.485ZM13.4929 9.67317L15.276 13.5803L11.0873 13.9949L12.4094 16.9429L33.5231 28.9644L37.8229 21.4125L16.3194 9.16913L13.4929 9.67317Z" fill="#323429"/>
</g>
</svg>
