<svg width="24" height="24" viewBox="0 0 24 24" fill="none" xmlns="http://www.w3.org/2000/svg">
<path fill-rule="evenodd" clip-rule="evenodd" d="M18.3687 14.9458C18.1787 15.0681 17.9745 15.1706 17.7588 15.2504C17.9745 15.3302 18.1787 15.4327 18.3687 15.555C18.7453 15.7975 19.0658 16.118 19.3083 16.4946C19.4306 16.6846 19.5331 16.8888 19.6129 17.1045C19.6927 16.8888 19.7952 16.6846 19.9175 16.4946C20.16 16.118 20.4806 15.7975 20.8572 15.555C21.0471 15.4327 21.2514 15.3302 21.4671 15.2504C21.2514 15.1706 21.0471 15.0681 20.8572 14.9458C20.4806 14.7033 20.16 14.3827 19.9175 14.0061C19.7952 13.8162 19.6927 13.6119 19.6129 13.3962C19.5331 13.6119 19.4306 13.8162 19.3083 14.0061C19.0658 14.3827 18.7453 14.7033 18.3687 14.9458ZM18.8543 15.2504C19.143 15.4647 19.3986 15.7204 19.6129 16.009C19.8272 15.7204 20.0829 15.4647 20.3716 15.2504C20.0829 15.0361 19.8272 14.7804 19.6129 14.4917C19.3986 14.7804 19.143 15.0361 18.8543 15.2504Z" fill="#323429"/>
<path fill-rule="evenodd" clip-rule="evenodd" d="M3.65722 9.58764C3.44633 9.69987 3.22688 9.79852 3 9.88247C3.22688 9.96643 3.44633 10.0651 3.65722 10.1773C4.59733 10.6776 5.36738 11.4476 5.86767 12.3878C5.9799 12.5986 6.07855 12.8181 6.1625 13.045C6.24646 12.8181 6.34511 12.5986 6.45734 12.3878C6.95763 11.4476 7.72767 10.6776 8.66778 10.1773C8.87867 10.0651 9.09812 9.96643 9.32501 9.88247C9.09812 9.79852 8.87867 9.69987 8.66778 9.58764C7.72767 9.08735 6.95763 8.3173 6.45734 7.37719C6.34511 7.1663 6.24646 6.94685 6.1625 6.71997C6.07855 6.94685 5.9799 7.1663 5.86767 7.37719C5.36738 8.3173 4.59733 9.08735 3.65722 9.58764ZM4.20372 9.88247C5.00314 10.37 5.675 11.0418 6.1625 11.8413C6.65001 11.0418 7.32187 10.37 8.12128 9.88247C7.32187 9.39497 6.65001 8.72311 6.1625 7.9237C5.675 8.72311 5.00314 9.39497 4.20372 9.88247Z" fill="#323429"/>
<path fill-rule="evenodd" clip-rule="evenodd" d="M14.1013 2.2887C14.0448 2.87352 14.3269 3.456 15.0132 3.89478C17.4354 5.44348 18.1368 7.29541 17.9827 8.95476C17.8314 10.5847 16.8588 11.9791 16.0222 12.6602C14.7342 13.7089 14.4245 14.6027 14.4484 15.3278C14.4686 15.9394 14.7185 16.4599 14.9492 16.9402C15.0059 17.0582 15.0614 17.1738 15.112 17.2877C15.899 19.0577 15.7536 20.4832 15.2204 21.5561C14.6934 22.6167 13.8021 23.3048 13.1346 23.6454L12.4398 24L12.7772 23.2967C13.011 22.8092 13.0397 22.3943 12.9516 22.0317C12.8621 21.663 12.6458 21.3241 12.3492 21.0052C12.0524 20.6861 11.6867 20.399 11.3154 20.1318C11.1803 20.0346 11.0413 19.9379 10.9051 19.8431C10.6783 19.6854 10.4592 19.5329 10.2785 19.3922C9.30832 18.6367 8.71419 17.8952 8.40585 17.1792C8.09551 16.4585 8.08138 15.7786 8.24615 15.1659C8.5707 13.959 9.58067 13.0403 10.2856 12.5288C11.046 11.9772 11.874 11.235 12.1081 10.3733C12.2213 9.9567 12.1982 9.50264 11.9411 9.00593C11.6803 8.50194 11.1719 7.94188 10.2918 7.34078C8.44185 6.07731 7.6275 4.68516 7.38589 3.43586C7.14589 2.19486 7.47691 1.12306 7.86996 0.50397L8.31494 0.786478C7.98846 1.30072 7.69084 2.23673 7.90338 3.33578C8.11433 4.42652 8.83372 5.70666 10.589 6.90552C11.5116 7.53559 12.0945 8.1556 12.4092 8.76367C12.7277 9.37903 12.7642 9.96901 12.6168 10.5115C12.3297 11.568 11.355 12.4041 10.5952 12.9554C9.91448 13.4493 9.03094 14.2772 8.75515 15.3027C8.61975 15.8063 8.62874 16.3641 8.88996 16.9707C9.15316 17.5819 9.67899 18.2573 10.6023 18.9763C10.7741 19.1101 10.9706 19.2467 11.1864 19.3966C11.3246 19.4926 11.4707 19.5942 11.6233 19.704C12.0027 19.9771 12.4023 20.2884 12.7351 20.6463C13.0682 21.0044 13.3457 21.4211 13.4638 21.9072C13.5326 22.1903 13.5453 22.4889 13.4902 22.8031C13.9508 22.4595 14.4281 21.9662 14.7484 21.3216C15.2066 20.3994 15.3583 19.139 14.6304 17.5018C14.5906 17.4124 14.5432 17.3143 14.4918 17.2082C14.2584 16.726 13.9459 16.0801 13.9216 15.3452C13.8908 14.4117 14.3121 13.3729 15.6895 12.2514C16.4358 11.6438 17.3218 10.3718 17.4579 8.90603C17.5913 7.46967 17.009 5.79649 14.7293 4.33886C13.9105 3.81534 13.4975 3.05732 13.5766 2.23803C13.6545 1.4317 14.2026 0.635701 15.1522 0L15.4454 0.438004C14.5773 1.01915 14.159 1.69091 14.1013 2.2887Z" fill="#323429"/>
</svg>
