<svg width="70" height="70" viewBox="0 0 70 70" fill="none" xmlns="http://www.w3.org/2000/svg">
<circle cx="34.9856" cy="34.9856" r="34.2356" stroke="#323429" stroke-width="1.5"/>
<path d="M39.5708 58.3696C40.8205 58.0103 45.753 56.5231 48.7376 51.7641C51.1045 48.0044 51.0737 44.1639 50.9601 42.0818C50.25 29.2324 35.1022 12.0999 35.1022 12.0999L35.0076 12L34.8987 12.0999C34.8987 12.0999 19.7509 29.2324 19.0409 42.0818C18.9083 44.4613 18.9698 48.121 21.261 51.7641C23.9473 56.0472 28.1248 57.582 29.4408 58.0531C32.706 59.1967 36.2413 59.3072 39.5708 58.3696V58.3696Z" stroke="#323429" stroke-width="1.5"/>
<path d="M37.6926 58.611C38.4637 58.3893 41.5072 57.4717 43.3487 54.5353C44.8091 52.2155 44.7902 49.8458 44.7201 48.5611C44.2819 40.6328 34.9354 30.0617 34.9354 30.0617L34.877 30L34.8098 30.0617C34.8098 30.0617 25.4633 40.6328 25.0252 48.5611C24.9434 50.0293 24.9814 52.2874 26.3951 54.5353C28.0526 57.1781 30.6302 58.1251 31.4422 58.4158C33.4569 59.1214 35.6382 59.1895 37.6926 58.611V58.611Z" stroke="#323429" stroke-width="1.5"/>
</svg>
