<svg width="25" height="24" viewBox="0 0 25 24" fill="none" xmlns="http://www.w3.org/2000/svg">
<path fill-rule="evenodd" clip-rule="evenodd" d="M13.8096 5.84689C12.0344 8.01559 11.1844 10.5727 11.3173 12.9451L11.3273 13.123L11.1656 13.1977C10.4758 13.5167 9.99801 14.2145 9.99801 15.0234C9.99801 16.1335 10.898 17.0335 12.0081 17.0335C13.1183 17.0335 14.0182 16.1335 14.0182 15.0234C14.0182 14.2145 13.5405 13.5167 12.8506 13.1977L12.7305 13.1422L12.7038 13.0125C12.2176 10.6454 12.478 8.86749 13.0471 7.40319C13.2649 6.84268 13.5285 6.32823 13.8096 5.84689ZM10.7858 12.8026C10.6675 9.61674 12.2058 6.18699 15.2184 3.69556L15.6054 4.04028C15.4607 4.26339 15.3116 4.48539 15.1613 4.70911C14.5717 5.58664 13.9643 6.49075 13.5359 7.59315C13.0138 8.93649 12.7606 10.5753 13.1924 12.7821C13.995 13.2071 14.5426 14.051 14.5426 15.0234C14.5426 16.4231 13.4079 17.5578 12.0081 17.5578C10.6084 17.5578 9.47363 16.4231 9.47363 15.0234C9.47363 14.0664 10.0039 13.2339 10.7858 12.8026Z" fill="#323429"/>
<path fill-rule="evenodd" clip-rule="evenodd" d="M0.125977 15.7734H8.0657V16.0356C8.0657 16.9508 8.59465 17.7995 9.39736 18.4301C10.1994 19.0601 11.242 19.4441 12.1979 19.4441C13.1538 19.4441 14.1964 19.0601 14.9985 18.4301C15.8012 17.7995 16.3302 16.9508 16.3302 16.0356V15.7734H24.126V16.2978H16.8428C16.7515 17.3143 16.1373 18.2023 15.3224 18.8424C14.4375 19.5375 13.2829 19.9684 12.1979 19.9684C11.113 19.9684 9.95838 19.5375 9.07345 18.8424C8.25851 18.2023 7.64438 17.3143 7.55308 16.2978H0.125977V15.7734Z" fill="#323429"/>
<path fill-rule="evenodd" clip-rule="evenodd" d="M10.1076 10.1209C5.97671 10.4421 2.51449 11.4004 0.227219 12.5L1.02818e-05 12.0274C2.34086 10.902 5.86604 9.92471 10.067 9.59814L10.1076 10.1209ZM24.0566 13.0502C20.6851 11.4083 16.8318 10.3561 13.8382 10.1209L13.8793 9.59816C16.9452 9.839 20.8621 10.9113 24.2862 12.5787L24.0566 13.0502Z" fill="#323429"/>
</svg>
