<svg width="24" height="24" viewBox="0 0 24 24" fill="none" xmlns="http://www.w3.org/2000/svg">
<path fill-rule="evenodd" clip-rule="evenodd" d="M3.94434 10.5226L0.999844 12.2226L3.94434 13.9226V10.5226Z" fill="#323429"/>
<path fill-rule="evenodd" clip-rule="evenodd" d="M21.4076 18.0357L17.4084 16.892L17.5612 16.3579L21.5603 17.5016L21.4076 18.0357Z" fill="#323429"/>
<path fill-rule="evenodd" clip-rule="evenodd" d="M22.3899 12.2776H18.0713V11.722H22.3899V12.2776Z" fill="#323429"/>
<path fill-rule="evenodd" clip-rule="evenodd" d="M14.2961 20.0049L10.5664 18.0419L10.8252 17.5503L14.5548 19.5133L14.2961 20.0049Z" fill="#323429"/>
<path fill-rule="evenodd" clip-rule="evenodd" d="M15.6107 16.4067L11.6115 15.263L11.7643 14.7288L15.7635 15.8726L15.6107 16.4067Z" fill="#323429"/>
<path fill-rule="evenodd" clip-rule="evenodd" d="M16.1076 12.2776H12.1816V11.722H16.1076V12.2776Z" fill="#323429"/>
<path fill-rule="evenodd" clip-rule="evenodd" d="M14.56 4.69061L11.0266 6.6536L10.7568 6.16795L14.2902 4.20496L14.56 4.69061Z" fill="#323429"/>
<path fill-rule="evenodd" clip-rule="evenodd" d="M9.1486 17.2174L6.00781 15.2544L6.30226 14.7833L9.44305 16.7463L9.1486 17.2174Z" fill="#323429"/>
<path fill-rule="evenodd" clip-rule="evenodd" d="M6.47882 11.6922C6.39919 10.5342 6.06924 9.49306 5.74121 8.90094L6.22719 8.63171C6.60015 9.30495 6.94871 10.4272 7.03308 11.6541C7.11753 12.8821 6.9396 14.2504 6.21914 15.3924L5.74926 15.096C6.38582 14.087 6.55838 12.849 6.47882 11.6922Z" fill="#323429"/>
<path fill-rule="evenodd" clip-rule="evenodd" d="M10.2076 14.948L6.60039 13.7814L6.77133 13.2528L10.3786 14.4194L10.2076 14.948Z" fill="#323429"/>
<path fill-rule="evenodd" clip-rule="evenodd" d="M10.6115 12.2776H6.68555V11.722H10.6115V12.2776Z" fill="#323429"/>
<path fill-rule="evenodd" clip-rule="evenodd" d="M10.1739 9.71002L6.75775 10.6339L6.61271 10.0976L10.0288 9.17373L10.1739 9.71002Z" fill="#323429"/>
<path fill-rule="evenodd" clip-rule="evenodd" d="M9.44274 7.5535L6.10564 9.3202L5.8457 8.8292L9.18279 7.0625L9.44274 7.5535Z" fill="#323429"/>
<path fill-rule="evenodd" clip-rule="evenodd" d="M15.8061 8.16448L11.9837 9.25458L11.8314 8.72031L15.6537 7.63021L15.8061 8.16448Z" fill="#323429"/>
<path fill-rule="evenodd" clip-rule="evenodd" d="M19.8645 1.74362L16.1348 3.90291L15.8564 3.42211L19.5861 1.26282L19.8645 1.74362Z" fill="#323429"/>
<path fill-rule="evenodd" clip-rule="evenodd" d="M21.6522 6.43654L17.6194 7.70764L17.4524 7.17778L21.4852 5.90668L21.6522 6.43654Z" fill="#323429"/>
<path fill-rule="evenodd" clip-rule="evenodd" d="M19.3947 22.9463L15.8613 20.9833L16.1311 20.4977L19.6645 22.4607L19.3947 22.9463Z" fill="#323429"/>
<path d="M3.95834 13.9427C4.58077 12.8223 4.27969 11.1251 3.95834 10.5132L3.1738 10.9839L2.68066 13.1806L3.95834 13.9427Z" fill="#323429"/>
<path fill-rule="evenodd" clip-rule="evenodd" d="M22.406 24L3.81836 0.382768L4.3047 0L22.8923 23.6172L22.406 24Z" fill="#323429"/>
</svg>
