<svg width="24" height="25" viewBox="0 0 24 25" fill="none" xmlns="http://www.w3.org/2000/svg">
<path d="M6.63318 14.835C6.29812 16.7158 6.83422 20.6767 11.6591 21.4733" stroke="#323429" stroke-width="0.765957"/>
<path d="M14.5043 24.2152C15.1424 24.0317 17.6611 23.2723 19.1852 20.8422C20.3938 18.9224 20.3781 16.9612 20.32 15.898C19.9575 9.33666 12.2224 0.588144 12.2224 0.588144L12.1741 0.537109L12.1185 0.588144C12.1185 0.588144 4.38344 9.33666 4.02086 15.898C3.95318 17.1131 3.9846 18.9819 5.15453 20.8422C6.52629 23.0293 8.65947 23.813 9.33145 24.0536C10.9988 24.6376 12.8041 24.694 14.5043 24.2152V24.2152Z" stroke="#323429" stroke-width="0.765957"/>
<path d="M14.5039 20.6494V18.8474H12.6807V18.1584H14.5039V16.3669H15.1929V18.1584H16.9631V18.8474H15.1929V20.6494H14.5039Z" fill="#323429"/>
</svg>
