<svg width="24" height="24" viewBox="0 0 24 24" fill="none" xmlns="http://www.w3.org/2000/svg">
<path fill-rule="evenodd" clip-rule="evenodd" d="M8.29204 11.4273C7.25793 12.2029 6.64864 13.2496 6.64864 14.3784C6.64864 15.5072 7.258 16.554 8.29215 17.3296C9.3264 18.1053 10.77 18.5946 12.3783 18.5946V19.2433C10.6432 19.2433 9.05988 18.7162 7.90297 17.8485C6.74596 16.9807 6 15.7572 6 14.3784C6 12.9997 6.74587 11.7762 7.90285 10.9084C9.05972 10.0407 10.6431 9.51361 12.3783 9.51361V10.1623C10.7699 10.1623 9.32625 10.6516 8.29204 11.4273Z" fill="#323429"/>
<path fill-rule="evenodd" clip-rule="evenodd" d="M12.3783 0.648706C9.13655 0.648706 6.64864 2.70178 6.64864 5.08111H6C6 2.20655 8.93273 6.10352e-05 12.3783 6.10352e-05V0.648706Z" fill="#323429"/>
<path fill-rule="evenodd" clip-rule="evenodd" d="M18.1076 16.7568C18.1076 13.0728 15.5029 10.1623 12.3779 10.1623V9.51361C15.9398 9.51361 18.7563 12.7986 18.7563 16.7568C18.7563 20.715 15.9401 24 12.3779 24V23.3514C15.5032 23.3514 18.1076 20.4409 18.1076 16.7568Z" fill="#323429"/>
<path fill-rule="evenodd" clip-rule="evenodd" d="M18.1076 12C18.1076 8.31596 15.5029 5.40545 12.3779 5.40545V4.75681C15.9398 4.75681 18.7563 8.04178 18.7563 12C18.7563 15.9582 15.9401 19.2432 12.3779 19.2432V18.5946C15.5032 18.5946 18.1076 15.6841 18.1076 12Z" fill="#323429"/>
<path fill-rule="evenodd" clip-rule="evenodd" d="M18.1076 7.2432C18.1076 3.55915 15.5029 0.648645 12.3779 0.648645V0C15.9398 0 18.7563 3.28498 18.7563 7.2432C18.7563 11.2014 15.9401 14.4864 12.3779 14.4864V13.8378C15.5032 13.8378 18.1076 10.9273 18.1076 7.2432Z" fill="#323429"/>
<path fill-rule="evenodd" clip-rule="evenodd" d="M8.29204 6.67051C7.25793 7.44612 6.64864 8.49284 6.64864 9.62164C6.64864 10.7504 7.25793 11.7972 8.29204 12.5728C9.32625 13.3485 10.7699 13.8378 12.3783 13.8378V14.4865C10.6431 14.4865 9.05972 13.9594 7.90285 13.0917C6.74587 12.2239 6 11.0004 6 9.62164C6 8.2429 6.74587 7.01937 7.90285 6.1516C9.05972 5.28391 10.6431 4.75681 12.3783 4.75681V5.40545C10.7699 5.40545 9.32625 5.89483 8.29204 6.67051Z" fill="#323429"/>
<path fill-rule="evenodd" clip-rule="evenodd" d="M12.3783 23.9998C8.93273 23.9998 6 21.7934 6 18.9188H6.64864C6.64864 21.2981 9.13655 23.3512 12.3783 23.3512V23.9998Z" fill="#323429"/>
</svg>
