<svg width="24" height="24" viewBox="0 0 24 24" fill="none" xmlns="http://www.w3.org/2000/svg">
<path fill-rule="evenodd" clip-rule="evenodd" d="M0.00585938 10.7683L3.45029 9.04609L3.93405 9.44162L1.28369 10.7668L11.9998 16.0844L22.71 10.7698L20.2788 9.5902L20.7535 9.19021L23.9998 10.7653L11.9998 16.72L0.00585938 10.7683Z" fill="#323429"/>
<path fill-rule="evenodd" clip-rule="evenodd" d="M0 14.8286L3.24634 13.2535L3.72106 13.6535L1.28987 14.8331L12 20.1477L22.7101 14.8331L20.3828 13.7039L20.8575 13.3039L24 14.8286L12 20.7833L0 14.8286Z" fill="#323429"/>
<path fill-rule="evenodd" clip-rule="evenodd" d="M12.093 10.3137L17.7964 7.71018C19.1087 7.11114 19.6869 5.56169 19.0879 4.2494C18.4888 2.93711 16.9394 2.3589 15.6271 2.95795L9.92368 5.56148C8.61139 6.16052 8.03318 7.70997 8.63223 9.02226C9.23127 10.3346 10.7807 10.9128 12.093 10.3137ZM19.6875 3.9757C18.9373 2.33227 16.9968 1.60816 15.3534 2.35836L9.64998 4.9619C8.00654 5.7121 7.28244 7.65253 8.03264 9.29596C8.78285 10.9394 10.7233 11.6635 12.3667 10.9133L18.0701 8.30976C19.7136 7.55956 20.4377 5.61913 19.6875 3.9757Z" fill="#323429"/>
<path fill-rule="evenodd" clip-rule="evenodd" d="M17.344 5.40744L5.93716 10.6145L5.66346 10.0149L17.0703 4.80786L17.344 5.40744Z" fill="#323429"/>
</svg>
