<svg width="24" height="24" viewBox="0 0 24 24" fill="none" xmlns="http://www.w3.org/2000/svg">
<g clip-path="url(#clip0_15116_7428)">
<path fill-rule="evenodd" clip-rule="evenodd" d="M5.8712 3.64134C6.56376 2.10899 7.20038 0.899222 7.68999 0.0124512L8.15689 0.270239C7.67227 1.14795 7.0425 2.3447 6.35721 3.86099L5.8712 3.64134ZM1.25977 19.6571C2.00974 14.6895 3.2855 10.2276 4.47302 6.98302L4.97386 7.16633C3.79715 10.3813 2.53116 14.8085 1.78712 19.7367L1.25977 19.6571Z" fill="#323429"/>
<path fill-rule="evenodd" clip-rule="evenodd" d="M8.11714 14.2922C9.97711 7.59055 12.2923 2.03501 13.5642 0L14.0165 0.282666C12.7854 2.25238 10.4865 7.74941 8.63105 14.4349L8.11714 14.2922ZM6.2373 23.216C6.49531 21.3455 6.84636 19.4875 7.25877 17.6819L7.77871 17.8007C7.36932 19.593 7.02125 21.4356 6.76564 23.2889L6.2373 23.216Z" fill="#323429"/>
<path fill-rule="evenodd" clip-rule="evenodd" d="M16.7021 5.37554C17.2562 3.99243 17.766 2.89557 18.1786 2.14612L18.6458 2.40331C18.2473 3.12712 17.7466 4.20245 17.1971 5.57389L16.7021 5.37554ZM11.9258 23.9272C12.7492 17.9576 14.1624 12.6104 15.5218 8.58931L16.0271 8.76011C14.677 12.7536 13.2723 18.0679 12.4541 24L11.9258 23.9272Z" fill="#323429"/>
<path fill-rule="evenodd" clip-rule="evenodd" d="M20.0577 11.6202C20.6571 9.62199 21.2303 7.9813 21.7282 6.95789L22.2078 7.19122C21.7301 8.17308 21.167 9.77828 20.5686 11.7734C20.5335 11.8903 20.4984 12.0084 20.4631 12.1279L19.9516 11.9768C19.9871 11.8567 20.0225 11.7378 20.0577 11.6202ZM18.8704 15.8963C18.9486 15.596 19.0267 15.299 19.1047 15.0059L19.6201 15.1432C19.5423 15.4352 19.4645 15.7312 19.3866 16.0305C19.0979 17.1407 18.8753 18.2235 18.6441 19.3474C18.4874 20.1095 18.3268 20.8905 18.1391 21.7117L17.6191 21.5929C17.8008 20.7983 17.9599 20.0254 18.1165 19.2645C18.351 18.1255 18.58 17.0135 18.8704 15.8963Z" fill="#323429"/>
<path fill-rule="evenodd" clip-rule="evenodd" d="M19.8345 14.8969C20.6199 14.8969 21.2567 14.2602 21.2567 13.4747C21.2567 12.6892 20.6199 12.0525 19.8345 12.0525C19.049 12.0525 18.4122 12.6892 18.4122 13.4747C18.4122 14.2602 19.049 14.8969 19.8345 14.8969ZM19.8345 15.4303C20.9145 15.4303 21.79 14.5547 21.79 13.4747C21.79 12.3947 20.9145 11.5192 19.8345 11.5192C18.7544 11.5192 17.8789 12.3947 17.8789 13.4747C17.8789 14.5547 18.7544 15.4303 19.8345 15.4303Z" fill="#323429"/>
<path fill-rule="evenodd" clip-rule="evenodd" d="M16.2788 8.49679C17.0643 8.49679 17.701 7.86004 17.701 7.07457C17.701 6.2891 17.0643 5.65235 16.2788 5.65235C15.4933 5.65235 14.8566 6.2891 14.8566 7.07457C14.8566 7.86004 15.4933 8.49679 16.2788 8.49679ZM16.2788 9.03013C17.3588 9.03013 18.2344 8.1546 18.2344 7.07457C18.2344 5.99455 17.3588 5.11902 16.2788 5.11902C15.1988 5.11902 14.3232 5.99455 14.3232 7.07457C14.3232 8.1546 15.1988 9.03013 16.2788 9.03013Z" fill="#323429"/>
<path fill-rule="evenodd" clip-rule="evenodd" d="M7.74559 17.3857C8.53106 17.3857 9.16781 16.749 9.16781 15.9635C9.16781 15.178 8.53106 14.5413 7.74559 14.5413C6.96012 14.5413 6.32337 15.178 6.32337 15.9635C6.32337 16.749 6.96012 17.3857 7.74559 17.3857ZM7.74559 17.919C8.82562 17.919 9.70115 17.0435 9.70115 15.9635C9.70115 14.8835 8.82562 14.0079 7.74559 14.0079C6.66557 14.0079 5.79004 14.8835 5.79004 15.9635C5.79004 17.0435 6.66557 17.919 7.74559 17.919Z" fill="#323429"/>
<path fill-rule="evenodd" clip-rule="evenodd" d="M5.25634 6.71921C6.04181 6.71921 6.67856 6.08246 6.67856 5.29699C6.67856 4.51151 6.04181 3.87476 5.25634 3.87476C4.47086 3.87476 3.83411 4.51151 3.83411 5.29699C3.83411 6.08246 4.47086 6.71921 5.25634 6.71921ZM5.25634 7.25254C6.33636 7.25254 7.21189 6.37701 7.21189 5.29699C7.21189 4.21696 6.33636 3.34143 5.25634 3.34143C4.17631 3.34143 3.30078 4.21696 3.30078 5.29699C3.30078 6.37701 4.17631 7.25254 5.25634 7.25254Z" fill="#323429"/>
</g>
<defs>
<clipPath id="clip0_15116_7428">
<rect width="24" height="24" fill="white"/>
</clipPath>
</defs>
</svg>
