<svg width="24" height="24" viewBox="0 0 24 24" fill="none" xmlns="http://www.w3.org/2000/svg">
<path fill-rule="evenodd" clip-rule="evenodd" d="M10.3115 18.5526L12.0002 15.6277L13.6889 18.5526L12.2927 18.5526L12.2927 23.9999L11.7077 23.9999L11.7077 18.5526L10.3115 18.5526Z" fill="#323429"/>
<path fill-rule="evenodd" clip-rule="evenodd" d="M15.3861 17.7741L14.512 14.5119L17.7742 15.386L16.787 16.3733L20.7163 20.3026L20.3027 20.7162L16.3733 16.7869L15.3861 17.7741Z" fill="#323429"/>
<path fill-rule="evenodd" clip-rule="evenodd" d="M6.22623 15.3858L9.4885 14.5117L8.61438 17.774L7.62712 16.7867L3.69777 20.7161L3.28413 20.3024L7.21348 16.3731L6.22623 15.3858Z" fill="#323429"/>
<path fill-rule="evenodd" clip-rule="evenodd" d="M13.6885 5.44735L11.9998 8.37222L10.3111 5.44735L11.7073 5.44735L11.7073 6.09486e-05L12.2923 6.09741e-05L12.2923 5.44735L13.6885 5.44735Z" fill="#323429"/>
<path fill-rule="evenodd" clip-rule="evenodd" d="M5.44729 10.3118L8.37216 12.0004L5.44729 13.6891L5.44729 12.2929L3.46398e-07 12.2929L2.44118e-07 11.708L5.44729 11.708L5.44729 10.3118Z" fill="#323429"/>
<path fill-rule="evenodd" clip-rule="evenodd" d="M18.5527 13.6891L15.6278 12.0004L18.5527 10.3117L18.5527 11.7079L24 11.7079L24 12.2929L18.5527 12.2929L18.5527 13.6891Z" fill="#323429"/>
<path fill-rule="evenodd" clip-rule="evenodd" d="M8.61489 6.2261L9.48901 9.48837L6.22674 8.61424L7.21399 7.62699L3.28465 3.69765L3.69829 3.28401L7.62763 7.21335L8.61489 6.2261Z" fill="#323429"/>
<path fill-rule="evenodd" clip-rule="evenodd" d="M17.7738 8.61446L14.5115 9.48858L15.3856 6.22631L16.3729 7.21357L20.3022 3.28422L20.7159 3.69786L16.7865 7.62721L17.7738 8.61446Z" fill="#323429"/>
<path d="M13.4518 11.9999C13.4518 12.8016 12.8019 13.4514 12.0003 13.4514C11.1987 13.4514 10.5488 12.8016 10.5488 11.9999C10.5488 11.1983 11.1987 10.5485 12.0003 10.5485C12.8019 10.5485 13.4518 11.1983 13.4518 11.9999Z" fill="#323429"/>
</svg>
