<svg width="70" height="70" viewBox="0 0 70 70" fill="none" xmlns="http://www.w3.org/2000/svg">
<path d="M21 51C21 57.0749 27.2676 62 35 62" stroke="#323429" stroke-width="1.5" stroke-miterlimit="10"/>
<circle cx="35" cy="35" r="34.25" stroke="#323429" stroke-width="1.5"/>
<path d="M35 51C27.2684 51 21 46.2987 21 40.5C21 34.7013 27.2676 30 35 30" stroke="#323429" stroke-width="1.5" stroke-miterlimit="10"/>
<path d="M21 19C21 12.9251 27.2676 8 35 8" stroke="#323429" stroke-width="1.5" stroke-miterlimit="10"/>
<path d="M35 30C42.7316 30 49 37.1636 49 46C49 54.8364 42.7324 62 35 62" stroke="#323429" stroke-width="1.5" stroke-miterlimit="10"/>
<path d="M35 19C42.7316 19 49 26.1636 49 35C49 43.8364 42.7324 51 35 51" stroke="#323429" stroke-width="1.5" stroke-miterlimit="10"/>
<path d="M35 8C42.7316 8 49 15.1636 49 24C49 32.8364 42.7324 40 35 40" stroke="#323429" stroke-width="1.5" stroke-miterlimit="10"/>
<path d="M35 40C27.2676 40 21 35.2987 21 29.5C21 23.7013 27.2676 19 35 19" stroke="#323429" stroke-width="1.5" stroke-miterlimit="10"/>
</svg>
