<svg width="70" height="70" viewBox="0 0 70 70" fill="none" xmlns="http://www.w3.org/2000/svg">
<circle cx="34.9856" cy="34.9856" r="34.2356" stroke="#323429" stroke-width="1.5"/>
<path d="M27 2C25.63 4.4813 23.8491 7.86547 21.9115 12.1526M9 57C11.101 43.084 14.6753 30.5838 18 21.5" stroke="#323429" stroke-width="1.5"/>
<path d="M43.5 2C39.9802 7.63164 33.4916 23.1743 28.2668 42M23 67C23.7223 61.7634 24.7054 56.5595 25.8611 51.5" stroke="#323429" stroke-width="1.5"/>
<path d="M56.5 8C55.3595 10.0718 53.9385 13.1264 52.3865 17M39 69C41.3085 52.2633 45.2713 37.2704 49.0814 26" stroke="#323429" stroke-width="1.5"/>
<path d="M66.5 21.5C65.128 24.3199 63.5301 28.8844 61.8458 34.5C61.7469 34.8298 61.6477 35.1631 61.5482 35.5M55 62.5C56.291 56.852 57.1514 51.7405 58.514 46.5C58.7333 45.6566 58.9527 44.8228 59.1718 44" stroke="#323429" stroke-width="1.5"/>
<circle cx="60.5" cy="39.5" r="4.75" stroke="#323429" stroke-width="1.5"/>
<circle cx="50.5" cy="21.5" r="4.75" stroke="#323429" stroke-width="1.5"/>
<circle cx="26.5" cy="46.5" r="4.75" stroke="#323429" stroke-width="1.5"/>
<circle cx="19.5" cy="16.5" r="4.75" stroke="#323429" stroke-width="1.5"/>
</svg>
