<svg width="48" height="48" viewBox="0 0 48 48" fill="none" xmlns="http://www.w3.org/2000/svg">
<g clip-path="url(#clip0_16021_14818)">
<path d="M28.7383 13.668L26.1875 13.7549V14.5293C26.4317 14.6907 26.5676 14.9727 26.5703 15.2324L26.6064 18.3604L27.2998 18.5391C27.6688 18.634 27.8924 18.8875 28.002 19.1348C28.0901 19.334 28.1096 19.5348 28.1006 19.6885V30.249L28.1113 31.4834C28.1147 31.942 28.1179 32.4271 28.1191 32.876C28.1204 33.3247 28.1199 33.74 28.1172 34.0566C28.1158 34.2144 28.1142 34.3509 28.1113 34.4561C28.1091 34.5375 28.1049 34.6566 28.0918 34.7373C28.0551 34.9636 27.9702 35.1918 27.7891 35.3916C27.6221 35.5757 27.4157 35.6872 27.2334 35.7676C27.1137 35.8203 26.9782 35.8436 26.9082 35.8545C26.8146 35.8691 26.705 35.8809 26.5898 35.8916C26.3579 35.9131 26.0692 35.9317 25.7686 35.9463C25.1655 35.9755 24.4838 35.9926 24.04 36H24.0293C23.4659 36 22.1286 35.9832 21.4092 35.9092C20.9564 35.8625 20.5884 35.7057 20.333 35.4424C20.0993 35.2012 19.9944 34.9009 20.001 34.6299H20V19.626C20 19.3987 20.0394 19.1657 20.1592 18.9658C20.2615 18.7953 20.4513 18.6163 20.7158 18.5723L21.5732 18.3584V15.3711C21.5733 15.2569 21.5815 15.1356 21.6123 15.0215C21.627 14.967 21.657 14.8773 21.7197 14.7852C21.7473 14.7446 21.8376 14.622 21.999 14.5459V12H28.7383V13.668ZM22.6689 15.1533H22.2861L22.2803 15.1553C22.2654 15.1662 22.2432 15.2187 22.2432 15.3711V18.8818L20.8408 19.2314C20.7841 19.2315 20.6699 19.311 20.6699 19.626V34.6299C20.6559 34.8049 20.7985 35.1732 21.4785 35.2432C21.9888 35.2956 22.8497 35.318 23.4873 35.3262L24.0293 35.3301C24.853 35.3164 26.5012 35.2665 26.9004 35.1738L26.9629 35.1553C27.2232 35.0405 27.3542 34.9253 27.4111 34.7227L27.4307 34.6299C27.4443 34.5445 27.4481 34.0454 27.4482 33.3896H22.0889V22.2822H27.4307V19.6689C27.4439 19.5458 27.4101 19.2919 27.1816 19.2031L27.1338 19.1885L25.9424 18.8818L25.9004 15.2402C25.9004 15.1637 25.8479 15.0873 25.7666 15.0693L25.7305 15.0654H25.5176V13.1074L28.0684 13.0195V12.6699H22.6689V15.1533ZM22.7588 32.7197H27.3857V22.9521H22.7588V32.7197Z" fill="#323429"/>
<circle cx="24" cy="24" r="23.5" stroke="#323429"/>
</g>
<defs>
<clipPath id="clip0_16021_14818">
<rect width="48" height="48" rx="24" fill="white"/>
</clipPath>
</defs>
</svg>
