<svg width="70" height="70" viewBox="0 0 70 70" fill="none" xmlns="http://www.w3.org/2000/svg">
<g clip-path="url(#clip0_15205_1303)">
<circle cx="34.9856" cy="34.9856" r="34.2356" stroke="#323429" stroke-width="1.5"/>
<path d="M35 19V36H25" stroke="#323429" stroke-width="1.5"/>
<path d="M35.0001 11L41.8217 16.3352L43.0313 7.75985L35.0001 11ZM59.0001 35H58.2501C58.2501 47.8406 47.8407 58.25 35.0001 58.25V59V59.75C48.6691 59.75 59.7501 48.669 59.7501 35H59.0001ZM41.6824 11.9426L41.4739 12.663C51.1652 15.4667 58.2501 24.407 58.2501 35H59.0001H59.7501C59.7501 23.7213 52.2063 14.2064 41.8908 11.2221L41.6824 11.9426ZM35.0001 59V58.25C22.4841 58.25 12.2777 48.3601 11.7699 35.9693L11.0205 36L10.2711 36.0307C10.8118 49.2221 21.6763 59.75 35.0001 59.75V59Z" fill="#323429"/>
</g>
<defs>
<clipPath id="clip0_15205_1303">
<rect width="70" height="70" rx="35" fill="white"/>
</clipPath>
</defs>
</svg>
