<svg width="48" height="48" viewBox="0 0 48 48" fill="none" xmlns="http://www.w3.org/2000/svg">
<g clip-path="url(#clip0_15937_1065)">
<path d="M23.9953 16.001V24.5047H18.9932" stroke="#323429" stroke-width="0.75032"/>
<path d="M23.9949 12L27.4072 14.6687L28.0122 10.3792L23.9949 12ZM36 24.0051H35.6248C35.6248 30.4282 30.4179 35.6351 23.9949 35.6351V36.0102V36.3854C30.8323 36.3854 36.3752 30.8426 36.3752 24.0051H36ZM27.3375 12.4715L27.2332 12.8319C32.0809 14.2343 35.6248 18.7063 35.6248 24.0051H36H36.3752C36.3752 18.3633 32.6017 13.6039 27.4417 12.1111L27.3375 12.4715ZM23.9949 36.0102V35.6351C17.7343 35.6351 12.6289 30.688 12.3748 24.49L12 24.5053L11.6252 24.5207C11.8956 31.1192 17.3302 36.3854 23.9949 36.3854V36.0102Z" fill="#323429"/>
<circle cx="24" cy="24" r="23.5" stroke="#323429"/>
</g>
<defs>
<clipPath id="clip0_15937_1065">
<rect width="48" height="48" rx="24" fill="white"/>
</clipPath>
</defs>
</svg>
