<svg width="70" height="70" viewBox="0 0 70 70" fill="none" xmlns="http://www.w3.org/2000/svg">
<g clip-path="url(#clip0_15205_1312)">
<circle cx="34.9994" cy="34.9994" r="34.2491" stroke="#323429" stroke-width="1.50059"/>
<mask id="path-3-inside-1_15205_1312" fill="white">
<path d="M45.124 17.007C51.7173 17.007 57.0623 22.6571 57.0625 29.6271C57.0625 33.7615 55.1816 37.4316 52.2754 39.7335L34.9756 58.0236L17.6445 39.7072C16.7568 38.999 15.966 38.1629 15.2959 37.2247L15.2764 37.2042H15.2803C13.7795 35.0941 12.8896 32.4703 12.8896 29.6271C12.8899 22.6571 18.2349 17.007 24.8281 17.007C29.1137 17.007 32.8698 19.3954 34.9756 22.9806C37.0813 19.3952 40.8383 17.007 45.124 17.007Z"/>
</mask>
<path d="M45.124 17.007V15.5063H45.124L45.124 17.007ZM57.0625 29.6271H58.5631V29.627L57.0625 29.6271ZM52.2754 39.7335L51.3437 38.5572L51.2592 38.6241L51.1852 38.7023L52.2754 39.7335ZM34.9756 58.0236L33.8856 59.0549L34.9758 60.2071L36.0658 59.0547L34.9756 58.0236ZM17.6445 39.7072L18.7345 38.6758L18.6624 38.5995L18.5803 38.5341L17.6445 39.7072ZM15.2959 37.2247L16.517 36.3525L16.4555 36.2664L16.3826 36.1898L15.2959 37.2247ZM15.2764 37.2042V35.7036H11.7749L14.1897 38.2391L15.2764 37.2042ZM15.2803 37.2042V38.7048H18.189L16.5032 36.3345L15.2803 37.2042ZM12.8896 29.6271L11.389 29.627V29.6271H12.8896ZM24.8281 17.007L24.8281 15.5063H24.8281V17.007ZM34.9756 22.9806L33.6817 23.7406L34.9757 25.9437L36.2695 23.7405L34.9756 22.9806ZM45.124 17.007V18.5076C50.8111 18.5076 55.5617 23.4063 55.5619 29.6271L57.0625 29.6271L58.5631 29.627C58.5629 21.908 52.6235 15.5063 45.124 15.5063V17.007ZM57.0625 29.6271H55.5619C55.5619 33.3024 53.8911 36.5394 51.3437 38.5572L52.2754 39.7335L53.2071 40.9098C56.4721 38.3237 58.5631 34.2206 58.5631 29.6271H57.0625ZM52.2754 39.7335L51.1852 38.7023L33.8854 56.9924L34.9756 58.0236L36.0658 59.0547L53.3656 40.7647L52.2754 39.7335ZM34.9756 58.0236L36.0656 56.9922L18.7345 38.6758L17.6445 39.7072L16.5545 40.7385L33.8856 59.0549L34.9756 58.0236ZM17.6445 39.7072L18.5803 38.5341C17.803 37.914 17.1078 37.1796 16.517 36.3525L15.2959 37.2247L14.0748 38.097C14.8243 39.1462 15.7106 40.084 16.7087 40.8802L17.6445 39.7072ZM15.2959 37.2247L16.3826 36.1898L16.363 36.1693L15.2764 37.2042L14.1897 38.2391L14.2092 38.2596L15.2959 37.2247ZM15.2764 37.2042V38.7048H15.2803V37.2042V35.7036H15.2764V37.2042ZM15.2803 37.2042L16.5032 36.3345C15.1806 34.4749 14.3903 32.1544 14.3903 29.6271H12.8896H11.389C11.389 32.7863 12.3785 35.7133 14.0574 38.0739L15.2803 37.2042ZM12.8896 29.6271L14.3903 29.6271C14.3905 23.4063 19.1411 18.5076 24.8281 18.5076V17.007V15.5063C17.3287 15.5063 11.3893 21.908 11.389 29.627L12.8896 29.6271ZM24.8281 17.007L24.8281 18.5076C28.5327 18.5076 31.8197 20.5705 33.6817 23.7406L34.9756 22.9806L36.2695 22.2206C33.9199 18.2204 29.6947 15.5064 24.8281 15.5063L24.8281 17.007ZM34.9756 22.9806L36.2695 23.7405C38.1314 20.5704 41.4191 18.5076 45.1241 18.5076L45.124 17.007L45.124 15.5063C40.2575 15.5064 36.0312 18.22 33.6816 22.2206L34.9756 22.9806Z" fill="#323429" mask="url(#path-3-inside-1_15205_1312)"/>
</g>
<defs>
<clipPath id="clip0_15205_1312">
<rect width="70" height="70" rx="35" fill="white"/>
</clipPath>
</defs>
</svg>
