<svg width="70" height="70" viewBox="0 0 70 70" fill="none" xmlns="http://www.w3.org/2000/svg">
<g clip-path="url(#clip0_15205_1301)">
<circle cx="34.9856" cy="34.9856" r="34.2356" stroke="#323429" stroke-width="1.5"/>
<path d="M14 37.5L21.5 41.8301V33.1699L14 37.5ZM31 69H31.75V45.5H31H30.25V69H31ZM23 37.5V36.75H20.75V37.5V38.25H23V37.5ZM31 45.5H31.75C31.75 40.6675 27.8325 36.75 23 36.75V37.5V38.25C27.0041 38.25 30.25 41.4959 30.25 45.5H31Z" fill="#323429"/>
<path d="M57 29L49.5 33.3301V24.6699L57 29ZM40 69H39.25V37H40H40.75V69H40ZM48 29V28.25H50.25V29V29.75H48V29ZM40 37H39.25C39.25 32.1675 43.1675 28.25 48 28.25V29V29.75C43.9959 29.75 40.75 32.9959 40.75 37H40Z" fill="#323429"/>
<path d="M35.5 10L31.1699 17.5H39.8301L35.5 10ZM35.5 69H36.25V16.75H35.5H34.75V69H35.5Z" fill="#323429"/>
</g>
<defs>
<clipPath id="clip0_15205_1301">
<rect width="70" height="70" rx="35" fill="white"/>
</clipPath>
</defs>
</svg>
