<svg width="70" height="70" viewBox="0 0 70 70" fill="none" xmlns="http://www.w3.org/2000/svg">
<g clip-path="url(#clip0_16021_14827)">
<circle cx="34.9856" cy="34.9856" r="34.2356" stroke="#323429" stroke-width="1.5"/>
<path d="M44.5635 11.7334L38.8516 11.9287V13.6631C39.3984 14.0245 39.702 14.6549 39.708 15.2363L39.79 22.2402L41.3428 22.6396C42.1689 22.8521 42.6687 23.419 42.9141 23.9727C43.1117 24.4188 43.1558 24.8686 43.1357 25.2129V48.8555L43.1592 51.6191C43.1666 52.6462 43.173 53.7328 43.1758 54.7383C43.1786 55.7431 43.178 56.6719 43.1719 57.3809C43.1688 57.7344 43.1646 58.0399 43.1582 58.2754C43.1533 58.4578 43.1455 58.7236 43.1162 58.9043C43.0341 59.4112 42.8433 59.9227 42.4375 60.3701C42.0635 60.7823 41.6016 61.0319 41.1934 61.2119C40.9254 61.33 40.6225 61.3808 40.4658 61.4053C40.2561 61.438 40.011 61.4653 39.7529 61.4893C39.2337 61.5374 38.5882 61.5777 37.915 61.6104C36.5647 61.6758 35.0387 61.715 34.0449 61.7314H34.0205C32.7594 61.7314 29.766 61.694 28.1553 61.5283C27.1406 61.4239 26.3162 61.0727 25.7441 60.4824C25.2209 59.9425 24.9873 59.2717 25.002 58.665H25V25.0723C25 24.5632 25.0879 24.0423 25.3564 23.5947C25.5856 23.2129 26.0095 22.8124 26.6016 22.7139L28.5225 22.2354V15.5479C28.5225 15.292 28.5404 15.0202 28.6094 14.7646C28.6423 14.6427 28.7082 14.4417 28.8486 14.2354C28.9101 14.145 29.1127 13.8698 29.4746 13.6992V8H44.5635V11.7334ZM30.9746 15.0586H30.1172L30.1045 15.0635C30.0711 15.0876 30.0225 15.2051 30.0225 15.5479V23.4072L26.8809 24.1904C26.7539 24.1905 26.5 24.3672 26.5 25.0723V58.665C26.4685 59.0569 26.7862 59.8795 28.3086 60.0361C29.4509 60.1537 31.3788 60.2043 32.8066 60.2227L34.0205 60.2314C35.8647 60.2008 39.5544 60.0902 40.4482 59.8828L40.5889 59.8398C41.1716 59.5828 41.4633 59.3258 41.5908 58.8721L41.6357 58.665C41.6663 58.4765 41.6735 57.3575 41.6738 55.8867H29.6768V31.0186H41.6357V25.1699C41.6655 24.8944 41.5891 24.3258 41.0771 24.127L40.9697 24.0928L38.3037 23.4072L38.209 15.2539C38.2089 15.0826 38.0922 14.9114 37.9102 14.8711L37.8281 14.8623H37.3516V10.4795L43.0635 10.2832V9.5H30.9746V15.0586ZM31.1768 54.3867H41.5352V32.5186H31.1768V54.3867Z" fill="#323429"/>
</g>
<defs>
<clipPath id="clip0_16021_14827">
<rect width="70" height="70" rx="35" fill="white"/>
</clipPath>
</defs>
</svg>
