<svg width="48" height="48" viewBox="0 0 48 48" fill="none" xmlns="http://www.w3.org/2000/svg">
<g clip-path="url(#clip0_15943_602)">
<path d="M15.6035 19.6H16.5035V28H15.6035V20.74L13.9955 22.12V20.98L15.6035 19.6ZM19.2973 24.448H18.3973V19.6H22.8133V20.464H19.2973V23.152C19.6573 22.84 20.2093 22.672 20.7133 22.672C21.8653 22.672 23.1373 23.272 23.1373 25.096V25.696C23.1373 27.52 21.8653 28.12 20.7133 28.12C19.5613 28.12 18.2893 27.52 18.2893 25.696V25.6H19.1893V25.708C19.1893 26.74 19.9093 27.256 20.7133 27.256C21.5173 27.256 22.2373 26.74 22.2373 25.708V25.084C22.2373 24.052 21.5173 23.536 20.7133 23.536C20.1013 23.536 19.5253 23.836 19.2973 24.448ZM30.9904 19.6H31.8424L26.0704 28H25.2184L30.9904 19.6ZM25.8184 23.788C26.2744 23.788 26.5624 23.548 26.5624 23.008V21.064C26.5624 20.524 26.2744 20.284 25.8184 20.284C25.3744 20.284 25.0864 20.524 25.0864 21.064V23.008C25.0864 23.548 25.3744 23.788 25.8184 23.788ZM25.8184 24.544C25.2064 24.544 24.3064 24.244 24.3064 23.032V21.04C24.3064 19.828 25.2064 19.528 25.8184 19.528C26.4424 19.528 27.3424 19.828 27.3424 21.04V23.032C27.3424 24.244 26.4424 24.544 25.8184 24.544ZM31.2304 27.316C31.6864 27.316 31.9744 27.076 31.9744 26.536V24.592C31.9744 24.052 31.6864 23.812 31.2304 23.812C30.7864 23.812 30.4984 24.052 30.4984 24.592V26.536C30.4984 27.076 30.7864 27.316 31.2304 27.316ZM31.2304 28.072C30.6184 28.072 29.7184 27.772 29.7184 26.56V24.568C29.7184 23.356 30.6184 23.056 31.2304 23.056C31.8544 23.056 32.7544 23.356 32.7544 24.568V26.56C32.7544 27.772 31.8544 28.072 31.2304 28.072Z" fill="#323429"/>
<circle cx="24" cy="24" r="23.5" stroke="#323429"/>
</g>
<defs>
<clipPath id="clip0_15943_602">
<rect width="48" height="48" rx="24" fill="white"/>
</clipPath>
</defs>
</svg>
