<svg width="24" height="25" viewBox="0 0 24 25" fill="none" xmlns="http://www.w3.org/2000/svg">
<path d="M3.01465 11.201L6.06547 12.9624V9.43966L3.01465 11.201ZM9.92985 24.0145H10.2349V14.4553H9.92985H9.62476V24.0145H9.92985ZM6.67564 11.201V10.896H5.76039V11.201V11.5061H6.67564V11.201ZM9.92985 14.4553H10.2349C10.2349 12.4895 8.64138 10.896 6.67564 10.896V11.201V11.5061C8.30439 11.5061 9.62476 12.8265 9.62476 14.4553H9.92985Z" fill="#323429"/>
<path d="M20.5059 7.74341L17.455 9.5048V5.98201L20.5059 7.74341ZM13.5907 24.0145H13.2856V10.9976H13.5907H13.8957V24.0145H13.5907ZM16.8449 7.74341V7.43833H17.7601V7.74341V8.04849H16.8449V7.74341ZM13.5907 10.9976H13.2856C13.2856 9.03188 14.8791 7.43833 16.8449 7.43833V7.74341V8.04849C15.2161 8.04849 13.8957 9.36886 13.8957 10.9976H13.5907Z" fill="#323429"/>
<path d="M11.7607 0.0145264L9.99935 3.06535H13.5221L11.7607 0.0145264ZM11.7607 24.0143H12.0658V2.76027H11.7607H11.4557V24.0143H11.7607Z" fill="#323429"/>
</svg>
