<svg width="48" height="48" viewBox="0 0 48 48" fill="none" xmlns="http://www.w3.org/2000/svg">
<g clip-path="url(#clip0_18556_4393)">
<mask id="path-2-outside-1_18556_4393" maskUnits="userSpaceOnUse" x="19" y="11" width="11" height="26" fill="black">
<rect fill="white" x="19" y="11" width="11" height="26"/>
<path d="M23.1791 14.8889V12.8247H23.1389L23.1213 12.8113V12.6747C23.1213 12.6747 22.9802 12.6363 22.9503 12.6299C22.9204 12.6234 22.8393 12.5882 22.8039 12.555C22.7685 12.5218 22.7616 12.4551 22.7756 12.4135C22.7895 12.3719 22.848 12.2318 22.9044 12.1919C22.9608 12.152 23.0684 12.157 23.1353 12.1704C23.2022 12.1838 23.6007 12.2321 23.7702 12.2303C23.9397 12.2286 24.4948 12.1887 24.7312 12.1188C24.9676 12.0489 25.6448 12.0135 25.8439 12.0036C26.043 11.9937 26.8102 12.0053 27.0747 12.0269C27.3391 12.0484 27.7466 12.1017 27.9775 12.1518C28.2083 12.2018 28.7181 12.3384 28.7816 12.355C28.8451 12.3716 28.9049 12.3867 28.9298 12.4432C28.9548 12.4997 28.9351 12.5481 28.9298 12.5597C28.9246 12.5714 28.6882 12.7813 28.6882 12.7813C28.6882 12.7813 28.5347 12.9429 28.5082 12.9461C28.4817 12.9493 28.3902 12.9411 28.3442 12.926C28.2983 12.9109 28.0357 12.8328 27.9423 12.8095C27.8489 12.7862 27.5755 12.7295 27.4291 12.7111C27.2827 12.6928 26.8524 12.6561 26.5686 12.6512C26.2847 12.6462 25.7222 12.695 25.453 12.7228C25.1838 12.7505 25.1405 12.7657 25.1405 12.7657V14.8641C25.1405 14.8641 25.3171 14.8866 25.3724 14.8995C25.4278 14.9124 25.5159 14.9374 25.5671 14.9706C25.6183 15.0039 25.6781 15.0586 25.697 15.0812C25.7159 15.1037 25.7432 15.1434 25.7432 15.1434C25.7432 15.1434 26.0165 15.1895 26.1343 15.2296C26.2521 15.2698 26.3684 15.3377 26.4069 15.3959C26.4455 15.4542 26.4736 15.4628 26.477 15.6695C26.4804 15.8762 26.4796 15.8923 26.4796 15.8923L26.5234 18.0579C26.5234 18.0579 26.5208 18.0775 26.5148 18.0842C26.5087 18.0909 26.4733 18.1211 26.4437 18.1318C26.414 18.1424 26.345 18.1506 26.3206 18.1523C26.2962 18.1541 26.2679 18.1523 26.2679 18.1523V18.3357L26.6777 18.3808L27.389 18.474C27.389 18.474 28.0284 18.5707 28.1131 18.5942C28.1978 18.6178 28.3046 18.6614 28.3852 18.7382C28.4657 18.8151 28.477 18.9216 28.483 18.9771C28.4891 19.0327 28.4909 19.3529 28.4909 19.3529L28.4969 20.2505L28.5014 22.6196L28.5066 24.1016L28.5135 27.518V32.5171L28.5195 32.949C28.5195 32.949 28.5203 33.0774 28.5161 33.1208C28.5119 33.1642 28.4849 33.4261 28.4702 33.493C28.4555 33.56 28.3739 33.8792 28.3403 33.9652C28.3067 34.0512 28.1758 34.3587 28.1758 34.3587C28.1758 34.3587 28.0042 34.6861 27.9654 34.7359C27.9266 34.7858 27.7686 35.0403 27.7038 35.1156C27.639 35.191 27.4769 35.3751 27.4769 35.3751C27.4769 35.3751 27.3738 35.4928 27.2759 35.5739C27.178 35.6549 27.1486 35.6745 27.1486 35.6745C27.1486 35.6745 27.0421 35.7416 26.9928 35.7694C26.9435 35.7972 26.7798 35.8651 26.7798 35.8651C26.7798 35.8651 26.6074 35.9166 26.5121 35.9273C26.4169 35.9379 26.1603 35.956 26.1223 35.956C26.0842 35.956 25.7332 35.9692 25.7332 35.9692C25.7332 35.9692 24.7994 36.0021 24.4313 35.9999C24.0632 35.9977 23.5561 35.9853 23.2318 35.9731C22.9075 35.961 22.181 35.9213 21.9772 35.8916C21.7733 35.8618 21.6765 35.8348 21.5954 35.7905C21.5144 35.7461 21.4278 35.6884 21.3879 35.6601C21.348 35.6319 21.2402 35.5469 21.2103 35.524C21.1804 35.5012 21.104 35.4331 21.0867 35.4167C21.0694 35.4004 21.0009 35.33 20.9705 35.2983C20.9401 35.2665 20.8724 35.1949 20.8333 35.1486C20.7942 35.1022 20.7034 34.9855 20.6787 34.9525C20.6541 34.9196 20.5738 34.8076 20.547 34.7677C20.5203 34.7278 20.503 34.7 20.4248 34.5558C20.3466 34.4115 20.282 34.272 20.2658 34.2346C20.2495 34.1971 20.1774 34.0182 20.1524 33.9339C20.1275 33.8497 20.0861 33.7337 20.0711 33.639C20.0561 33.5443 20.0328 33.4839 20.0202 33.3317C20.0076 33.1795 20.0045 33.0065 20.0021 32.9121C19.9997 32.8177 20.0021 32.0977 20.0021 32.0977L20.001 30.5904V19.4032C20.001 19.4032 19.9987 19.0914 20.001 19.0503C20.0034 19.0091 20.01 18.9521 20.0349 18.8864C20.0598 18.8208 20.1055 18.7779 20.1314 18.7551C20.1574 18.7323 20.2427 18.6604 20.3038 18.6386C20.3649 18.6168 20.5922 18.5667 20.6535 18.5536C20.7149 18.5405 21.0718 18.4862 21.1673 18.4713C21.2628 18.4564 21.6773 18.4056 21.7413 18.395C21.8053 18.3843 22.0373 18.359 22.0937 18.3546C22.1501 18.3501 22.2012 18.3432 22.2012 18.3432V18.2012C22.2012 18.2012 22.0984 18.1925 22.0677 18.1898C22.037 18.187 21.9591 18.1652 21.9313 18.1434C21.9035 18.1216 21.9035 18.1085 21.9035 18.1085V15.5907C21.9035 15.5907 21.9063 15.5697 21.9071 15.56C21.9079 15.5503 21.9247 15.5127 21.9433 15.4812C21.962 15.4497 22.0139 15.3962 22.0341 15.3751C22.0543 15.354 22.1278 15.3077 22.2057 15.2832C22.2836 15.2586 22.4486 15.214 22.4654 15.213C22.4822 15.212 22.5415 15.2009 22.547 15.1982C22.5525 15.1954 22.6777 15.0519 22.6992 15.0291C22.7207 15.0063 22.7965 14.9607 22.8419 14.9493C22.8873 14.9379 23.0274 14.903 23.0794 14.8968C23.1313 14.8906 23.1791 14.8889 23.1791 14.8889Z"/>
</mask>
<path d="M23.1791 14.8889V12.8247H23.1389L23.1213 12.8113V12.6747C23.1213 12.6747 22.9802 12.6363 22.9503 12.6299C22.9204 12.6234 22.8393 12.5882 22.8039 12.555C22.7685 12.5218 22.7616 12.4551 22.7756 12.4135C22.7895 12.3719 22.848 12.2318 22.9044 12.1919C22.9608 12.152 23.0684 12.157 23.1353 12.1704C23.2022 12.1838 23.6007 12.2321 23.7702 12.2303C23.9397 12.2286 24.4948 12.1887 24.7312 12.1188C24.9676 12.0489 25.6448 12.0135 25.8439 12.0036C26.043 11.9937 26.8102 12.0053 27.0747 12.0269C27.3391 12.0484 27.7466 12.1017 27.9775 12.1518C28.2083 12.2018 28.7181 12.3384 28.7816 12.355C28.8451 12.3716 28.9049 12.3867 28.9298 12.4432C28.9548 12.4997 28.9351 12.5481 28.9298 12.5597C28.9246 12.5714 28.6882 12.7813 28.6882 12.7813C28.6882 12.7813 28.5347 12.9429 28.5082 12.9461C28.4817 12.9493 28.3902 12.9411 28.3442 12.926C28.2983 12.9109 28.0357 12.8328 27.9423 12.8095C27.8489 12.7862 27.5755 12.7295 27.4291 12.7111C27.2827 12.6928 26.8524 12.6561 26.5686 12.6512C26.2847 12.6462 25.7222 12.695 25.453 12.7228C25.1838 12.7505 25.1405 12.7657 25.1405 12.7657V14.8641C25.1405 14.8641 25.3171 14.8866 25.3724 14.8995C25.4278 14.9124 25.5159 14.9374 25.5671 14.9706C25.6183 15.0039 25.6781 15.0586 25.697 15.0812C25.7159 15.1037 25.7432 15.1434 25.7432 15.1434C25.7432 15.1434 26.0165 15.1895 26.1343 15.2296C26.2521 15.2698 26.3684 15.3377 26.4069 15.3959C26.4455 15.4542 26.4736 15.4628 26.477 15.6695C26.4804 15.8762 26.4796 15.8923 26.4796 15.8923L26.5234 18.0579C26.5234 18.0579 26.5208 18.0775 26.5148 18.0842C26.5087 18.0909 26.4733 18.1211 26.4437 18.1318C26.414 18.1424 26.345 18.1506 26.3206 18.1523C26.2962 18.1541 26.2679 18.1523 26.2679 18.1523V18.3357L26.6777 18.3808L27.389 18.474C27.389 18.474 28.0284 18.5707 28.1131 18.5942C28.1978 18.6178 28.3046 18.6614 28.3852 18.7382C28.4657 18.8151 28.477 18.9216 28.483 18.9771C28.4891 19.0327 28.4909 19.3529 28.4909 19.3529L28.4969 20.2505L28.5014 22.6196L28.5066 24.1016L28.5135 27.518V32.5171L28.5195 32.949C28.5195 32.949 28.5203 33.0774 28.5161 33.1208C28.5119 33.1642 28.4849 33.4261 28.4702 33.493C28.4555 33.56 28.3739 33.8792 28.3403 33.9652C28.3067 34.0512 28.1758 34.3587 28.1758 34.3587C28.1758 34.3587 28.0042 34.6861 27.9654 34.7359C27.9266 34.7858 27.7686 35.0403 27.7038 35.1156C27.639 35.191 27.4769 35.3751 27.4769 35.3751C27.4769 35.3751 27.3738 35.4928 27.2759 35.5739C27.178 35.6549 27.1486 35.6745 27.1486 35.6745C27.1486 35.6745 27.0421 35.7416 26.9928 35.7694C26.9435 35.7972 26.7798 35.8651 26.7798 35.8651C26.7798 35.8651 26.6074 35.9166 26.5121 35.9273C26.4169 35.9379 26.1603 35.956 26.1223 35.956C26.0842 35.956 25.7332 35.9692 25.7332 35.9692C25.7332 35.9692 24.7994 36.0021 24.4313 35.9999C24.0632 35.9977 23.5561 35.9853 23.2318 35.9731C22.9075 35.961 22.181 35.9213 21.9772 35.8916C21.7733 35.8618 21.6765 35.8348 21.5954 35.7905C21.5144 35.7461 21.4278 35.6884 21.3879 35.6601C21.348 35.6319 21.2402 35.5469 21.2103 35.524C21.1804 35.5012 21.104 35.4331 21.0867 35.4167C21.0694 35.4004 21.0009 35.33 20.9705 35.2983C20.9401 35.2665 20.8724 35.1949 20.8333 35.1486C20.7942 35.1022 20.7034 34.9855 20.6787 34.9525C20.6541 34.9196 20.5738 34.8076 20.547 34.7677C20.5203 34.7278 20.503 34.7 20.4248 34.5558C20.3466 34.4115 20.282 34.272 20.2658 34.2346C20.2495 34.1971 20.1774 34.0182 20.1524 33.9339C20.1275 33.8497 20.0861 33.7337 20.0711 33.639C20.0561 33.5443 20.0328 33.4839 20.0202 33.3317C20.0076 33.1795 20.0045 33.0065 20.0021 32.9121C19.9997 32.8177 20.0021 32.0977 20.0021 32.0977L20.001 30.5904V19.4032C20.001 19.4032 19.9987 19.0914 20.001 19.0503C20.0034 19.0091 20.01 18.9521 20.0349 18.8864C20.0598 18.8208 20.1055 18.7779 20.1314 18.7551C20.1574 18.7323 20.2427 18.6604 20.3038 18.6386C20.3649 18.6168 20.5922 18.5667 20.6535 18.5536C20.7149 18.5405 21.0718 18.4862 21.1673 18.4713C21.2628 18.4564 21.6773 18.4056 21.7413 18.395C21.8053 18.3843 22.0373 18.359 22.0937 18.3546C22.1501 18.3501 22.2012 18.3432 22.2012 18.3432V18.2012C22.2012 18.2012 22.0984 18.1925 22.0677 18.1898C22.037 18.187 21.9591 18.1652 21.9313 18.1434C21.9035 18.1216 21.9035 18.1085 21.9035 18.1085V15.5907C21.9035 15.5907 21.9063 15.5697 21.9071 15.56C21.9079 15.5503 21.9247 15.5127 21.9433 15.4812C21.962 15.4497 22.0139 15.3962 22.0341 15.3751C22.0543 15.354 22.1278 15.3077 22.2057 15.2832C22.2836 15.2586 22.4486 15.214 22.4654 15.213C22.4822 15.212 22.5415 15.2009 22.547 15.1982C22.5525 15.1954 22.6777 15.0519 22.6992 15.0291C22.7207 15.0063 22.7965 14.9607 22.8419 14.9493C22.8873 14.9379 23.0274 14.903 23.0794 14.8968C23.1313 14.8906 23.1791 14.8889 23.1791 14.8889Z" stroke="#323429" stroke-width="1.3" stroke-miterlimit="10" stroke-linejoin="bevel" mask="url(#path-2-outside-1_18556_4393)"/>
<path d="M28.5957 20.8966V32.6749H21.1025V20.8966H28.5957Z" stroke="#323429" stroke-width="0.65"/>
<circle cx="24" cy="24" r="23.5" stroke="#323429"/>
</g>
<defs>
<clipPath id="clip0_18556_4393">
<rect width="48" height="48" rx="24" fill="white"/>
</clipPath>
</defs>
</svg>
