<svg width="70" height="70" viewBox="0 0 70 70" fill="none" xmlns="http://www.w3.org/2000/svg">
<g clip-path="url(#clip0_15205_1304)">
<circle cx="34.9856" cy="34.9856" r="34.2356" stroke="#323429" stroke-width="1.5"/>
<path d="M19.9506 26.9H21.6756V43H19.9506V29.085L16.8686 31.73V29.545L19.9506 26.9ZM27.0305 36.192H25.3055V26.9H33.7695V28.556H27.0305V33.708C27.7205 33.11 28.7785 32.788 29.7445 32.788C31.9525 32.788 34.3905 33.938 34.3905 37.434V38.584C34.3905 42.08 31.9525 43.23 29.7445 43.23C27.5365 43.23 25.0985 42.08 25.0985 38.584V38.4H26.8235V38.607C26.8235 40.585 28.2035 41.574 29.7445 41.574C31.2855 41.574 32.6655 40.585 32.6655 38.607V37.411C32.6655 35.433 31.2855 34.444 29.7445 34.444C28.5715 34.444 27.4675 35.019 27.0305 36.192ZM49.271 26.9H50.904L39.841 43H38.208L49.271 26.9ZM39.358 34.927C40.232 34.927 40.784 34.467 40.784 33.432V29.706C40.784 28.671 40.232 28.211 39.358 28.211C38.507 28.211 37.955 28.671 37.955 29.706V33.432C37.955 34.467 38.507 34.927 39.358 34.927ZM39.358 36.376C38.185 36.376 36.46 35.801 36.46 33.478V29.66C36.46 27.337 38.185 26.762 39.358 26.762C40.554 26.762 42.279 27.337 42.279 29.66V33.478C42.279 35.801 40.554 36.376 39.358 36.376ZM49.731 41.689C50.605 41.689 51.157 41.229 51.157 40.194V36.468C51.157 35.433 50.605 34.973 49.731 34.973C48.88 34.973 48.328 35.433 48.328 36.468V40.194C48.328 41.229 48.88 41.689 49.731 41.689ZM49.731 43.138C48.558 43.138 46.833 42.563 46.833 40.24V36.422C46.833 34.099 48.558 33.524 49.731 33.524C50.927 33.524 52.652 34.099 52.652 36.422V40.24C52.652 42.563 50.927 43.138 49.731 43.138Z" fill="#323429"/>
</g>
<defs>
<clipPath id="clip0_15205_1304">
<rect width="70" height="70" rx="35" fill="white"/>
</clipPath>
</defs>
</svg>
