<svg width="48" height="48" viewBox="0 0 48 48" fill="none" xmlns="http://www.w3.org/2000/svg">
<g clip-path="url(#clip0_15943_517)">
<path d="M15.0146 23.201L18.0655 24.9624V21.4397L15.0146 23.201ZM21.9298 36.0145H22.2349V26.4553H21.9298H21.6248V36.0145H21.9298ZM18.6756 23.201V22.896H17.7604V23.201V23.5061H18.6756V23.201ZM21.9298 26.4553H22.2349C22.2349 24.4895 20.6414 22.896 18.6756 22.896V23.201V23.5061C20.3044 23.5061 21.6248 24.8265 21.6248 26.4553H21.9298Z" fill="#323429"/>
<path d="M32.5059 19.7434L29.455 21.5048V17.982L32.5059 19.7434ZM25.5907 36.0145H25.2856V22.9976H25.5907H25.8957V36.0145H25.5907ZM28.8449 19.7434V19.4383H29.7601V19.7434V20.0485H28.8449V19.7434ZM25.5907 22.9976H25.2856C25.2856 21.0319 26.8791 19.4383 28.8449 19.4383V19.7434V20.0485C27.2161 20.0485 25.8957 21.3689 25.8957 22.9976H25.5907Z" fill="#323429"/>
<path d="M23.7607 12.0145L21.9993 15.0653H25.5221L23.7607 12.0145ZM23.7607 36.0143H24.0658V14.7603H23.7607H23.4557V36.0143H23.7607Z" fill="#323429"/>
<circle cx="24" cy="24" r="23.5" stroke="#323429"/>
</g>
<defs>
<clipPath id="clip0_15943_517">
<rect width="48" height="48" rx="24" fill="white"/>
</clipPath>
</defs>
</svg>
