<svg width="70" height="70" viewBox="0 0 70 70" fill="none" xmlns="http://www.w3.org/2000/svg">
<g clip-path="url(#clip0_18556_4401)">
<circle cx="34.9856" cy="34.9856" r="34.2356" stroke="#323429" stroke-width="1.5"/>
<mask id="path-3-outside-1_18556_4401" maskUnits="userSpaceOnUse" x="23" y="6" width="24" height="57" fill="black">
<rect fill="white" x="23" y="6" width="24" height="57"/>
<path d="M32.0199 14.3796V9.8211H31.9312L31.8924 9.79155V9.48999C31.8924 9.48999 31.5807 9.40515 31.5147 9.39092C31.4486 9.37669 31.2696 9.29898 31.1914 9.22564C31.1132 9.1523 31.0981 9.00508 31.1288 8.91313C31.1595 8.82118 31.2887 8.51196 31.4133 8.42384C31.5379 8.33573 31.7754 8.34667 31.9231 8.37623C32.0708 8.40578 32.9509 8.51251 33.3251 8.50868C33.6994 8.50484 34.9253 8.41673 35.4472 8.26239C35.9692 8.10805 37.4645 8.02979 37.9042 8.00789C38.3439 7.986 40.0379 8.01173 40.6219 8.05934C41.2059 8.10696 42.1056 8.22463 42.6154 8.33518C43.1252 8.44574 44.2509 8.7473 44.3911 8.78397C44.5313 8.82064 44.6634 8.85402 44.7184 8.97881C44.7734 9.10359 44.73 9.21031 44.7184 9.23604C44.7068 9.26176 44.1848 9.72532 44.1848 9.72532C44.1848 9.72532 43.8459 10.0822 43.7874 10.0893C43.7289 10.0964 43.5267 10.0783 43.4253 10.0449C43.3239 10.0116 42.744 9.83916 42.5378 9.78772C42.3315 9.73627 41.7279 9.61094 41.4046 9.57044C41.0813 9.52994 40.1312 9.44894 39.5044 9.43799C38.8775 9.42705 37.6354 9.53486 37.041 9.59616C36.4466 9.65746 36.351 9.69085 36.351 9.69085V14.3248C36.351 14.3248 36.7409 14.3746 36.8631 14.4031C36.9854 14.4316 37.18 14.4868 37.293 14.5602C37.406 14.6335 37.5381 14.7545 37.5798 14.8043C37.6215 14.8541 37.6817 14.9416 37.6817 14.9416C37.6817 14.9416 38.2854 15.0434 38.5455 15.1321C38.8057 15.2208 39.0623 15.3707 39.1475 15.4993C39.2326 15.628 39.2946 15.6471 39.3022 16.1036C39.3097 16.56 39.308 16.5956 39.308 16.5956L39.4047 21.3779C39.4047 21.3779 39.3989 21.4211 39.3856 21.4359C39.3723 21.4507 39.2941 21.5175 39.2286 21.541C39.1631 21.5645 39.0108 21.5826 38.9569 21.5864C38.903 21.5903 38.8404 21.5864 38.8404 21.5864V21.9914L39.7454 22.091L41.3159 22.2968C41.3159 22.2968 42.7278 22.5103 42.9149 22.5623C43.1021 22.6143 43.3378 22.7106 43.5157 22.8803C43.6936 23.0499 43.7185 23.2853 43.7318 23.4078C43.7451 23.5304 43.7492 24.2376 43.7492 24.2376L43.7625 26.2199L43.7723 31.4515L43.7839 34.7244L43.799 42.2689V53.3085L43.8123 54.2625C43.8123 54.2625 43.8141 54.546 43.8048 54.6418C43.7955 54.7375 43.7358 55.316 43.7034 55.4638C43.671 55.6116 43.4908 56.3165 43.4166 56.5064C43.3425 56.6963 43.0534 57.3755 43.0534 57.3755C43.0534 57.3755 42.6745 58.0985 42.5888 58.2085C42.503 58.3185 42.1543 58.8806 42.0112 59.047C41.8681 59.2134 41.51 59.62 41.51 59.62C41.51 59.62 41.2823 59.88 41.0663 60.0589C40.8502 60.2379 40.7853 60.2812 40.7853 60.2812C40.7853 60.2812 40.5501 60.4295 40.4411 60.4908C40.3322 60.5521 39.9707 60.702 39.9707 60.702C39.9707 60.702 39.5901 60.8159 39.3798 60.8394C39.1695 60.8629 38.6029 60.9029 38.5189 60.9029C38.4349 60.9029 37.6597 60.9319 37.6597 60.9319C37.6597 60.9319 35.5979 61.0047 34.785 60.9998C33.9722 60.9948 32.8524 60.9675 32.1363 60.9406C31.4202 60.9138 29.8161 60.8263 29.3659 60.7606C28.9158 60.6949 28.702 60.6353 28.523 60.5373C28.3439 60.4393 28.1528 60.3118 28.0647 60.2494C27.9766 60.187 27.7385 59.9993 27.6725 59.9489C27.6065 59.8986 27.4379 59.7481 27.3996 59.712C27.3614 59.6758 27.2102 59.5204 27.143 59.4503C27.0758 59.3803 26.9263 59.2221 26.84 59.1198C26.7537 59.0174 26.5532 58.7597 26.4988 58.6869C26.4443 58.6141 26.267 58.3667 26.2079 58.2786C26.1488 58.1905 26.1106 58.1292 25.938 57.8106C25.7653 57.4921 25.6228 57.184 25.5869 57.1013C25.551 57.0187 25.3916 56.6235 25.3366 56.4375C25.2816 56.2514 25.19 55.9952 25.157 55.7862C25.124 55.5771 25.0724 55.4436 25.0446 55.1075C25.0168 54.7715 25.0098 54.3895 25.0046 54.1809C24.9994 53.9724 25.0046 52.3825 25.0046 52.3825L25.0023 49.0538V24.3487C25.0023 24.3487 24.9971 23.6602 25.0023 23.5693C25.0075 23.4784 25.022 23.3526 25.0771 23.2075C25.1321 23.0625 25.2329 22.9678 25.2902 22.9175C25.3476 22.8671 25.5359 22.7084 25.6709 22.6602C25.8059 22.6121 26.3076 22.5015 26.4431 22.4725C26.5787 22.4435 27.3666 22.3236 27.5775 22.2908C27.7884 22.258 28.7037 22.1458 28.8451 22.1222C28.9864 22.0987 29.4986 22.0429 29.6231 22.033C29.7477 22.0232 29.8607 22.0079 29.8607 22.0079V21.6942C29.8607 21.6942 29.6336 21.6751 29.5658 21.6691C29.498 21.6631 29.3259 21.6149 29.2645 21.5667C29.2031 21.5186 29.2031 21.4896 29.2031 21.4896V15.9295C29.2031 15.9295 29.2095 15.883 29.2112 15.8617C29.213 15.8403 29.25 15.7571 29.2912 15.6876C29.3323 15.6181 29.447 15.4999 29.4916 15.4534C29.5362 15.4069 29.6984 15.3045 29.8705 15.2503C30.0426 15.1961 30.407 15.0976 30.4441 15.0954C30.4811 15.0933 30.6121 15.0686 30.6242 15.0626C30.6364 15.0566 30.9127 14.7397 30.9602 14.6893C31.0078 14.639 31.1752 14.5383 31.2754 14.5131C31.3756 14.4879 31.685 14.4108 31.7997 14.3971C31.9144 14.3834 32.0199 14.3796 32.0199 14.3796Z"/>
</mask>
<path d="M32.0199 14.3796V9.8211H31.9312L31.8924 9.79155V9.48999C31.8924 9.48999 31.5807 9.40515 31.5147 9.39092C31.4486 9.37669 31.2696 9.29898 31.1914 9.22564C31.1132 9.1523 31.0981 9.00508 31.1288 8.91313C31.1595 8.82118 31.2887 8.51196 31.4133 8.42384C31.5379 8.33573 31.7754 8.34667 31.9231 8.37623C32.0708 8.40578 32.9509 8.51251 33.3251 8.50868C33.6994 8.50484 34.9253 8.41673 35.4472 8.26239C35.9692 8.10805 37.4645 8.02979 37.9042 8.00789C38.3439 7.986 40.0379 8.01173 40.6219 8.05934C41.2059 8.10696 42.1056 8.22463 42.6154 8.33518C43.1252 8.44574 44.2509 8.7473 44.3911 8.78397C44.5313 8.82064 44.6634 8.85402 44.7184 8.97881C44.7734 9.10359 44.73 9.21031 44.7184 9.23604C44.7068 9.26176 44.1848 9.72532 44.1848 9.72532C44.1848 9.72532 43.8459 10.0822 43.7874 10.0893C43.7289 10.0964 43.5267 10.0783 43.4253 10.0449C43.3239 10.0116 42.744 9.83916 42.5378 9.78772C42.3315 9.73627 41.7279 9.61094 41.4046 9.57044C41.0813 9.52994 40.1312 9.44894 39.5044 9.43799C38.8775 9.42705 37.6354 9.53486 37.041 9.59616C36.4466 9.65746 36.351 9.69085 36.351 9.69085V14.3248C36.351 14.3248 36.7409 14.3746 36.8631 14.4031C36.9854 14.4316 37.18 14.4868 37.293 14.5602C37.406 14.6335 37.5381 14.7545 37.5798 14.8043C37.6215 14.8541 37.6817 14.9416 37.6817 14.9416C37.6817 14.9416 38.2854 15.0434 38.5455 15.1321C38.8057 15.2208 39.0623 15.3707 39.1475 15.4993C39.2326 15.628 39.2946 15.6471 39.3022 16.1036C39.3097 16.56 39.308 16.5956 39.308 16.5956L39.4047 21.3779C39.4047 21.3779 39.3989 21.4211 39.3856 21.4359C39.3723 21.4507 39.2941 21.5175 39.2286 21.541C39.1631 21.5645 39.0108 21.5826 38.9569 21.5864C38.903 21.5903 38.8404 21.5864 38.8404 21.5864V21.9914L39.7454 22.091L41.3159 22.2968C41.3159 22.2968 42.7278 22.5103 42.9149 22.5623C43.1021 22.6143 43.3378 22.7106 43.5157 22.8803C43.6936 23.0499 43.7185 23.2853 43.7318 23.4078C43.7451 23.5304 43.7492 24.2376 43.7492 24.2376L43.7625 26.2199L43.7723 31.4515L43.7839 34.7244L43.799 42.2689V53.3085L43.8123 54.2625C43.8123 54.2625 43.8141 54.546 43.8048 54.6418C43.7955 54.7375 43.7358 55.316 43.7034 55.4638C43.671 55.6116 43.4908 56.3165 43.4166 56.5064C43.3425 56.6963 43.0534 57.3755 43.0534 57.3755C43.0534 57.3755 42.6745 58.0985 42.5888 58.2085C42.503 58.3185 42.1543 58.8806 42.0112 59.047C41.8681 59.2134 41.51 59.62 41.51 59.62C41.51 59.62 41.2823 59.88 41.0663 60.0589C40.8502 60.2379 40.7853 60.2812 40.7853 60.2812C40.7853 60.2812 40.5501 60.4295 40.4411 60.4908C40.3322 60.5521 39.9707 60.702 39.9707 60.702C39.9707 60.702 39.5901 60.8159 39.3798 60.8394C39.1695 60.8629 38.6029 60.9029 38.5189 60.9029C38.4349 60.9029 37.6597 60.9319 37.6597 60.9319C37.6597 60.9319 35.5979 61.0047 34.785 60.9998C33.9722 60.9948 32.8524 60.9675 32.1363 60.9406C31.4202 60.9138 29.8161 60.8263 29.3659 60.7606C28.9158 60.6949 28.702 60.6353 28.523 60.5373C28.3439 60.4393 28.1528 60.3118 28.0647 60.2494C27.9766 60.187 27.7385 59.9993 27.6725 59.9489C27.6065 59.8986 27.4379 59.7481 27.3996 59.712C27.3614 59.6758 27.2102 59.5204 27.143 59.4503C27.0758 59.3803 26.9263 59.2221 26.84 59.1198C26.7537 59.0174 26.5532 58.7597 26.4988 58.6869C26.4443 58.6141 26.267 58.3667 26.2079 58.2786C26.1488 58.1905 26.1106 58.1292 25.938 57.8106C25.7653 57.4921 25.6228 57.184 25.5869 57.1013C25.551 57.0187 25.3916 56.6235 25.3366 56.4375C25.2816 56.2514 25.19 55.9952 25.157 55.7862C25.124 55.5771 25.0724 55.4436 25.0446 55.1075C25.0168 54.7715 25.0098 54.3895 25.0046 54.1809C24.9994 53.9724 25.0046 52.3825 25.0046 52.3825L25.0023 49.0538V24.3487C25.0023 24.3487 24.9971 23.6602 25.0023 23.5693C25.0075 23.4784 25.022 23.3526 25.0771 23.2075C25.1321 23.0625 25.2329 22.9678 25.2902 22.9175C25.3476 22.8671 25.5359 22.7084 25.6709 22.6602C25.8059 22.6121 26.3076 22.5015 26.4431 22.4725C26.5787 22.4435 27.3666 22.3236 27.5775 22.2908C27.7884 22.258 28.7037 22.1458 28.8451 22.1222C28.9864 22.0987 29.4986 22.0429 29.6231 22.033C29.7477 22.0232 29.8607 22.0079 29.8607 22.0079V21.6942C29.8607 21.6942 29.6336 21.6751 29.5658 21.6691C29.498 21.6631 29.3259 21.6149 29.2645 21.5667C29.2031 21.5186 29.2031 21.4896 29.2031 21.4896V15.9295C29.2031 15.9295 29.2095 15.883 29.2112 15.8617C29.213 15.8403 29.25 15.7571 29.2912 15.6876C29.3323 15.6181 29.447 15.4999 29.4916 15.4534C29.5362 15.4069 29.6984 15.3045 29.8705 15.2503C30.0426 15.1961 30.407 15.0976 30.4441 15.0954C30.4811 15.0933 30.6121 15.0686 30.6242 15.0626C30.6364 15.0566 30.9127 14.7397 30.9602 14.6893C31.0078 14.639 31.1752 14.5383 31.2754 14.5131C31.3756 14.4879 31.685 14.4108 31.7997 14.3971C31.9144 14.3834 32.0199 14.3796 32.0199 14.3796Z" stroke="#323429" stroke-width="3" stroke-miterlimit="10" stroke-linejoin="bevel" mask="url(#path-3-outside-1_18556_4401)"/>
<path d="M43.9482 27.6785V53.6248H27.4658V27.6785H43.9482Z" stroke="#323429" stroke-width="1.5"/>
</g>
<defs>
<clipPath id="clip0_18556_4401">
<rect width="70" height="70" rx="35" fill="white"/>
</clipPath>
</defs>
</svg>
