<svg width="25" height="26" viewBox="0 0 25 26" fill="none" xmlns="http://www.w3.org/2000/svg">
<path d="M12.3703 5.62183V14.1254H7.36816" stroke="#323429" stroke-width="0.75032"/>
<path d="M12.3699 1.62079L15.7822 4.28953L16.3872 2.18153e-05L12.3699 1.62079ZM24.375 13.6259H23.9998C23.9998 20.049 18.7929 25.2559 12.3699 25.2559V25.631V26.0062C19.2073 26.0062 24.7502 20.4633 24.7502 13.6259H24.375ZM15.7125 2.09227L15.6082 2.45265C20.4559 3.8551 23.9998 8.32712 23.9998 13.6259H24.375H24.7502C24.7502 7.98414 20.9767 3.22468 15.8167 1.73189L15.7125 2.09227ZM12.3699 25.631V25.2559C6.10925 25.2559 1.00388 20.3088 0.749845 14.1108L0.375 14.1261L0.000154853 14.1415C0.270602 20.74 5.70515 26.0062 12.3699 26.0062V25.631Z" fill="#323429"/>
</svg>
