<svg width="11" height="26" viewBox="0 0 11 26" fill="none" xmlns="http://www.w3.org/2000/svg">
<mask id="path-1-outside-1_18556_5634" maskUnits="userSpaceOnUse" x="-0.349609" y="-0.350098" width="11" height="26" fill="black">
<rect fill="white" x="-0.349609" y="-0.350098" width="11" height="26"/>
<path d="M3.82946 3.53877V1.47455H3.78932L3.77174 1.46117V1.32461C3.77174 1.32461 3.63059 1.2862 3.60068 1.27975C3.57077 1.27331 3.4897 1.23812 3.45428 1.20491C3.41886 1.1717 3.41204 1.10503 3.42594 1.0634C3.43985 1.02176 3.49836 0.881733 3.55476 0.841831C3.61117 0.80193 3.71874 0.806887 3.78565 0.82027C3.85255 0.833653 4.25108 0.881981 4.42057 0.880246C4.59005 0.878511 5.14522 0.83861 5.38161 0.76872C5.618 0.698831 6.29516 0.663391 6.49429 0.653477C6.69343 0.643564 7.46058 0.655212 7.72505 0.676774C7.98951 0.698335 8.39696 0.75162 8.62784 0.801682C8.85872 0.851745 9.3685 0.988302 9.43199 1.00491C9.49548 1.02151 9.5553 1.03663 9.58022 1.09314C9.60515 1.14964 9.58547 1.19797 9.58022 1.20962C9.57498 1.22127 9.33859 1.43118 9.33859 1.43118C9.33859 1.43118 9.1851 1.59277 9.15861 1.59599C9.13211 1.59921 9.04054 1.59103 8.99463 1.57592C8.94871 1.5608 8.68609 1.48273 8.59269 1.45943C8.49928 1.43614 8.2259 1.37938 8.0795 1.36104C7.9331 1.3427 7.50282 1.30603 7.21895 1.30107C6.93507 1.29611 6.37256 1.34494 6.10337 1.37269C5.83419 1.40045 5.7909 1.41557 5.7909 1.41557V3.51398C5.7909 3.51398 5.96747 3.53653 6.02283 3.54942C6.07818 3.56231 6.16634 3.58734 6.2175 3.62055C6.26866 3.65376 6.32848 3.70853 6.34737 3.73108C6.36626 3.75364 6.39355 3.79329 6.39355 3.79329C6.39355 3.79329 6.66693 3.83939 6.78473 3.87954C6.90253 3.91969 7.01876 3.98759 7.05733 4.04583C7.0959 4.10408 7.12397 4.11275 7.12738 4.31944C7.13079 4.52614 7.13 4.54225 7.13 4.54225L7.17382 6.70782C7.17382 6.70782 7.1712 6.7274 7.16516 6.73409C7.15913 6.74079 7.12371 6.77102 7.09406 6.78168C7.06441 6.79233 6.99541 6.80051 6.97101 6.80225C6.94661 6.80398 6.91828 6.80225 6.91828 6.80225V6.98565L7.32809 7.03075L8.03936 7.12394C8.03936 7.12394 8.67874 7.22059 8.76348 7.24414C8.84823 7.26768 8.95501 7.3113 9.03556 7.38813C9.1161 7.46496 9.12738 7.57153 9.13342 7.62704C9.13945 7.68256 9.14129 8.00276 9.14129 8.00276L9.14732 8.90041L9.15178 11.2695L9.15703 12.7515L9.16385 16.1679V21.167L9.16989 21.599C9.16989 21.599 9.17067 21.7273 9.16648 21.7707C9.16228 21.8141 9.13525 22.076 9.12056 22.1429C9.10587 22.2099 9.02427 22.5291 8.99069 22.6151C8.95711 22.7011 8.82619 23.0086 8.82619 23.0086C8.82619 23.0086 8.6546 23.336 8.61577 23.3858C8.57694 23.4357 8.419 23.6902 8.3542 23.7655C8.28939 23.8409 8.12725 24.025 8.12725 24.025C8.12725 24.025 8.02414 24.1427 7.92628 24.2238C7.82842 24.3048 7.79903 24.3244 7.79903 24.3244C7.79903 24.3244 7.69251 24.3916 7.64319 24.4193C7.59386 24.4471 7.43015 24.515 7.43015 24.515C7.43015 24.515 7.25778 24.5665 7.16254 24.5772C7.0673 24.5878 6.81071 24.6059 6.77266 24.6059C6.73462 24.6059 6.38358 24.6191 6.38358 24.6191C6.38358 24.6191 5.44982 24.652 5.08172 24.6498C4.71363 24.6476 4.20648 24.6352 3.8822 24.623C3.55791 24.6109 2.83143 24.5712 2.62757 24.5415C2.42371 24.5117 2.3269 24.4847 2.24583 24.4404C2.16476 24.396 2.07818 24.3383 2.0383 24.31C1.99842 24.2818 1.89059 24.1968 1.86068 24.174C1.83077 24.1511 1.75442 24.083 1.7371 24.0666C1.71979 24.0503 1.65131 23.9799 1.62088 23.9482C1.59044 23.9165 1.52275 23.8448 1.48366 23.7985C1.44457 23.7521 1.35379 23.6354 1.32913 23.6024C1.30446 23.5695 1.22418 23.4575 1.19742 23.4176C1.17066 23.3777 1.15334 23.3499 1.07516 23.2057C0.996974 23.0614 0.932432 22.9219 0.916166 22.8845C0.899899 22.847 0.827749 22.6681 0.802824 22.5838C0.7779 22.4996 0.736446 22.3836 0.721491 22.2889C0.706537 22.1943 0.683186 22.1338 0.670593 21.9816C0.657999 21.8294 0.654851 21.6564 0.65249 21.562C0.650128 21.4676 0.65249 20.7476 0.65249 20.7476L0.65144 19.2403V8.05307C0.65144 8.05307 0.649079 7.74129 0.65144 7.70015C0.653801 7.65901 0.66036 7.60201 0.685285 7.53633C0.71021 7.47066 0.755861 7.42778 0.781835 7.40498C0.807809 7.38218 0.893078 7.31031 0.954209 7.2885C1.01534 7.26669 1.24255 7.21663 1.30394 7.20349C1.36533 7.19036 1.72215 7.13608 1.81765 7.12121C1.91315 7.10634 2.32769 7.05554 2.3917 7.04488C2.45572 7.03422 2.68765 7.00894 2.74406 7.00448C2.80047 7.00002 2.85163 6.99308 2.85163 6.99308V6.85107C2.85163 6.85107 2.74878 6.8424 2.71808 6.83967C2.68739 6.83694 2.60947 6.81514 2.58165 6.79333C2.55384 6.77152 2.55384 6.75838 2.55384 6.75838V4.24063C2.55384 4.24063 2.55673 4.21957 2.55752 4.2099C2.5583 4.20023 2.5751 4.16256 2.59372 4.13109C2.61235 4.09961 2.6643 4.04608 2.6845 4.02502C2.7047 4.00395 2.77817 3.95761 2.85609 3.93307C2.93401 3.90853 3.09904 3.86392 3.11583 3.86293C3.13262 3.86194 3.19191 3.85079 3.19742 3.84806C3.20293 3.84534 3.32808 3.70184 3.3496 3.67904C3.37111 3.65624 3.44693 3.61064 3.49232 3.59924C3.53771 3.58784 3.67781 3.55289 3.72976 3.5467C3.78171 3.5405 3.82946 3.53877 3.82946 3.53877Z"/>
</mask>
<path d="M3.82946 3.53877V1.47455H3.78932L3.77174 1.46117V1.32461C3.77174 1.32461 3.63059 1.2862 3.60068 1.27975C3.57077 1.27331 3.4897 1.23812 3.45428 1.20491C3.41886 1.1717 3.41204 1.10503 3.42594 1.0634C3.43985 1.02176 3.49836 0.881733 3.55476 0.841831C3.61117 0.80193 3.71874 0.806887 3.78565 0.82027C3.85255 0.833653 4.25108 0.881981 4.42057 0.880246C4.59005 0.878511 5.14522 0.83861 5.38161 0.76872C5.618 0.698831 6.29516 0.663391 6.49429 0.653477C6.69343 0.643564 7.46058 0.655212 7.72505 0.676774C7.98951 0.698335 8.39696 0.75162 8.62784 0.801682C8.85872 0.851745 9.3685 0.988302 9.43199 1.00491C9.49548 1.02151 9.5553 1.03663 9.58022 1.09314C9.60515 1.14964 9.58547 1.19797 9.58022 1.20962C9.57498 1.22127 9.33859 1.43118 9.33859 1.43118C9.33859 1.43118 9.1851 1.59277 9.15861 1.59599C9.13211 1.59921 9.04054 1.59103 8.99463 1.57592C8.94871 1.5608 8.68609 1.48273 8.59269 1.45943C8.49928 1.43614 8.2259 1.37938 8.0795 1.36104C7.9331 1.3427 7.50282 1.30603 7.21895 1.30107C6.93507 1.29611 6.37256 1.34494 6.10337 1.37269C5.83419 1.40045 5.7909 1.41557 5.7909 1.41557V3.51398C5.7909 3.51398 5.96747 3.53653 6.02283 3.54942C6.07818 3.56231 6.16634 3.58734 6.2175 3.62055C6.26866 3.65376 6.32848 3.70853 6.34737 3.73108C6.36626 3.75364 6.39355 3.79329 6.39355 3.79329C6.39355 3.79329 6.66693 3.83939 6.78473 3.87954C6.90253 3.91969 7.01876 3.98759 7.05733 4.04583C7.0959 4.10408 7.12397 4.11275 7.12738 4.31944C7.13079 4.52614 7.13 4.54225 7.13 4.54225L7.17382 6.70782C7.17382 6.70782 7.1712 6.7274 7.16516 6.73409C7.15913 6.74079 7.12371 6.77102 7.09406 6.78168C7.06441 6.79233 6.99541 6.80051 6.97101 6.80225C6.94661 6.80398 6.91828 6.80225 6.91828 6.80225V6.98565L7.32809 7.03075L8.03936 7.12394C8.03936 7.12394 8.67874 7.22059 8.76348 7.24414C8.84823 7.26768 8.95501 7.3113 9.03556 7.38813C9.1161 7.46496 9.12738 7.57153 9.13342 7.62704C9.13945 7.68256 9.14129 8.00276 9.14129 8.00276L9.14732 8.90041L9.15178 11.2695L9.15703 12.7515L9.16385 16.1679V21.167L9.16989 21.599C9.16989 21.599 9.17067 21.7273 9.16648 21.7707C9.16228 21.8141 9.13525 22.076 9.12056 22.1429C9.10587 22.2099 9.02427 22.5291 8.99069 22.6151C8.95711 22.7011 8.82619 23.0086 8.82619 23.0086C8.82619 23.0086 8.6546 23.336 8.61577 23.3858C8.57694 23.4357 8.419 23.6902 8.3542 23.7655C8.28939 23.8409 8.12725 24.025 8.12725 24.025C8.12725 24.025 8.02414 24.1427 7.92628 24.2238C7.82842 24.3048 7.79903 24.3244 7.79903 24.3244C7.79903 24.3244 7.69251 24.3916 7.64319 24.4193C7.59386 24.4471 7.43015 24.515 7.43015 24.515C7.43015 24.515 7.25778 24.5665 7.16254 24.5772C7.0673 24.5878 6.81071 24.6059 6.77266 24.6059C6.73462 24.6059 6.38358 24.6191 6.38358 24.6191C6.38358 24.6191 5.44982 24.652 5.08172 24.6498C4.71363 24.6476 4.20648 24.6352 3.8822 24.623C3.55791 24.6109 2.83143 24.5712 2.62757 24.5415C2.42371 24.5117 2.3269 24.4847 2.24583 24.4404C2.16476 24.396 2.07818 24.3383 2.0383 24.31C1.99842 24.2818 1.89059 24.1968 1.86068 24.174C1.83077 24.1511 1.75442 24.083 1.7371 24.0666C1.71979 24.0503 1.65131 23.9799 1.62088 23.9482C1.59044 23.9165 1.52275 23.8448 1.48366 23.7985C1.44457 23.7521 1.35379 23.6354 1.32913 23.6024C1.30446 23.5695 1.22418 23.4575 1.19742 23.4176C1.17066 23.3777 1.15334 23.3499 1.07516 23.2057C0.996974 23.0614 0.932432 22.9219 0.916166 22.8845C0.899899 22.847 0.827749 22.6681 0.802824 22.5838C0.7779 22.4996 0.736446 22.3836 0.721491 22.2889C0.706537 22.1943 0.683186 22.1338 0.670593 21.9816C0.657999 21.8294 0.654851 21.6564 0.65249 21.562C0.650128 21.4676 0.65249 20.7476 0.65249 20.7476L0.65144 19.2403V8.05307C0.65144 8.05307 0.649079 7.74129 0.65144 7.70015C0.653801 7.65901 0.66036 7.60201 0.685285 7.53633C0.71021 7.47066 0.755861 7.42778 0.781835 7.40498C0.807809 7.38218 0.893078 7.31031 0.954209 7.2885C1.01534 7.26669 1.24255 7.21663 1.30394 7.20349C1.36533 7.19036 1.72215 7.13608 1.81765 7.12121C1.91315 7.10634 2.32769 7.05554 2.3917 7.04488C2.45572 7.03422 2.68765 7.00894 2.74406 7.00448C2.80047 7.00002 2.85163 6.99308 2.85163 6.99308V6.85107C2.85163 6.85107 2.74878 6.8424 2.71808 6.83967C2.68739 6.83694 2.60947 6.81514 2.58165 6.79333C2.55384 6.77152 2.55384 6.75838 2.55384 6.75838V4.24063C2.55384 4.24063 2.55673 4.21957 2.55752 4.2099C2.5583 4.20023 2.5751 4.16256 2.59372 4.13109C2.61235 4.09961 2.6643 4.04608 2.6845 4.02502C2.7047 4.00395 2.77817 3.95761 2.85609 3.93307C2.93401 3.90853 3.09904 3.86392 3.11583 3.86293C3.13262 3.86194 3.19191 3.85079 3.19742 3.84806C3.20293 3.84534 3.32808 3.70184 3.3496 3.67904C3.37111 3.65624 3.44693 3.61064 3.49232 3.59924C3.53771 3.58784 3.67781 3.55289 3.72976 3.5467C3.78171 3.5405 3.82946 3.53877 3.82946 3.53877Z" stroke="#323429" stroke-width="1.3" stroke-miterlimit="10" stroke-linejoin="bevel" mask="url(#path-1-outside-1_18556_5634)"/>
<path d="M9.24609 9.54651V21.3248H1.75293V9.54651H9.24609Z" stroke="#323429" stroke-width="0.65"/>
</svg>
