<svg width="9" height="24" viewBox="0 0 9 24" fill="none" xmlns="http://www.w3.org/2000/svg">
<path d="M8.73828 1.66797L6.1875 1.75488V2.5293C6.43172 2.69074 6.56762 2.97274 6.57031 3.23242L6.60645 6.36035L7.2998 6.53906C7.66883 6.63398 7.89237 6.88748 8.00195 7.13477C8.09012 7.33396 8.10956 7.53476 8.10059 7.68848V18.249L8.11133 19.4834C8.11465 19.942 8.1179 20.4271 8.11914 20.876C8.12038 21.3247 8.11992 21.74 8.11719 22.0566C8.11582 22.2144 8.11417 22.3509 8.11133 22.4561C8.10912 22.5375 8.10486 22.6566 8.0918 22.7373C8.05512 22.9636 7.97016 23.1918 7.78906 23.3916C7.62209 23.5757 7.41572 23.6872 7.2334 23.7676C7.11372 23.8203 6.97818 23.8436 6.9082 23.8545C6.81456 23.8691 6.70504 23.8809 6.58984 23.8916C6.35793 23.9131 6.06923 23.9317 5.76855 23.9463C5.16552 23.9755 4.48381 23.9926 4.04004 24H4.0293C3.46593 24 2.12858 23.9832 1.40918 23.9092C0.956351 23.8625 0.588417 23.7057 0.333008 23.4424C0.099297 23.2012 -0.00558134 22.9009 0.000976562 22.6299H0V7.62598C0 7.39871 0.0393583 7.16569 0.15918 6.96582C0.261548 6.79526 0.451349 6.6163 0.71582 6.57227L1.57324 6.3584V3.37109C1.57325 3.25691 1.58151 3.13556 1.6123 3.02148C1.62702 2.96702 1.65702 2.87732 1.71973 2.78516C1.74732 2.74464 1.83758 2.622 1.99902 2.5459V0H8.73828V1.66797ZM2.66895 3.15332H2.28613L2.28027 3.15527C2.26537 3.16625 2.24319 3.21865 2.24316 3.37109V6.88184L0.84082 7.23145C0.784122 7.23146 0.669922 7.31105 0.669922 7.62598V22.6299C0.655867 22.8049 0.798514 23.1732 1.47852 23.2432C1.9888 23.2956 2.8497 23.318 3.4873 23.3262L4.0293 23.3301C4.85305 23.3164 6.50116 23.2665 6.90039 23.1738L6.96289 23.1553C7.22318 23.0405 7.35416 22.9253 7.41113 22.7227L7.43066 22.6299C7.44425 22.5445 7.44808 22.0454 7.44824 21.3896H2.08887V10.2822H7.43066V7.66895C7.44387 7.54579 7.41006 7.29194 7.18164 7.20312L7.13379 7.18848L5.94238 6.88184L5.90039 3.24023C5.90037 3.16373 5.8479 3.08732 5.7666 3.06934L5.73047 3.06543H5.51758V1.10742L8.06836 1.01953V0.669922H2.66895V3.15332ZM2.75879 20.7197H7.38574V10.9521H2.75879V20.7197Z" fill="#323429"/>
</svg>
