<svg width="24" height="24" viewBox="0 0 24 24" fill="none" xmlns="http://www.w3.org/2000/svg">
<g clip-path="url(#clip0_15205_1299)">
<circle cx="12" cy="12" r="11.7428" stroke="#323429" stroke-width="0.514498"/>
<path d="M6.84295 8.73868H7.43463V14.261H6.84295V9.48813L5.78583 10.3954V9.64591L6.84295 8.73868ZM9.27134 11.9258H8.67966V8.73868H11.5828V9.30668H9.27134V11.0738C9.50801 10.8687 9.8709 10.7583 10.2022 10.7583C10.9596 10.7583 11.7958 11.1527 11.7958 12.3518V12.7463C11.7958 13.9454 10.9596 14.3398 10.2022 14.3398C9.44489 14.3398 8.60866 13.9454 8.60866 12.7463V12.6832H9.20034V12.7542C9.20034 13.4326 9.67367 13.7718 10.2022 13.7718C10.7308 13.7718 11.2041 13.4326 11.2041 12.7542V12.3439C11.2041 11.6655 10.7308 11.3263 10.2022 11.3263C9.7999 11.3263 9.42123 11.5235 9.27134 11.9258ZM16.8998 8.73868H17.4599L13.6653 14.261H13.1052L16.8998 8.73868ZM13.4997 11.4919C13.7994 11.4919 13.9888 11.3341 13.9888 10.9791V9.70113C13.9888 9.34613 13.7994 9.18835 13.4997 9.18835C13.2078 9.18835 13.0184 9.34613 13.0184 9.70113V10.9791C13.0184 11.3341 13.2078 11.4919 13.4997 11.4919ZM13.4997 11.9889C13.0973 11.9889 12.5057 11.7917 12.5057 10.9949V9.68535C12.5057 8.88857 13.0973 8.69134 13.4997 8.69134C13.9099 8.69134 14.5016 8.88857 14.5016 9.68535V10.9949C14.5016 11.7917 13.9099 11.9889 13.4997 11.9889ZM17.0576 13.8113C17.3574 13.8113 17.5467 13.6535 17.5467 13.2985V12.0205C17.5467 11.6655 17.3574 11.5077 17.0576 11.5077C16.7657 11.5077 16.5764 11.6655 16.5764 12.0205V13.2985C16.5764 13.6535 16.7657 13.8113 17.0576 13.8113ZM17.0576 14.3083C16.6552 14.3083 16.0636 14.1111 16.0636 13.3143V12.0047C16.0636 11.2079 16.6552 11.0107 17.0576 11.0107C17.4678 11.0107 18.0595 11.2079 18.0595 12.0047V13.3143C18.0595 14.1111 17.4678 14.3083 17.0576 14.3083Z" fill="#323429"/>
</g>
<defs>
<clipPath id="clip0_15205_1299">
<rect width="24" height="24" rx="12" fill="white"/>
</clipPath>
</defs>
</svg>
