<svg width="100" height="100" viewBox="0 0 100 100" fill="none" xmlns="http://www.w3.org/2000/svg">
<rect width="100" height="100" fill="#E5E5E5"/>
<rect x="-3337.5" y="-2078.5" width="4038" height="3984" rx="4.5" stroke="#8A38F5" stroke-dasharray="10 5"/>
<mask id="path-2-outside-1_3782_13024" maskUnits="userSpaceOnUse" x="32" y="21" width="11" height="26" fill="black">
<rect fill="white" x="32" y="21" width="11" height="26"/>
<path d="M36.1791 24.8889V22.8247H36.1389L36.1213 22.8113V22.6747C36.1213 22.6747 35.9802 22.6363 35.9503 22.6299C35.9204 22.6234 35.8393 22.5882 35.8039 22.555C35.7685 22.5218 35.7616 22.4551 35.7756 22.4135C35.7895 22.3719 35.848 22.2318 35.9044 22.1919C35.9608 22.152 36.0684 22.157 36.1353 22.1704C36.2022 22.1838 36.6007 22.2321 36.7702 22.2303C36.9397 22.2286 37.4948 22.1887 37.7312 22.1188C37.9676 22.0489 38.6448 22.0135 38.8439 22.0036C39.043 21.9937 39.8102 22.0053 40.0747 22.0269C40.3391 22.0484 40.7466 22.1017 40.9775 22.1518C41.2083 22.2018 41.7181 22.3384 41.7816 22.355C41.8451 22.3716 41.9049 22.3867 41.9298 22.4432C41.9548 22.4997 41.9351 22.5481 41.9298 22.5597C41.9246 22.5714 41.6882 22.7813 41.6882 22.7813C41.6882 22.7813 41.5347 22.9429 41.5082 22.9461C41.4817 22.9493 41.3902 22.9411 41.3442 22.926C41.2983 22.9109 41.0357 22.8328 40.9423 22.8095C40.8489 22.7862 40.5755 22.7295 40.4291 22.7111C40.2827 22.6928 39.8524 22.6561 39.5686 22.6512C39.2847 22.6462 38.7222 22.695 38.453 22.7228C38.1838 22.7505 38.1405 22.7657 38.1405 22.7657V24.8641C38.1405 24.8641 38.3171 24.8866 38.3724 24.8995C38.4278 24.9124 38.5159 24.9374 38.5671 24.9706C38.6183 25.0039 38.6781 25.0586 38.697 25.0812C38.7159 25.1037 38.7432 25.1434 38.7432 25.1434C38.7432 25.1434 39.0165 25.1895 39.1343 25.2296C39.2521 25.2698 39.3684 25.3377 39.4069 25.3959C39.4455 25.4542 39.4736 25.4628 39.477 25.6695C39.4804 25.8762 39.4796 25.8923 39.4796 25.8923L39.5234 28.0579C39.5234 28.0579 39.5208 28.0775 39.5148 28.0842C39.5087 28.0909 39.4733 28.1211 39.4437 28.1318C39.414 28.1424 39.345 28.1506 39.3206 28.1523C39.2962 28.1541 39.2679 28.1523 39.2679 28.1523V28.3357L39.6777 28.3808L40.389 28.474C40.389 28.474 41.0284 28.5707 41.1131 28.5942C41.1978 28.6178 41.3046 28.6614 41.3852 28.7382C41.4657 28.8151 41.477 28.9216 41.483 28.9771C41.4891 29.0327 41.4909 29.3529 41.4909 29.3529L41.4969 30.2505L41.5014 32.6196L41.5066 34.1016L41.5135 37.518V42.5171L41.5195 42.949C41.5195 42.949 41.5203 43.0774 41.5161 43.1208C41.5119 43.1642 41.4849 43.4261 41.4702 43.493C41.4555 43.56 41.3739 43.8792 41.3403 43.9652C41.3067 44.0512 41.1758 44.3587 41.1758 44.3587C41.1758 44.3587 41.0042 44.6861 40.9654 44.7359C40.9266 44.7858 40.7686 45.0403 40.7038 45.1156C40.639 45.191 40.4769 45.3751 40.4769 45.3751C40.4769 45.3751 40.3738 45.4928 40.2759 45.5739C40.178 45.6549 40.1486 45.6745 40.1486 45.6745C40.1486 45.6745 40.0421 45.7416 39.9928 45.7694C39.9435 45.7972 39.7798 45.8651 39.7798 45.8651C39.7798 45.8651 39.6074 45.9166 39.5121 45.9273C39.4169 45.9379 39.1603 45.956 39.1223 45.956C39.0842 45.956 38.7332 45.9692 38.7332 45.9692C38.7332 45.9692 37.7994 46.0021 37.4313 45.9999C37.0632 45.9977 36.5561 45.9853 36.2318 45.9731C35.9075 45.961 35.181 45.9213 34.9772 45.8916C34.7733 45.8618 34.6765 45.8348 34.5954 45.7905C34.5144 45.7461 34.4278 45.6884 34.3879 45.6601C34.348 45.6319 34.2402 45.5469 34.2103 45.524C34.1804 45.5012 34.104 45.4331 34.0867 45.4167C34.0694 45.4004 34.0009 45.33 33.9705 45.2983C33.9401 45.2665 33.8724 45.1949 33.8333 45.1486C33.7942 45.1022 33.7034 44.9855 33.6787 44.9525C33.6541 44.9196 33.5738 44.8076 33.547 44.7677C33.5203 44.7278 33.503 44.7 33.4248 44.5558C33.3466 44.4115 33.282 44.272 33.2658 44.2346C33.2495 44.1971 33.1774 44.0182 33.1524 43.9339C33.1275 43.8497 33.0861 43.7337 33.0711 43.639C33.0561 43.5443 33.0328 43.4839 33.0202 43.3317C33.0076 43.1795 33.0045 43.0065 33.0021 42.9121C32.9997 42.8177 33.0021 42.0977 33.0021 42.0977L33.001 40.5904V29.4032C33.001 29.4032 32.9987 29.0914 33.001 29.0503C33.0034 29.0091 33.01 28.9521 33.0349 28.8864C33.0598 28.8208 33.1055 28.7779 33.1314 28.7551C33.1574 28.7323 33.2427 28.6604 33.3038 28.6386C33.3649 28.6168 33.5922 28.5667 33.6535 28.5536C33.7149 28.5405 34.0718 28.4862 34.1673 28.4713C34.2628 28.4564 34.6773 28.4056 34.7413 28.395C34.8053 28.3843 35.0373 28.359 35.0937 28.3546C35.1501 28.3501 35.2012 28.3432 35.2012 28.3432V28.2012C35.2012 28.2012 35.0984 28.1925 35.0677 28.1898C35.037 28.187 34.9591 28.1652 34.9313 28.1434C34.9035 28.1216 34.9035 28.1085 34.9035 28.1085V25.5907C34.9035 25.5907 34.9063 25.5697 34.9071 25.56C34.9079 25.5503 34.9247 25.5127 34.9433 25.4812C34.962 25.4497 35.0139 25.3962 35.0341 25.3751C35.0543 25.354 35.1278 25.3077 35.2057 25.2832C35.2836 25.2586 35.4486 25.214 35.4654 25.213C35.4822 25.212 35.5415 25.2009 35.547 25.1982C35.5525 25.1954 35.6777 25.0519 35.6992 25.0291C35.7207 25.0063 35.7965 24.9607 35.8419 24.9493C35.8873 24.9379 36.0274 24.903 36.0794 24.8968C36.1313 24.8906 36.1791 24.8889 36.1791 24.8889Z"/>
</mask>
<path d="M36.1791 24.8889V22.8247H36.1389L36.1213 22.8113V22.6747C36.1213 22.6747 35.9802 22.6363 35.9503 22.6299C35.9204 22.6234 35.8393 22.5882 35.8039 22.555C35.7685 22.5218 35.7616 22.4551 35.7756 22.4135C35.7895 22.3719 35.848 22.2318 35.9044 22.1919C35.9608 22.152 36.0684 22.157 36.1353 22.1704C36.2022 22.1838 36.6007 22.2321 36.7702 22.2303C36.9397 22.2286 37.4948 22.1887 37.7312 22.1188C37.9676 22.0489 38.6448 22.0135 38.8439 22.0036C39.043 21.9937 39.8102 22.0053 40.0747 22.0269C40.3391 22.0484 40.7466 22.1017 40.9775 22.1518C41.2083 22.2018 41.7181 22.3384 41.7816 22.355C41.8451 22.3716 41.9049 22.3867 41.9298 22.4432C41.9548 22.4997 41.9351 22.5481 41.9298 22.5597C41.9246 22.5714 41.6882 22.7813 41.6882 22.7813C41.6882 22.7813 41.5347 22.9429 41.5082 22.9461C41.4817 22.9493 41.3902 22.9411 41.3442 22.926C41.2983 22.9109 41.0357 22.8328 40.9423 22.8095C40.8489 22.7862 40.5755 22.7295 40.4291 22.7111C40.2827 22.6928 39.8524 22.6561 39.5686 22.6512C39.2847 22.6462 38.7222 22.695 38.453 22.7228C38.1838 22.7505 38.1405 22.7657 38.1405 22.7657V24.8641C38.1405 24.8641 38.3171 24.8866 38.3724 24.8995C38.4278 24.9124 38.5159 24.9374 38.5671 24.9706C38.6183 25.0039 38.6781 25.0586 38.697 25.0812C38.7159 25.1037 38.7432 25.1434 38.7432 25.1434C38.7432 25.1434 39.0165 25.1895 39.1343 25.2296C39.2521 25.2698 39.3684 25.3377 39.4069 25.3959C39.4455 25.4542 39.4736 25.4628 39.477 25.6695C39.4804 25.8762 39.4796 25.8923 39.4796 25.8923L39.5234 28.0579C39.5234 28.0579 39.5208 28.0775 39.5148 28.0842C39.5087 28.0909 39.4733 28.1211 39.4437 28.1318C39.414 28.1424 39.345 28.1506 39.3206 28.1523C39.2962 28.1541 39.2679 28.1523 39.2679 28.1523V28.3357L39.6777 28.3808L40.389 28.474C40.389 28.474 41.0284 28.5707 41.1131 28.5942C41.1978 28.6178 41.3046 28.6614 41.3852 28.7382C41.4657 28.8151 41.477 28.9216 41.483 28.9771C41.4891 29.0327 41.4909 29.3529 41.4909 29.3529L41.4969 30.2505L41.5014 32.6196L41.5066 34.1016L41.5135 37.518V42.5171L41.5195 42.949C41.5195 42.949 41.5203 43.0774 41.5161 43.1208C41.5119 43.1642 41.4849 43.4261 41.4702 43.493C41.4555 43.56 41.3739 43.8792 41.3403 43.9652C41.3067 44.0512 41.1758 44.3587 41.1758 44.3587C41.1758 44.3587 41.0042 44.6861 40.9654 44.7359C40.9266 44.7858 40.7686 45.0403 40.7038 45.1156C40.639 45.191 40.4769 45.3751 40.4769 45.3751C40.4769 45.3751 40.3738 45.4928 40.2759 45.5739C40.178 45.6549 40.1486 45.6745 40.1486 45.6745C40.1486 45.6745 40.0421 45.7416 39.9928 45.7694C39.9435 45.7972 39.7798 45.8651 39.7798 45.8651C39.7798 45.8651 39.6074 45.9166 39.5121 45.9273C39.4169 45.9379 39.1603 45.956 39.1223 45.956C39.0842 45.956 38.7332 45.9692 38.7332 45.9692C38.7332 45.9692 37.7994 46.0021 37.4313 45.9999C37.0632 45.9977 36.5561 45.9853 36.2318 45.9731C35.9075 45.961 35.181 45.9213 34.9772 45.8916C34.7733 45.8618 34.6765 45.8348 34.5954 45.7905C34.5144 45.7461 34.4278 45.6884 34.3879 45.6601C34.348 45.6319 34.2402 45.5469 34.2103 45.524C34.1804 45.5012 34.104 45.4331 34.0867 45.4167C34.0694 45.4004 34.0009 45.33 33.9705 45.2983C33.9401 45.2665 33.8724 45.1949 33.8333 45.1486C33.7942 45.1022 33.7034 44.9855 33.6787 44.9525C33.6541 44.9196 33.5738 44.8076 33.547 44.7677C33.5203 44.7278 33.503 44.7 33.4248 44.5558C33.3466 44.4115 33.282 44.272 33.2658 44.2346C33.2495 44.1971 33.1774 44.0182 33.1524 43.9339C33.1275 43.8497 33.0861 43.7337 33.0711 43.639C33.0561 43.5443 33.0328 43.4839 33.0202 43.3317C33.0076 43.1795 33.0045 43.0065 33.0021 42.9121C32.9997 42.8177 33.0021 42.0977 33.0021 42.0977L33.001 40.5904V29.4032C33.001 29.4032 32.9987 29.0914 33.001 29.0503C33.0034 29.0091 33.01 28.9521 33.0349 28.8864C33.0598 28.8208 33.1055 28.7779 33.1314 28.7551C33.1574 28.7323 33.2427 28.6604 33.3038 28.6386C33.3649 28.6168 33.5922 28.5667 33.6535 28.5536C33.7149 28.5405 34.0718 28.4862 34.1673 28.4713C34.2628 28.4564 34.6773 28.4056 34.7413 28.395C34.8053 28.3843 35.0373 28.359 35.0937 28.3546C35.1501 28.3501 35.2012 28.3432 35.2012 28.3432V28.2012C35.2012 28.2012 35.0984 28.1925 35.0677 28.1898C35.037 28.187 34.9591 28.1652 34.9313 28.1434C34.9035 28.1216 34.9035 28.1085 34.9035 28.1085V25.5907C34.9035 25.5907 34.9063 25.5697 34.9071 25.56C34.9079 25.5503 34.9247 25.5127 34.9433 25.4812C34.962 25.4497 35.0139 25.3962 35.0341 25.3751C35.0543 25.354 35.1278 25.3077 35.2057 25.2832C35.2836 25.2586 35.4486 25.214 35.4654 25.213C35.4822 25.212 35.5415 25.2009 35.547 25.1982C35.5525 25.1954 35.6777 25.0519 35.6992 25.0291C35.7207 25.0063 35.7965 24.9607 35.8419 24.9493C35.8873 24.9379 36.0274 24.903 36.0794 24.8968C36.1313 24.8906 36.1791 24.8889 36.1791 24.8889Z" stroke="#323429" stroke-width="1.3" stroke-miterlimit="10" stroke-linejoin="bevel" mask="url(#path-2-outside-1_3782_13024)"/>
<path d="M41.5957 30.8966V42.6749H34.1025V30.8966H41.5957Z" stroke="#323429" stroke-width="0.65"/>
</svg>
