<svg width="100" height="100" viewBox="0 0 100 100" fill="none" xmlns="http://www.w3.org/2000/svg">
<rect width="100" height="100" fill="#E5E5E5"/>
<rect x="-3337.5" y="-1938.5" width="4038" height="3984" rx="4.5" stroke="#8A38F5" stroke-dasharray="10 5"/>
<path d="M41.7383 23.668L39.1875 23.7549V24.5293C39.4317 24.6907 39.5676 24.9727 39.5703 25.2324L39.6064 28.3604L40.2998 28.5391C40.6688 28.634 40.8924 28.8875 41.002 29.1348C41.0901 29.334 41.1096 29.5348 41.1006 29.6885V40.249L41.1113 41.4834C41.1147 41.942 41.1179 42.4271 41.1191 42.876C41.1204 43.3247 41.1199 43.74 41.1172 44.0566C41.1158 44.2144 41.1142 44.3509 41.1113 44.4561C41.1091 44.5375 41.1049 44.6566 41.0918 44.7373C41.0551 44.9636 40.9702 45.1918 40.7891 45.3916C40.6221 45.5757 40.4157 45.6872 40.2334 45.7676C40.1137 45.8203 39.9782 45.8436 39.9082 45.8545C39.8146 45.8691 39.705 45.8809 39.5898 45.8916C39.3579 45.9131 39.0692 45.9317 38.7686 45.9463C38.1655 45.9755 37.4838 45.9926 37.04 46H37.0293C36.4659 46 35.1286 45.9832 34.4092 45.9092C33.9564 45.8625 33.5884 45.7057 33.333 45.4424C33.0993 45.2012 32.9944 44.9009 33.001 44.6299H33V29.626C33 29.3987 33.0394 29.1657 33.1592 28.9658C33.2615 28.7953 33.4513 28.6163 33.7158 28.5723L34.5732 28.3584V25.3711C34.5733 25.2569 34.5815 25.1356 34.6123 25.0215C34.627 24.967 34.657 24.8773 34.7197 24.7852C34.7473 24.7446 34.8376 24.622 34.999 24.5459V22H41.7383V23.668ZM35.6689 25.1533H35.2861L35.2803 25.1553C35.2654 25.1662 35.2432 25.2187 35.2432 25.3711V28.8818L33.8408 29.2314C33.7841 29.2315 33.6699 29.311 33.6699 29.626V44.6299C33.6559 44.8049 33.7985 45.1732 34.4785 45.2432C34.9888 45.2956 35.8497 45.318 36.4873 45.3262L37.0293 45.3301C37.853 45.3164 39.5012 45.2665 39.9004 45.1738L39.9629 45.1553C40.2232 45.0405 40.3542 44.9253 40.4111 44.7227L40.4307 44.6299C40.4443 44.5445 40.4481 44.0454 40.4482 43.3896H35.0889V32.2822H40.4307V29.6689C40.4439 29.5458 40.4101 29.2919 40.1816 29.2031L40.1338 29.1885L38.9424 28.8818L38.9004 25.2402C38.9004 25.1637 38.8479 25.0873 38.7666 25.0693L38.7305 25.0654H38.5176V23.1074L41.0684 23.0195V22.6699H35.6689V25.1533ZM35.7588 42.7197H40.3857V32.9521H35.7588V42.7197Z" fill="#323429"/>
</svg>
